<svg width="1363" height="301" viewBox="0 0 1363 301" fill="none" xmlns="http://www.w3.org/2000/svg">
<rect width="1363" height="301" rx="15" fill="#F0F0F0"/>
<path d="M0 15C0 6.71573 6.71573 0 15 0H37V301H15C6.71573 301 0 294.284 0 286V15Z" fill="#232E52"/>
<path d="M107.684 144H99.0093L99.063 136.749H107.684C109.474 136.749 110.987 136.319 112.222 135.46C113.475 134.601 114.424 133.32 115.069 131.62C115.731 129.901 116.062 127.788 116.062 125.282V123.59C116.062 121.71 115.875 120.063 115.499 118.648C115.14 117.216 114.603 116.026 113.887 115.077C113.171 114.11 112.276 113.385 111.202 112.901C110.145 112.418 108.928 112.176 107.549 112.176H98.8481V104.898H107.549C110.199 104.898 112.625 105.355 114.827 106.268C117.047 107.163 118.963 108.452 120.574 110.135C122.203 111.8 123.457 113.779 124.334 116.07C125.229 118.344 125.677 120.868 125.677 123.644V125.282C125.677 128.039 125.229 130.563 124.334 132.855C123.457 135.147 122.212 137.125 120.601 138.79C118.99 140.455 117.083 141.744 114.881 142.657C112.697 143.552 110.298 144 107.684 144ZM104.407 104.898V144H94.981V104.898H104.407ZM144.234 144.537C141.871 144.537 139.758 144.17 137.896 143.436C136.034 142.684 134.458 141.655 133.169 140.348C131.898 139.041 130.923 137.537 130.242 135.836C129.58 134.135 129.249 132.336 129.249 130.438V129.417C129.249 127.287 129.544 125.318 130.135 123.509C130.726 121.683 131.603 120.09 132.767 118.729C133.93 117.368 135.389 116.312 137.144 115.56C138.899 114.79 140.94 114.405 143.267 114.405C145.326 114.405 147.17 114.736 148.799 115.399C150.429 116.061 151.807 117.01 152.935 118.246C154.081 119.481 154.949 120.976 155.54 122.73C156.149 124.485 156.453 126.454 156.453 128.639V132.318H132.713V126.651H147.618V125.953C147.636 124.986 147.465 124.163 147.107 123.482C146.767 122.802 146.266 122.283 145.604 121.925C144.941 121.567 144.135 121.388 143.187 121.388C142.202 121.388 141.387 121.603 140.743 122.032C140.116 122.462 139.624 123.053 139.266 123.805C138.925 124.539 138.684 125.389 138.541 126.356C138.397 127.323 138.326 128.343 138.326 129.417V130.438C138.326 131.512 138.469 132.488 138.755 133.365C139.06 134.243 139.489 134.994 140.044 135.621C140.617 136.23 141.298 136.704 142.085 137.044C142.891 137.385 143.804 137.555 144.825 137.555C146.06 137.555 147.278 137.322 148.477 136.856C149.677 136.391 150.706 135.621 151.565 134.547L155.674 139.435C155.083 140.276 154.242 141.091 153.15 141.878C152.076 142.666 150.787 143.311 149.283 143.812C147.779 144.295 146.096 144.537 144.234 144.537ZM170.23 137.796L175.95 114.942H185.484L175.977 144H170.337L170.23 137.796ZM166.846 114.942L172.486 137.796L172.432 144H166.766L157.286 114.942H166.846ZM197.73 102.75V144H188.653V102.75H197.73ZM202.188 129.767V129.203C202.188 127.072 202.492 125.112 203.101 123.321C203.71 121.513 204.605 119.946 205.787 118.622C206.968 117.297 208.427 116.267 210.164 115.533C211.901 114.781 213.906 114.405 216.18 114.405C218.471 114.405 220.486 114.781 222.222 115.533C223.977 116.267 225.445 117.297 226.626 118.622C227.808 119.946 228.703 121.513 229.312 123.321C229.921 125.112 230.225 127.072 230.225 129.203V129.767C230.225 131.879 229.921 133.84 229.312 135.648C228.703 137.438 227.808 139.005 226.626 140.348C225.445 141.673 223.986 142.702 222.249 143.436C220.512 144.17 218.507 144.537 216.233 144.537C213.96 144.537 211.945 144.17 210.191 143.436C208.436 142.702 206.968 141.673 205.787 140.348C204.605 139.005 203.71 137.438 203.101 135.648C202.492 133.84 202.188 131.879 202.188 129.767ZM211.238 129.203V129.767C211.238 130.859 211.319 131.879 211.48 132.828C211.641 133.777 211.91 134.61 212.286 135.326C212.662 136.024 213.172 136.57 213.816 136.964C214.461 137.358 215.267 137.555 216.233 137.555C217.182 137.555 217.97 137.358 218.597 136.964C219.241 136.57 219.751 136.024 220.127 135.326C220.503 134.61 220.772 133.777 220.933 132.828C221.094 131.879 221.175 130.859 221.175 129.767V129.203C221.175 128.146 221.094 127.153 220.933 126.222C220.772 125.273 220.503 124.44 220.127 123.724C219.751 122.99 219.241 122.417 218.597 122.005C217.952 121.594 217.146 121.388 216.18 121.388C215.231 121.388 214.434 121.594 213.79 122.005C213.163 122.417 212.662 122.99 212.286 123.724C211.91 124.44 211.641 125.273 211.48 126.222C211.319 127.153 211.238 128.146 211.238 129.203ZM252.515 114.942H260.733V142.872C260.733 145.558 260.115 147.831 258.88 149.693C257.645 151.573 255.917 152.997 253.697 153.963C251.495 154.948 248.917 155.44 245.962 155.44C244.655 155.44 243.322 155.27 241.961 154.93C240.6 154.608 239.329 154.125 238.147 153.48C236.966 152.835 235.972 152.039 235.167 151.09L238.953 145.772C239.687 146.596 240.609 147.294 241.719 147.867C242.829 148.458 244.136 148.753 245.64 148.753C246.947 148.753 248.039 148.521 248.917 148.055C249.812 147.59 250.492 146.909 250.958 146.014C251.423 145.137 251.656 144.072 251.656 142.818V121.817L252.515 114.942ZM233.206 129.82V129.256C233.206 127.054 233.475 125.049 234.012 123.241C234.567 121.415 235.354 119.848 236.375 118.541C237.413 117.216 238.667 116.196 240.135 115.479C241.603 114.763 243.259 114.405 245.103 114.405C247.09 114.405 248.72 114.79 249.991 115.56C251.28 116.312 252.309 117.368 253.079 118.729C253.867 120.09 254.476 121.683 254.905 123.509C255.353 125.318 255.729 127.269 256.033 129.364V130.035C255.729 132.005 255.308 133.867 254.771 135.621C254.252 137.358 253.571 138.897 252.73 140.24C251.889 141.583 250.832 142.639 249.561 143.409C248.308 144.161 246.804 144.537 245.049 144.537C243.223 144.537 241.576 144.17 240.108 143.436C238.658 142.702 237.413 141.673 236.375 140.348C235.354 139.023 234.567 137.465 234.012 135.675C233.475 133.884 233.206 131.933 233.206 129.82ZM242.256 129.256V129.82C242.256 130.912 242.355 131.924 242.552 132.855C242.767 133.786 243.089 134.61 243.519 135.326C243.948 136.024 244.476 136.57 245.103 136.964C245.748 137.358 246.5 137.555 247.359 137.555C248.666 137.555 249.722 137.277 250.528 136.722C251.333 136.167 251.915 135.379 252.273 134.359C252.632 133.338 252.784 132.139 252.73 130.76V128.639C252.766 127.457 252.685 126.419 252.488 125.523C252.291 124.61 251.978 123.849 251.548 123.241C251.137 122.632 250.582 122.175 249.883 121.871C249.203 121.549 248.379 121.388 247.413 121.388C246.571 121.388 245.828 121.585 245.184 121.979C244.539 122.372 244.002 122.927 243.572 123.644C243.143 124.342 242.811 125.174 242.579 126.141C242.364 127.09 242.256 128.128 242.256 129.256Z" fill="black"/>
<path d="M114.661 66.9775V68.1567C114.661 70.048 114.405 71.7456 113.892 73.2495C113.379 74.7534 112.656 76.0352 111.722 77.0947C110.787 78.1429 109.671 78.9461 108.372 79.5044C107.085 80.0627 105.655 80.3418 104.083 80.3418C102.522 80.3418 101.092 80.0627 99.793 79.5044C98.5055 78.9461 97.389 78.1429 96.4434 77.0947C95.4977 76.0352 94.7629 74.7534 94.2388 73.2495C93.7261 71.7456 93.4697 70.048 93.4697 68.1567V66.9775C93.4697 65.0749 93.7261 63.3773 94.2388 61.8848C94.7515 60.3809 95.4749 59.0991 96.4092 58.0396C97.3548 56.98 98.4714 56.1711 99.7588 55.6128C101.058 55.0545 102.487 54.7754 104.048 54.7754C105.621 54.7754 107.05 55.0545 108.338 55.6128C109.637 56.1711 110.753 56.98 111.688 58.0396C112.633 59.0991 113.362 60.3809 113.875 61.8848C114.399 63.3773 114.661 65.0749 114.661 66.9775ZM109.483 68.1567V66.9434C109.483 65.6217 109.363 64.4596 109.124 63.457C108.885 62.4544 108.532 61.6113 108.064 60.9277C107.597 60.2441 107.028 59.7314 106.355 59.3896C105.683 59.0365 104.914 58.8599 104.048 58.8599C103.182 58.8599 102.413 59.0365 101.741 59.3896C101.08 59.7314 100.516 60.2441 100.049 60.9277C99.5936 61.6113 99.2461 62.4544 99.0068 63.457C98.7676 64.4596 98.6479 65.6217 98.6479 66.9434V68.1567C98.6479 69.467 98.7676 70.6291 99.0068 71.6431C99.2461 72.6457 99.5993 73.4945 100.066 74.1895C100.534 74.873 101.103 75.3914 101.775 75.7446C102.448 76.0978 103.217 76.2744 104.083 76.2744C104.948 76.2744 105.717 76.0978 106.39 75.7446C107.062 75.3914 107.626 74.873 108.082 74.1895C108.537 73.4945 108.885 72.6457 109.124 71.6431C109.363 70.6291 109.483 69.467 109.483 68.1567ZM122.967 65.3369V80H118.028V61.5088H122.659L122.967 65.3369ZM122.283 70.105H120.916C120.916 68.8175 121.07 67.6326 121.377 66.5503C121.696 65.4565 122.158 64.5109 122.762 63.7134C123.377 62.9045 124.135 62.2778 125.035 61.8335C125.935 61.3892 126.977 61.167 128.162 61.167C128.982 61.167 129.734 61.2923 130.418 61.543C131.102 61.7822 131.688 62.1639 132.178 62.688C132.68 63.2007 133.067 63.8729 133.34 64.7046C133.614 65.5249 133.75 66.5104 133.75 67.6611V80H128.829V68.208C128.829 67.3649 128.715 66.7155 128.487 66.2598C128.259 65.804 127.934 65.485 127.513 65.3027C127.103 65.1204 126.607 65.0293 126.026 65.0293C125.388 65.0293 124.83 65.1603 124.351 65.4224C123.884 65.6844 123.497 66.049 123.189 66.5161C122.881 66.9718 122.653 67.5073 122.505 68.1226C122.357 68.7378 122.283 69.3986 122.283 70.105ZM133.289 69.541L131.529 69.7632C131.529 68.5555 131.677 67.4333 131.973 66.3965C132.281 65.3597 132.731 64.4482 133.323 63.6621C133.927 62.876 134.673 62.2664 135.562 61.8335C136.451 61.3892 137.476 61.167 138.638 61.167C139.527 61.167 140.336 61.298 141.065 61.5601C141.794 61.8107 142.415 62.2152 142.928 62.7734C143.452 63.3203 143.851 64.0381 144.124 64.9268C144.409 65.8154 144.551 66.9035 144.551 68.1909V80H139.612V68.1909C139.612 67.3364 139.498 66.687 139.271 66.2427C139.054 65.7869 138.735 65.4736 138.313 65.3027C137.903 65.1204 137.413 65.0293 136.844 65.0293C136.251 65.0293 135.733 65.1489 135.289 65.3882C134.844 65.616 134.474 65.9351 134.178 66.3452C133.882 66.7554 133.659 67.2339 133.511 67.7808C133.363 68.3162 133.289 68.903 133.289 69.541ZM158.343 75.8301V67.5928C158.343 67.0003 158.246 66.4933 158.052 66.0718C157.859 65.6388 157.557 65.3027 157.146 65.0635C156.748 64.8242 156.229 64.7046 155.591 64.7046C155.044 64.7046 154.572 64.8014 154.173 64.9951C153.774 65.1774 153.466 65.4451 153.25 65.7983C153.034 66.1401 152.925 66.5446 152.925 67.0117H148.003C148.003 66.2256 148.186 65.4793 148.55 64.7729C148.915 64.0666 149.445 63.4456 150.14 62.9102C150.835 62.3633 151.661 61.936 152.618 61.6284C153.586 61.3208 154.668 61.167 155.865 61.167C157.3 61.167 158.576 61.4062 159.693 61.8848C160.809 62.3633 161.687 63.0811 162.325 64.0381C162.974 64.9951 163.299 66.1914 163.299 67.627V75.5396C163.299 76.5535 163.361 77.3853 163.487 78.0347C163.612 78.6727 163.794 79.231 164.034 79.7095V80H159.061C158.821 79.4987 158.639 78.8721 158.514 78.1201C158.4 77.3568 158.343 76.5934 158.343 75.8301ZM158.992 68.7378L159.026 71.5234H156.275C155.625 71.5234 155.062 71.5975 154.583 71.7456C154.104 71.8937 153.711 72.1045 153.404 72.3779C153.096 72.64 152.868 72.9476 152.72 73.3008C152.583 73.654 152.515 74.0413 152.515 74.4629C152.515 74.8844 152.612 75.2661 152.806 75.6079C152.999 75.9383 153.278 76.2004 153.643 76.394C154.008 76.5763 154.435 76.6675 154.925 76.6675C155.665 76.6675 156.309 76.5194 156.856 76.2231C157.403 75.9269 157.824 75.5623 158.121 75.1294C158.428 74.6965 158.588 74.2863 158.599 73.8989L159.898 75.9839C159.716 76.451 159.465 76.9352 159.146 77.4365C158.838 77.9378 158.445 78.4106 157.967 78.855C157.488 79.2879 156.913 79.6468 156.241 79.9316C155.569 80.2051 154.771 80.3418 153.848 80.3418C152.675 80.3418 151.609 80.1082 150.652 79.6411C149.707 79.1626 148.955 78.5075 148.396 77.6758C147.85 76.8327 147.576 75.8757 147.576 74.8047C147.576 73.8363 147.758 72.9761 148.123 72.2241C148.488 71.4722 149.023 70.8398 149.729 70.3271C150.447 69.8031 151.342 69.41 152.413 69.1479C153.484 68.8745 154.725 68.7378 156.138 68.7378H158.992ZM172.015 65.542V80H167.093V61.5088H171.724L172.015 65.542ZM177.586 61.3892L177.5 65.9521C177.261 65.918 176.971 65.8895 176.629 65.8667C176.299 65.8325 175.997 65.8154 175.723 65.8154C175.028 65.8154 174.424 65.9066 173.912 66.0889C173.41 66.2598 172.989 66.5161 172.647 66.8579C172.317 67.1997 172.066 67.6156 171.895 68.1055C171.736 68.5954 171.644 69.1536 171.622 69.7803L170.63 69.4727C170.63 68.2764 170.75 67.1769 170.989 66.1743C171.229 65.1603 171.576 64.2773 172.032 63.5254C172.499 62.7734 173.069 62.1924 173.741 61.7822C174.413 61.3721 175.182 61.167 176.048 61.167C176.321 61.167 176.6 61.1898 176.885 61.2354C177.17 61.2695 177.404 61.3208 177.586 61.3892ZM206.929 76.001V80H189.292V76.001H206.929ZM206.673 57.9712L191.565 80H187.959V77.0605L203.187 55.1172H206.673V57.9712ZM204.913 55.1172V59.1333H187.977V55.1172H204.913ZM218.021 80.3418C216.585 80.3418 215.298 80.1139 214.158 79.6582C213.019 79.1911 212.05 78.5474 211.253 77.7271C210.467 76.9067 209.863 75.9554 209.441 74.873C209.02 73.7793 208.809 72.6172 208.809 71.3867V70.7031C208.809 69.3018 209.008 68.02 209.407 66.8579C209.806 65.6958 210.376 64.6875 211.116 63.833C211.868 62.9785 212.78 62.3234 213.851 61.8677C214.922 61.4006 216.129 61.167 217.474 61.167C218.784 61.167 219.946 61.3835 220.96 61.8164C221.974 62.2493 222.823 62.8646 223.506 63.6621C224.201 64.4596 224.725 65.4167 225.079 66.5332C225.432 67.6383 225.608 68.8688 225.608 70.2246V72.2754H210.911V68.9941H220.772V68.6182C220.772 67.9346 220.647 67.325 220.396 66.7896C220.157 66.2427 219.792 65.8097 219.302 65.4907C218.812 65.1717 218.186 65.0122 217.422 65.0122C216.773 65.0122 216.215 65.1546 215.748 65.4395C215.28 65.7243 214.899 66.123 214.603 66.6357C214.318 67.1484 214.101 67.7523 213.953 68.4473C213.816 69.1309 213.748 69.8828 213.748 70.7031V71.3867C213.748 72.1273 213.851 72.8109 214.056 73.4375C214.272 74.0641 214.574 74.6053 214.961 75.061C215.36 75.5168 215.839 75.87 216.397 76.1206C216.967 76.3713 217.61 76.4966 218.328 76.4966C219.217 76.4966 220.043 76.3257 220.806 75.9839C221.581 75.6307 222.247 75.1009 222.806 74.3945L225.198 76.9922C224.811 77.5505 224.281 78.0859 223.609 78.5986C222.948 79.1113 222.151 79.5329 221.216 79.8633C220.282 80.1823 219.217 80.3418 218.021 80.3418ZM233.606 61.5088V80H228.667V61.5088H233.606ZM228.36 56.6895C228.36 55.9717 228.611 55.3792 229.112 54.9121C229.613 54.445 230.285 54.2114 231.128 54.2114C231.96 54.2114 232.627 54.445 233.128 54.9121C233.641 55.3792 233.897 55.9717 233.897 56.6895C233.897 57.4072 233.641 57.9997 233.128 58.4668C232.627 58.9339 231.96 59.1675 231.128 59.1675C230.285 59.1675 229.613 58.9339 229.112 58.4668C228.611 57.9997 228.36 57.4072 228.36 56.6895ZM242.493 65.4565V80H237.571V61.5088H242.186L242.493 65.4565ZM241.775 70.105H240.442C240.442 68.7378 240.619 67.5073 240.972 66.4136C241.325 65.3084 241.821 64.3685 242.459 63.5938C243.097 62.8076 243.855 62.2095 244.732 61.7993C245.621 61.3778 246.612 61.167 247.706 61.167C248.571 61.167 249.363 61.2923 250.081 61.543C250.799 61.7936 251.414 62.1924 251.927 62.7393C252.451 63.2861 252.85 64.0096 253.123 64.9097C253.408 65.8097 253.55 66.9092 253.55 68.208V80H248.594V68.1909C248.594 67.3706 248.48 66.7326 248.252 66.2769C248.025 65.8211 247.688 65.5021 247.244 65.3198C246.811 65.1261 246.276 65.0293 245.638 65.0293C244.977 65.0293 244.402 65.1603 243.912 65.4224C243.433 65.6844 243.034 66.049 242.715 66.5161C242.408 66.9718 242.174 67.5073 242.015 68.1226C241.855 68.7378 241.775 69.3986 241.775 70.105ZM265.804 80.3418C264.368 80.3418 263.081 80.1139 261.941 79.6582C260.802 79.1911 259.834 78.5474 259.036 77.7271C258.25 76.9067 257.646 75.9554 257.225 74.873C256.803 73.7793 256.592 72.6172 256.592 71.3867V70.7031C256.592 69.3018 256.792 68.02 257.19 66.8579C257.589 65.6958 258.159 64.6875 258.899 63.833C259.651 62.9785 260.563 62.3234 261.634 61.8677C262.705 61.4006 263.912 61.167 265.257 61.167C266.567 61.167 267.729 61.3835 268.743 61.8164C269.757 62.2493 270.606 62.8646 271.29 63.6621C271.985 64.4596 272.509 65.4167 272.862 66.5332C273.215 67.6383 273.392 68.8688 273.392 70.2246V72.2754H258.694V68.9941H268.555V68.6182C268.555 67.9346 268.43 67.325 268.179 66.7896C267.94 66.2427 267.575 65.8097 267.085 65.4907C266.596 65.1717 265.969 65.0122 265.206 65.0122C264.556 65.0122 263.998 65.1546 263.531 65.4395C263.064 65.7243 262.682 66.123 262.386 66.6357C262.101 67.1484 261.884 67.7523 261.736 68.4473C261.6 69.1309 261.531 69.8828 261.531 70.7031V71.3867C261.531 72.1273 261.634 72.8109 261.839 73.4375C262.055 74.0641 262.357 74.6053 262.745 75.061C263.143 75.5168 263.622 75.87 264.18 76.1206C264.75 76.3713 265.394 76.4966 266.111 76.4966C267 76.4966 267.826 76.3257 268.589 75.9839C269.364 75.6307 270.031 75.1009 270.589 74.3945L272.981 76.9922C272.594 77.5505 272.064 78.0859 271.392 78.5986C270.731 79.1113 269.934 79.5329 269 79.8633C268.065 80.1823 267 80.3418 265.804 80.3418ZM287.115 75.9668V53.75H292.071V80H287.61L287.115 75.9668ZM275.425 70.9766V70.6177C275.425 69.2049 275.585 67.9232 275.904 66.7725C276.223 65.6104 276.69 64.6134 277.305 63.7817C277.92 62.95 278.678 62.3063 279.578 61.8506C280.478 61.3949 281.504 61.167 282.654 61.167C283.737 61.167 284.682 61.3949 285.491 61.8506C286.312 62.3063 287.007 62.9557 287.576 63.7988C288.157 64.6305 288.624 65.616 288.978 66.7554C289.331 67.8833 289.587 69.1195 289.747 70.4639V71.25C289.587 72.5374 289.331 73.7337 288.978 74.8389C288.624 75.944 288.157 76.9124 287.576 77.7441C287.007 78.5645 286.312 79.2025 285.491 79.6582C284.671 80.1139 283.714 80.3418 282.62 80.3418C281.469 80.3418 280.444 80.1082 279.544 79.6411C278.655 79.174 277.903 78.5189 277.288 77.6758C276.684 76.8327 276.223 75.8415 275.904 74.7021C275.585 73.5628 275.425 72.321 275.425 70.9766ZM280.347 70.6177V70.9766C280.347 71.7399 280.404 72.452 280.518 73.1128C280.643 73.7736 280.843 74.3604 281.116 74.873C281.401 75.3743 281.766 75.7674 282.21 76.0522C282.666 76.3257 283.218 76.4624 283.868 76.4624C284.711 76.4624 285.406 76.2744 285.953 75.8984C286.5 75.5111 286.915 74.9813 287.2 74.3091C287.496 73.6369 287.667 72.8621 287.713 71.9849V69.7461C287.679 69.0283 287.576 68.3846 287.405 67.8149C287.246 67.2339 287.007 66.7383 286.688 66.3281C286.38 65.918 285.993 65.599 285.525 65.3711C285.07 65.1432 284.528 65.0293 283.902 65.0293C283.264 65.0293 282.717 65.1774 282.261 65.4736C281.806 65.7585 281.435 66.1515 281.15 66.6528C280.877 67.1541 280.672 67.7466 280.535 68.4302C280.41 69.1024 280.347 69.8315 280.347 70.6177ZM306.836 75.9668V53.75H311.792V80H307.332L306.836 75.9668ZM295.147 70.9766V70.6177C295.147 69.2049 295.306 67.9232 295.625 66.7725C295.944 65.6104 296.412 64.6134 297.027 63.7817C297.642 62.95 298.4 62.3063 299.3 61.8506C300.2 61.3949 301.225 61.167 302.376 61.167C303.458 61.167 304.404 61.3949 305.213 61.8506C306.033 62.3063 306.728 62.9557 307.298 63.7988C307.879 64.6305 308.346 65.616 308.699 66.7554C309.052 67.8833 309.309 69.1195 309.468 70.4639V71.25C309.309 72.5374 309.052 73.7337 308.699 74.8389C308.346 75.944 307.879 76.9124 307.298 77.7441C306.728 78.5645 306.033 79.2025 305.213 79.6582C304.393 80.1139 303.436 80.3418 302.342 80.3418C301.191 80.3418 300.166 80.1082 299.266 79.6411C298.377 79.174 297.625 78.5189 297.01 77.6758C296.406 76.8327 295.944 75.8415 295.625 74.7021C295.306 73.5628 295.147 72.321 295.147 70.9766ZM300.069 70.6177V70.9766C300.069 71.7399 300.126 72.452 300.24 73.1128C300.365 73.7736 300.564 74.3604 300.838 74.873C301.123 75.3743 301.487 75.7674 301.932 76.0522C302.387 76.3257 302.94 76.4624 303.589 76.4624C304.432 76.4624 305.127 76.2744 305.674 75.8984C306.221 75.5111 306.637 74.9813 306.922 74.3091C307.218 73.6369 307.389 72.8621 307.435 71.9849V69.7461C307.4 69.0283 307.298 68.3846 307.127 67.8149C306.967 67.2339 306.728 66.7383 306.409 66.3281C306.102 65.918 305.714 65.599 305.247 65.3711C304.791 65.1432 304.25 65.0293 303.624 65.0293C302.986 65.0293 302.439 65.1774 301.983 65.4736C301.527 65.7585 301.157 66.1515 300.872 66.6528C300.599 67.1541 300.394 67.7466 300.257 68.4302C300.132 69.1024 300.069 69.8315 300.069 70.6177ZM320.833 61.5088V80H315.894V61.5088H320.833ZM315.586 56.6895C315.586 55.9717 315.837 55.3792 316.338 54.9121C316.84 54.445 317.512 54.2114 318.355 54.2114C319.187 54.2114 319.853 54.445 320.354 54.9121C320.867 55.3792 321.124 55.9717 321.124 56.6895C321.124 57.4072 320.867 57.9997 320.354 58.4668C319.853 58.9339 319.187 59.1675 318.355 59.1675C317.512 59.1675 316.84 58.9339 316.338 58.4668C315.837 57.9997 315.586 57.4072 315.586 56.6895ZM329.72 65.4565V80H324.798V61.5088H329.412L329.72 65.4565ZM329.002 70.105H327.669C327.669 68.7378 327.846 67.5073 328.199 66.4136C328.552 65.3084 329.048 64.3685 329.686 63.5938C330.324 62.8076 331.081 62.2095 331.958 61.7993C332.847 61.3778 333.838 61.167 334.932 61.167C335.798 61.167 336.59 61.2923 337.308 61.543C338.025 61.7936 338.641 62.1924 339.153 62.7393C339.677 63.2861 340.076 64.0096 340.35 64.9097C340.634 65.8097 340.777 66.9092 340.777 68.208V80H335.821V68.1909C335.821 67.3706 335.707 66.7326 335.479 66.2769C335.251 65.8211 334.915 65.5021 334.471 65.3198C334.038 65.1261 333.502 65.0293 332.864 65.0293C332.203 65.0293 331.628 65.1603 331.138 65.4224C330.66 65.6844 330.261 66.049 329.942 66.5161C329.634 66.9718 329.401 67.5073 329.241 68.1226C329.082 68.7378 329.002 69.3986 329.002 70.105ZM353.03 80.3418C351.595 80.3418 350.307 80.1139 349.168 79.6582C348.029 79.1911 347.06 78.5474 346.263 77.7271C345.477 76.9067 344.873 75.9554 344.451 74.873C344.03 73.7793 343.819 72.6172 343.819 71.3867V70.7031C343.819 69.3018 344.018 68.02 344.417 66.8579C344.816 65.6958 345.385 64.6875 346.126 63.833C346.878 62.9785 347.789 62.3234 348.86 61.8677C349.931 61.4006 351.139 61.167 352.483 61.167C353.794 61.167 354.956 61.3835 355.97 61.8164C356.984 62.2493 357.833 62.8646 358.516 63.6621C359.211 64.4596 359.735 65.4167 360.088 66.5332C360.442 67.6383 360.618 68.8688 360.618 70.2246V72.2754H345.921V68.9941H355.782V68.6182C355.782 67.9346 355.656 67.325 355.406 66.7896C355.167 66.2427 354.802 65.8097 354.312 65.4907C353.822 65.1717 353.195 65.0122 352.432 65.0122C351.783 65.0122 351.224 65.1546 350.757 65.4395C350.29 65.7243 349.909 66.123 349.612 66.6357C349.327 67.1484 349.111 67.7523 348.963 68.4473C348.826 69.1309 348.758 69.8828 348.758 70.7031V71.3867C348.758 72.1273 348.86 72.8109 349.065 73.4375C349.282 74.0641 349.584 74.6053 349.971 75.061C350.37 75.5168 350.848 75.87 351.407 76.1206C351.976 76.3713 352.62 76.4966 353.338 76.4966C354.227 76.4966 355.053 76.3257 355.816 75.9839C356.591 75.6307 357.257 75.1009 357.815 74.3945L360.208 76.9922C359.821 77.5505 359.291 78.0859 358.619 78.5986C357.958 79.1113 357.16 79.5329 356.226 79.8633C355.292 80.1823 354.227 80.3418 353.03 80.3418Z" fill="#888888"/>
<rect x="92" y="181" width="1179" height="80" rx="13.3333" fill="#CCCCCC"/>
<rect x="107" y="196.333" width="208" height="49.3333" rx="4.66667" fill="#888888" stroke="#888888" stroke-width="4"/>
<path d="M166.656 213.167H169.635L173.021 223.719L176.406 213.167H179.385L174.229 228.333H171.813L166.656 213.167ZM164.844 213.167H167.927L168.5 224.792V228.333H164.844V213.167ZM178.115 213.167H181.208V228.333H177.542V224.792L178.115 213.167ZM182.948 222.812V222.594C182.948 221.767 183.066 221.007 183.302 220.312C183.538 219.611 183.885 219.003 184.344 218.49C184.802 217.976 185.368 217.576 186.042 217.292C186.715 217 187.493 216.854 188.375 216.854C189.264 216.854 190.045 217 190.719 217.292C191.399 217.576 191.969 217.976 192.427 218.49C192.885 219.003 193.233 219.611 193.469 220.312C193.705 221.007 193.823 221.767 193.823 222.594V222.812C193.823 223.632 193.705 224.392 193.469 225.094C193.233 225.788 192.885 226.396 192.427 226.917C191.969 227.431 191.403 227.83 190.729 228.115C190.056 228.399 189.278 228.542 188.396 228.542C187.514 228.542 186.733 228.399 186.052 228.115C185.372 227.83 184.802 227.431 184.344 226.917C183.885 226.396 183.538 225.788 183.302 225.094C183.066 224.392 182.948 223.632 182.948 222.812ZM186.458 222.594V222.812C186.458 223.236 186.49 223.632 186.552 224C186.615 224.368 186.719 224.691 186.865 224.969C187.01 225.24 187.208 225.451 187.458 225.604C187.708 225.757 188.021 225.833 188.396 225.833C188.764 225.833 189.069 225.757 189.313 225.604C189.563 225.451 189.76 225.24 189.906 224.969C190.052 224.691 190.156 224.368 190.219 224C190.281 223.632 190.313 223.236 190.313 222.812V222.594C190.313 222.184 190.281 221.799 190.219 221.437C190.156 221.069 190.052 220.747 189.906 220.469C189.76 220.184 189.563 219.962 189.313 219.802C189.063 219.642 188.75 219.562 188.375 219.562C188.007 219.562 187.698 219.642 187.448 219.802C187.205 219.962 187.01 220.184 186.865 220.469C186.719 220.747 186.615 221.069 186.552 221.437C186.49 221.799 186.458 222.184 186.458 222.594ZM198.833 219.469V228.333H195.323V217.062H198.615L198.833 219.469ZM198.417 222.312L197.594 222.333C197.594 221.472 197.698 220.705 197.906 220.031C198.115 219.351 198.41 218.774 198.792 218.302C199.174 217.83 199.628 217.472 200.156 217.229C200.691 216.979 201.285 216.854 201.938 216.854C202.458 216.854 202.934 216.931 203.365 217.083C203.802 217.236 204.177 217.483 204.49 217.823C204.809 218.163 205.052 218.615 205.219 219.177C205.392 219.733 205.479 220.42 205.479 221.24V228.333H201.948V221.229C201.948 220.778 201.885 220.434 201.76 220.198C201.635 219.955 201.455 219.788 201.219 219.698C200.983 219.608 200.694 219.562 200.354 219.562C199.993 219.562 199.688 219.632 199.438 219.771C199.188 219.91 198.986 220.104 198.833 220.354C198.688 220.597 198.58 220.885 198.51 221.219C198.448 221.552 198.417 221.917 198.417 222.312ZM214.51 217.062H217.698V227.896C217.698 228.937 217.458 229.819 216.979 230.542C216.5 231.271 215.83 231.823 214.969 232.198C214.115 232.58 213.115 232.771 211.969 232.771C211.462 232.771 210.944 232.705 210.417 232.573C209.889 232.448 209.396 232.26 208.938 232.01C208.479 231.76 208.094 231.451 207.781 231.083L209.25 229.021C209.535 229.34 209.892 229.611 210.323 229.833C210.753 230.062 211.26 230.177 211.844 230.177C212.351 230.177 212.774 230.087 213.115 229.906C213.462 229.726 213.726 229.462 213.906 229.115C214.087 228.774 214.177 228.361 214.177 227.875V219.729L214.51 217.062ZM207.021 222.833V222.615C207.021 221.76 207.125 220.983 207.333 220.281C207.549 219.573 207.854 218.965 208.25 218.458C208.653 217.944 209.139 217.549 209.708 217.271C210.278 216.993 210.92 216.854 211.635 216.854C212.406 216.854 213.038 217.003 213.531 217.302C214.031 217.594 214.431 218.003 214.729 218.531C215.035 219.059 215.271 219.677 215.438 220.385C215.611 221.087 215.757 221.844 215.875 222.656V222.917C215.757 223.681 215.594 224.403 215.385 225.083C215.184 225.757 214.92 226.354 214.594 226.875C214.267 227.396 213.858 227.806 213.365 228.104C212.878 228.396 212.295 228.542 211.615 228.542C210.906 228.542 210.267 228.399 209.698 228.115C209.135 227.83 208.653 227.431 208.25 226.917C207.854 226.403 207.549 225.799 207.333 225.104C207.125 224.41 207.021 223.653 207.021 222.833ZM210.531 222.615V222.833C210.531 223.257 210.569 223.649 210.646 224.01C210.729 224.372 210.854 224.691 211.021 224.969C211.188 225.24 211.392 225.451 211.635 225.604C211.885 225.757 212.177 225.833 212.51 225.833C213.017 225.833 213.427 225.726 213.74 225.51C214.052 225.295 214.278 224.99 214.417 224.594C214.556 224.198 214.615 223.733 214.594 223.198V222.375C214.608 221.917 214.576 221.514 214.5 221.167C214.424 220.812 214.302 220.517 214.135 220.281C213.976 220.045 213.76 219.868 213.49 219.75C213.226 219.625 212.906 219.562 212.531 219.562C212.205 219.562 211.917 219.639 211.667 219.792C211.417 219.944 211.208 220.16 211.042 220.437C210.875 220.708 210.747 221.031 210.656 221.406C210.573 221.774 210.531 222.177 210.531 222.615ZM219.281 222.812V222.594C219.281 221.767 219.399 221.007 219.635 220.312C219.872 219.611 220.219 219.003 220.677 218.49C221.135 217.976 221.701 217.576 222.375 217.292C223.049 217 223.826 216.854 224.708 216.854C225.597 216.854 226.378 217 227.052 217.292C227.733 217.576 228.302 217.976 228.76 218.49C229.219 219.003 229.566 219.611 229.802 220.312C230.038 221.007 230.156 221.767 230.156 222.594V222.812C230.156 223.632 230.038 224.392 229.802 225.094C229.566 225.788 229.219 226.396 228.76 226.917C228.302 227.431 227.736 227.83 227.063 228.115C226.389 228.399 225.611 228.542 224.729 228.542C223.847 228.542 223.066 228.399 222.385 228.115C221.705 227.83 221.135 227.431 220.677 226.917C220.219 226.396 219.872 225.788 219.635 225.094C219.399 224.392 219.281 223.632 219.281 222.812ZM222.792 222.594V222.812C222.792 223.236 222.823 223.632 222.885 224C222.948 224.368 223.052 224.691 223.198 224.969C223.344 225.24 223.542 225.451 223.792 225.604C224.042 225.757 224.354 225.833 224.729 225.833C225.097 225.833 225.403 225.757 225.646 225.604C225.896 225.451 226.094 225.24 226.24 224.969C226.385 224.691 226.49 224.368 226.552 224C226.615 223.632 226.646 223.236 226.646 222.812V222.594C226.646 222.184 226.615 221.799 226.552 221.437C226.49 221.069 226.385 220.747 226.24 220.469C226.094 220.184 225.896 219.962 225.646 219.802C225.396 219.642 225.083 219.562 224.708 219.562C224.34 219.562 224.031 219.642 223.781 219.802C223.538 219.962 223.344 220.184 223.198 220.469C223.052 220.747 222.948 221.069 222.885 221.437C222.823 221.799 222.792 222.184 222.792 222.594ZM236.813 228.333H233.448L233.469 225.521H236.813C237.507 225.521 238.094 225.354 238.573 225.021C239.059 224.687 239.427 224.191 239.677 223.531C239.934 222.865 240.063 222.045 240.063 221.073V220.417C240.063 219.687 239.99 219.049 239.844 218.5C239.705 217.944 239.497 217.483 239.219 217.115C238.941 216.74 238.594 216.458 238.177 216.271C237.767 216.083 237.295 215.99 236.76 215.99H233.385V213.167H236.76C237.788 213.167 238.729 213.344 239.583 213.698C240.444 214.045 241.188 214.545 241.813 215.198C242.444 215.844 242.931 216.611 243.271 217.5C243.618 218.382 243.792 219.361 243.792 220.437V221.073C243.792 222.142 243.618 223.122 243.271 224.01C242.931 224.899 242.448 225.667 241.823 226.312C241.198 226.958 240.458 227.458 239.604 227.812C238.757 228.16 237.826 228.333 236.813 228.333ZM235.542 213.167V228.333H231.885V213.167H235.542ZM251.885 221.885H247.979L247.958 219.49H251.125C251.694 219.49 252.149 219.427 252.49 219.302C252.83 219.17 253.076 218.979 253.229 218.729C253.389 218.479 253.469 218.167 253.469 217.792C253.469 217.361 253.389 217.014 253.229 216.75C253.069 216.486 252.816 216.295 252.469 216.177C252.128 216.052 251.688 215.99 251.146 215.99H249.354V228.333H245.698V213.167H251.146C252.083 213.167 252.92 213.253 253.656 213.427C254.392 213.594 255.017 213.851 255.531 214.198C256.052 214.545 256.448 214.983 256.719 215.51C256.99 216.031 257.125 216.646 257.125 217.354C257.125 217.972 256.993 218.552 256.729 219.094C256.465 219.635 256.024 220.076 255.406 220.417C254.795 220.75 253.958 220.924 252.896 220.937L251.885 221.885ZM251.74 228.333H247.094L248.344 225.521H251.74C252.24 225.521 252.639 225.444 252.938 225.292C253.243 225.132 253.462 224.924 253.594 224.667C253.733 224.403 253.802 224.111 253.802 223.792C253.802 223.403 253.736 223.066 253.604 222.781C253.479 222.497 253.278 222.278 253 222.125C252.722 221.965 252.351 221.885 251.885 221.885H248.813L248.833 219.49H252.51L253.365 220.448C254.378 220.406 255.181 220.549 255.771 220.875C256.368 221.201 256.795 221.632 257.052 222.167C257.309 222.701 257.438 223.26 257.438 223.844C257.438 224.837 257.222 225.667 256.792 226.333C256.368 227 255.733 227.5 254.885 227.833C254.038 228.167 252.99 228.333 251.74 228.333Z" fill="white"/>
<path d="M339 201C339 198.423 341.089 196.333 343.667 196.333H542.333C544.911 196.333 547 198.423 547 201V241C547 243.577 544.911 245.667 542.333 245.667H343.667C341.089 245.667 339 243.577 339 241V201Z" fill="#888888" stroke="#888888" stroke-width="4"/>
<path d="M403.75 225.521V228.333H395.667V225.521H403.75ZM396.969 213.167V228.333H393.313V213.167H396.969ZM402.708 219.187V221.906H395.667V219.187H402.708ZM403.781 213.167V215.99H395.667V213.167H403.781ZM408.063 217.062L409.646 220.167L411.281 217.062H414.927L411.969 222.552L415.083 228.333H411.406L409.646 225L407.896 228.333H404.219L407.333 222.552L404.385 217.062H408.063ZM419.625 219.229V232.667H416.115V217.062H419.385L419.625 219.229ZM426.542 222.562V222.781C426.542 223.601 426.448 224.361 426.26 225.062C426.073 225.764 425.795 226.375 425.427 226.896C425.059 227.417 424.601 227.823 424.052 228.115C423.51 228.399 422.882 228.542 422.167 228.542C421.493 228.542 420.913 228.392 420.427 228.094C419.941 227.795 419.535 227.382 419.208 226.854C418.882 226.326 418.618 225.722 418.417 225.042C418.215 224.361 418.056 223.642 417.938 222.885V222.604C418.056 221.792 418.215 221.038 418.417 220.344C418.618 219.642 418.882 219.031 419.208 218.51C419.535 217.99 419.938 217.583 420.417 217.292C420.903 217 421.483 216.854 422.156 216.854C422.872 216.854 423.5 216.99 424.042 217.26C424.59 217.531 425.049 217.92 425.417 218.427C425.792 218.927 426.073 219.528 426.26 220.229C426.448 220.931 426.542 221.708 426.542 222.562ZM423.031 222.781V222.562C423.031 222.125 423 221.726 422.938 221.365C422.875 220.997 422.774 220.677 422.635 220.406C422.503 220.135 422.326 219.927 422.104 219.781C421.882 219.635 421.608 219.562 421.281 219.562C420.906 219.562 420.59 219.622 420.333 219.74C420.083 219.851 419.882 220.024 419.729 220.26C419.583 220.49 419.479 220.778 419.417 221.125C419.361 221.465 419.337 221.865 419.344 222.323V223.177C419.33 223.705 419.382 224.17 419.5 224.573C419.618 224.969 419.823 225.278 420.115 225.5C420.406 225.722 420.802 225.833 421.302 225.833C421.635 225.833 421.913 225.757 422.135 225.604C422.358 225.444 422.535 225.226 422.667 224.948C422.799 224.663 422.892 224.337 422.948 223.969C423.003 223.601 423.031 223.205 423.031 222.781ZM431.646 219.854V228.333H428.135V217.062H431.417L431.646 219.854ZM434.979 216.979L434.917 220.24C434.778 220.226 434.59 220.208 434.354 220.187C434.118 220.167 433.92 220.156 433.76 220.156C433.351 220.156 432.997 220.205 432.698 220.302C432.406 220.392 432.163 220.531 431.969 220.719C431.781 220.899 431.642 221.128 431.552 221.406C431.469 221.684 431.431 222.007 431.438 222.375L430.802 221.958C430.802 221.201 430.875 220.514 431.021 219.896C431.174 219.271 431.389 218.733 431.667 218.281C431.944 217.823 432.281 217.472 432.677 217.229C433.073 216.979 433.517 216.854 434.01 216.854C434.184 216.854 434.354 216.865 434.521 216.885C434.694 216.906 434.847 216.937 434.979 216.979ZM441.438 228.542C440.521 228.542 439.701 228.399 438.979 228.115C438.257 227.823 437.646 227.424 437.146 226.917C436.653 226.41 436.274 225.826 436.01 225.167C435.753 224.507 435.625 223.809 435.625 223.073V222.677C435.625 221.851 435.74 221.087 435.969 220.385C436.198 219.677 436.538 219.059 436.99 218.531C437.441 218.003 438.007 217.594 438.688 217.302C439.368 217.003 440.16 216.854 441.063 216.854C441.861 216.854 442.576 216.983 443.208 217.24C443.84 217.497 444.375 217.865 444.813 218.344C445.257 218.823 445.594 219.403 445.823 220.083C446.059 220.764 446.177 221.528 446.177 222.375V223.802H436.969V221.604H442.75V221.333C442.757 220.958 442.691 220.639 442.552 220.375C442.42 220.111 442.226 219.91 441.969 219.771C441.712 219.632 441.399 219.562 441.031 219.562C440.649 219.562 440.333 219.646 440.083 219.812C439.84 219.979 439.649 220.208 439.51 220.5C439.378 220.785 439.285 221.115 439.229 221.49C439.174 221.865 439.146 222.26 439.146 222.677V223.073C439.146 223.49 439.201 223.868 439.313 224.208C439.431 224.549 439.597 224.84 439.813 225.083C440.035 225.319 440.299 225.503 440.604 225.635C440.917 225.767 441.271 225.833 441.667 225.833C442.146 225.833 442.618 225.743 443.083 225.562C443.549 225.382 443.948 225.083 444.281 224.667L445.875 226.562C445.646 226.889 445.319 227.205 444.896 227.51C444.479 227.816 443.979 228.066 443.396 228.26C442.813 228.448 442.16 228.542 441.438 228.542ZM453.51 225.167C453.51 224.972 453.444 224.806 453.313 224.667C453.188 224.521 452.965 224.389 452.646 224.271C452.326 224.146 451.878 224.021 451.302 223.896C450.753 223.778 450.236 223.622 449.75 223.427C449.271 223.233 448.851 222.997 448.49 222.719C448.128 222.441 447.844 222.111 447.635 221.729C447.434 221.347 447.333 220.91 447.333 220.417C447.333 219.937 447.434 219.486 447.635 219.062C447.844 218.632 448.146 218.253 448.542 217.927C448.944 217.594 449.434 217.333 450.01 217.146C450.587 216.951 451.243 216.854 451.979 216.854C452.993 216.854 453.868 217.01 454.604 217.323C455.34 217.628 455.906 218.059 456.302 218.615C456.705 219.163 456.906 219.799 456.906 220.521H453.396C453.396 220.236 453.347 219.993 453.25 219.792C453.16 219.59 453.01 219.437 452.802 219.333C452.594 219.222 452.316 219.167 451.969 219.167C451.726 219.167 451.503 219.212 451.302 219.302C451.108 219.392 450.951 219.517 450.833 219.677C450.715 219.837 450.656 220.024 450.656 220.24C450.656 220.392 450.691 220.531 450.76 220.656C450.837 220.774 450.951 220.885 451.104 220.99C451.257 221.087 451.451 221.177 451.688 221.26C451.924 221.337 452.208 221.406 452.542 221.469C453.299 221.608 454.007 221.806 454.667 222.062C455.326 222.319 455.861 222.684 456.271 223.156C456.688 223.628 456.896 224.264 456.896 225.062C456.896 225.562 456.781 226.024 456.552 226.448C456.323 226.865 455.993 227.233 455.563 227.552C455.132 227.865 454.615 228.108 454.01 228.281C453.406 228.455 452.726 228.542 451.969 228.542C450.892 228.542 449.983 228.351 449.24 227.969C448.497 227.58 447.934 227.094 447.552 226.51C447.177 225.92 446.99 225.323 446.99 224.719H450.26C450.274 225.066 450.358 225.351 450.51 225.573C450.67 225.795 450.882 225.958 451.146 226.062C451.41 226.167 451.715 226.219 452.063 226.219C452.382 226.219 452.646 226.174 452.854 226.083C453.069 225.993 453.233 225.872 453.344 225.719C453.455 225.559 453.51 225.375 453.51 225.167ZM464.448 225.167C464.448 224.972 464.382 224.806 464.25 224.667C464.125 224.521 463.903 224.389 463.583 224.271C463.264 224.146 462.816 224.021 462.24 223.896C461.691 223.778 461.174 223.622 460.688 223.427C460.208 223.233 459.788 222.997 459.427 222.719C459.066 222.441 458.781 222.111 458.573 221.729C458.372 221.347 458.271 220.91 458.271 220.417C458.271 219.937 458.372 219.486 458.573 219.062C458.781 218.632 459.083 218.253 459.479 217.927C459.882 217.594 460.372 217.333 460.948 217.146C461.524 216.951 462.181 216.854 462.917 216.854C463.931 216.854 464.806 217.01 465.542 217.323C466.278 217.628 466.844 218.059 467.24 218.615C467.642 219.163 467.844 219.799 467.844 220.521H464.333C464.333 220.236 464.285 219.993 464.188 219.792C464.097 219.59 463.948 219.437 463.74 219.333C463.531 219.222 463.253 219.167 462.906 219.167C462.663 219.167 462.441 219.212 462.24 219.302C462.045 219.392 461.889 219.517 461.771 219.677C461.653 219.837 461.594 220.024 461.594 220.24C461.594 220.392 461.628 220.531 461.698 220.656C461.774 220.774 461.889 220.885 462.042 220.99C462.194 221.087 462.389 221.177 462.625 221.26C462.861 221.337 463.146 221.406 463.479 221.469C464.236 221.608 464.944 221.806 465.604 222.062C466.264 222.319 466.799 222.684 467.208 223.156C467.625 223.628 467.833 224.264 467.833 225.062C467.833 225.562 467.719 226.024 467.49 226.448C467.26 226.865 466.931 227.233 466.5 227.552C466.069 227.865 465.552 228.108 464.948 228.281C464.344 228.455 463.663 228.542 462.906 228.542C461.83 228.542 460.92 228.351 460.177 227.969C459.434 227.58 458.872 227.094 458.49 226.51C458.115 225.92 457.927 225.323 457.927 224.719H461.198C461.212 225.066 461.295 225.351 461.448 225.573C461.608 225.795 461.819 225.958 462.083 226.062C462.347 226.167 462.653 226.219 463 226.219C463.319 226.219 463.583 226.174 463.792 226.083C464.007 225.993 464.17 225.872 464.281 225.719C464.392 225.559 464.448 225.375 464.448 225.167ZM475.677 223.573V213.167H479.323V223.573C479.323 224.587 479.09 225.465 478.625 226.208C478.167 226.951 477.542 227.528 476.75 227.937C475.965 228.34 475.083 228.542 474.104 228.542C473.09 228.542 472.188 228.372 471.396 228.031C470.611 227.691 469.993 227.167 469.542 226.458C469.097 225.75 468.875 224.847 468.875 223.75H472.542C472.542 224.264 472.601 224.667 472.719 224.958C472.837 225.243 473.01 225.444 473.24 225.562C473.476 225.674 473.764 225.729 474.104 225.729C474.438 225.729 474.719 225.646 474.948 225.479C475.184 225.306 475.365 225.059 475.49 224.74C475.615 224.413 475.677 224.024 475.677 223.573ZM489.458 224.302C489.458 224.066 489.424 223.854 489.354 223.667C489.285 223.472 489.156 223.292 488.969 223.125C488.781 222.958 488.51 222.792 488.156 222.625C487.809 222.451 487.351 222.271 486.781 222.083C486.115 221.861 485.472 221.611 484.854 221.333C484.236 221.049 483.684 220.719 483.198 220.344C482.712 219.962 482.326 219.517 482.042 219.01C481.757 218.497 481.615 217.899 481.615 217.219C481.615 216.566 481.76 215.979 482.052 215.458C482.344 214.931 482.75 214.483 483.271 214.115C483.799 213.74 484.417 213.455 485.125 213.26C485.833 213.059 486.608 212.958 487.448 212.958C488.559 212.958 489.538 213.153 490.385 213.542C491.24 213.924 491.906 214.469 492.385 215.177C492.872 215.878 493.115 216.708 493.115 217.667H489.479C489.479 217.285 489.399 216.948 489.24 216.656C489.087 216.365 488.854 216.135 488.542 215.969C488.229 215.802 487.837 215.719 487.365 215.719C486.906 215.719 486.521 215.788 486.208 215.927C485.896 216.066 485.66 216.253 485.5 216.49C485.34 216.719 485.26 216.972 485.26 217.25C485.26 217.479 485.323 217.687 485.448 217.875C485.58 218.056 485.764 218.226 486 218.385C486.243 218.545 486.535 218.698 486.875 218.844C487.222 218.99 487.611 219.132 488.042 219.271C488.847 219.528 489.563 219.816 490.188 220.135C490.819 220.448 491.351 220.806 491.781 221.208C492.219 221.604 492.549 222.056 492.771 222.562C493 223.069 493.115 223.642 493.115 224.281C493.115 224.962 492.983 225.566 492.719 226.094C492.455 226.622 492.076 227.069 491.583 227.437C491.09 227.799 490.5 228.073 489.813 228.26C489.125 228.448 488.358 228.542 487.51 228.542C486.733 228.542 485.965 228.444 485.208 228.25C484.458 228.049 483.778 227.743 483.167 227.333C482.556 226.917 482.066 226.385 481.698 225.74C481.337 225.087 481.156 224.312 481.156 223.417H484.823C484.823 223.861 484.882 224.236 485 224.542C485.118 224.847 485.292 225.094 485.521 225.281C485.75 225.462 486.031 225.594 486.365 225.677C486.698 225.753 487.08 225.792 487.51 225.792C487.976 225.792 488.351 225.726 488.635 225.594C488.92 225.455 489.128 225.274 489.26 225.052C489.392 224.823 489.458 224.573 489.458 224.302Z" fill="white"/>
<rect x="571" y="196.333" width="208" height="49.3333" rx="4.66667" fill="#888888" stroke="#888888" stroke-width="4"/>
<path d="M648.5 213.167H654.469C655.635 213.167 656.649 213.34 657.51 213.687C658.372 214.035 659.035 214.549 659.5 215.229C659.972 215.91 660.208 216.75 660.208 217.75C660.208 218.618 660.073 219.344 659.802 219.927C659.531 220.51 659.153 220.993 658.667 221.375C658.188 221.75 657.628 222.059 656.99 222.302L655.792 222.979H650.781L650.76 220.156H654.469C654.934 220.156 655.319 220.073 655.625 219.906C655.931 219.74 656.16 219.503 656.313 219.198C656.472 218.885 656.552 218.514 656.552 218.083C656.552 217.646 656.472 217.271 656.313 216.958C656.153 216.646 655.917 216.406 655.604 216.24C655.299 216.073 654.92 215.99 654.469 215.99H652.156V228.333H648.5V213.167ZM656.802 228.333L653.448 221.625L657.323 221.604L660.719 228.177V228.333H656.802ZM667.708 228.542C666.792 228.542 665.972 228.399 665.25 228.115C664.528 227.823 663.917 227.424 663.417 226.917C662.924 226.41 662.545 225.826 662.281 225.167C662.024 224.507 661.896 223.809 661.896 223.073V222.677C661.896 221.851 662.01 221.087 662.24 220.385C662.469 219.677 662.809 219.059 663.26 218.531C663.712 218.003 664.278 217.594 664.958 217.302C665.639 217.003 666.431 216.854 667.333 216.854C668.132 216.854 668.847 216.983 669.479 217.24C670.111 217.497 670.646 217.865 671.083 218.344C671.528 218.823 671.865 219.403 672.094 220.083C672.33 220.764 672.448 221.528 672.448 222.375V223.802H663.24V221.604H669.021V221.333C669.028 220.958 668.962 220.639 668.823 220.375C668.691 220.111 668.497 219.91 668.24 219.771C667.983 219.632 667.67 219.562 667.302 219.562C666.92 219.562 666.604 219.646 666.354 219.812C666.111 219.979 665.92 220.208 665.781 220.5C665.649 220.785 665.556 221.115 665.5 221.49C665.444 221.865 665.417 222.26 665.417 222.677V223.073C665.417 223.49 665.472 223.868 665.583 224.208C665.701 224.549 665.868 224.84 666.083 225.083C666.306 225.319 666.569 225.503 666.875 225.635C667.187 225.767 667.542 225.833 667.937 225.833C668.417 225.833 668.889 225.743 669.354 225.562C669.819 225.382 670.219 225.083 670.552 224.667L672.146 226.562C671.917 226.889 671.59 227.205 671.167 227.51C670.75 227.816 670.25 228.066 669.667 228.26C669.083 228.448 668.431 228.542 667.708 228.542ZM679.729 225.5V220.854C679.729 220.535 679.684 220.26 679.594 220.031C679.503 219.802 679.361 219.625 679.167 219.5C678.972 219.368 678.712 219.302 678.385 219.302C678.122 219.302 677.896 219.347 677.708 219.437C677.521 219.528 677.378 219.663 677.281 219.844C677.184 220.024 677.135 220.253 677.135 220.531H673.625C673.625 220.01 673.74 219.528 673.969 219.083C674.205 218.632 674.538 218.24 674.969 217.906C675.406 217.573 675.927 217.316 676.531 217.135C677.142 216.948 677.823 216.854 678.573 216.854C679.469 216.854 680.267 217.003 680.969 217.302C681.677 217.601 682.236 218.049 682.646 218.646C683.056 219.236 683.26 219.979 683.26 220.875V225.49C683.26 226.226 683.302 226.785 683.385 227.167C683.469 227.542 683.587 227.872 683.74 228.156V228.333H680.219C680.052 227.986 679.927 227.562 679.844 227.062C679.767 226.556 679.729 226.035 679.729 225.5ZM680.156 221.448L680.177 223.323H678.625C678.299 223.323 678.021 223.368 677.792 223.458C677.569 223.549 677.389 223.674 677.25 223.833C677.118 223.986 677.021 224.16 676.958 224.354C676.903 224.549 676.875 224.753 676.875 224.969C676.875 225.177 676.924 225.365 677.021 225.531C677.125 225.691 677.264 225.816 677.438 225.906C677.611 225.997 677.806 226.042 678.021 226.042C678.41 226.042 678.74 225.969 679.01 225.823C679.288 225.67 679.5 225.486 679.646 225.271C679.792 225.056 679.865 224.854 679.865 224.667L680.635 226.104C680.497 226.382 680.337 226.663 680.156 226.948C679.983 227.233 679.764 227.497 679.5 227.74C679.243 227.976 678.927 228.17 678.552 228.323C678.177 228.469 677.722 228.542 677.188 228.542C676.493 228.542 675.854 228.399 675.271 228.115C674.694 227.83 674.233 227.434 673.885 226.927C673.538 226.413 673.365 225.823 673.365 225.156C673.365 224.573 673.469 224.052 673.677 223.594C673.892 223.135 674.215 222.747 674.646 222.427C675.076 222.108 675.625 221.865 676.292 221.698C676.958 221.531 677.743 221.448 678.646 221.448H680.156ZM689.969 225.833C690.295 225.833 690.573 225.774 690.802 225.656C691.038 225.531 691.215 225.358 691.333 225.135C691.458 224.906 691.517 224.632 691.51 224.312H694.813C694.819 225.16 694.611 225.903 694.188 226.542C693.771 227.174 693.201 227.667 692.479 228.021C691.764 228.368 690.955 228.542 690.052 228.542C689.17 228.542 688.399 228.399 687.74 228.115C687.08 227.823 686.528 227.42 686.083 226.906C685.646 226.385 685.316 225.778 685.094 225.083C684.878 224.389 684.771 223.635 684.771 222.823V222.583C684.771 221.771 684.878 221.017 685.094 220.323C685.316 219.622 685.646 219.014 686.083 218.5C686.528 217.979 687.076 217.576 687.729 217.292C688.389 217 689.156 216.854 690.031 216.854C690.969 216.854 691.795 217.031 692.51 217.385C693.233 217.74 693.799 218.253 694.208 218.927C694.618 219.601 694.819 220.417 694.813 221.375H691.51C691.517 221.035 691.465 220.729 691.354 220.458C691.243 220.187 691.069 219.972 690.833 219.812C690.604 219.646 690.309 219.562 689.948 219.562C689.587 219.562 689.295 219.642 689.073 219.802C688.851 219.962 688.681 220.184 688.563 220.469C688.451 220.747 688.375 221.066 688.333 221.427C688.299 221.788 688.281 222.174 688.281 222.583V222.823C688.281 223.24 688.299 223.632 688.333 224C688.375 224.361 688.455 224.681 688.573 224.958C688.691 225.229 688.861 225.444 689.083 225.604C689.306 225.757 689.601 225.833 689.969 225.833ZM702.25 217.062V219.5H695.458V217.062H702.25ZM696.885 214.26H700.396V224.656C700.396 224.955 700.431 225.187 700.5 225.354C700.569 225.514 700.688 225.628 700.854 225.698C701.028 225.76 701.257 225.792 701.542 225.792C701.743 225.792 701.91 225.788 702.042 225.781C702.174 225.767 702.299 225.75 702.417 225.729V228.24C702.118 228.337 701.806 228.41 701.479 228.458C701.153 228.514 700.806 228.542 700.438 228.542C699.688 228.542 699.045 228.424 698.51 228.187C697.983 227.951 697.58 227.58 697.302 227.073C697.024 226.566 696.885 225.906 696.885 225.094V214.26Z" fill="white"/>
<rect x="803" y="196.333" width="208" height="49.3333" rx="4.66667" fill="#888888" stroke="#888888" stroke-width="4"/>
<path d="M882.844 213.167V228.333H879.198L873.833 218.896V228.333H870.177V213.167H873.833L879.198 222.604V213.167H882.844ZM884.552 222.812V222.594C884.552 221.767 884.67 221.007 884.906 220.312C885.142 219.611 885.49 219.003 885.948 218.49C886.406 217.976 886.972 217.576 887.646 217.292C888.319 217 889.097 216.854 889.979 216.854C890.868 216.854 891.649 217 892.323 217.292C893.003 217.576 893.573 217.976 894.031 218.49C894.49 219.003 894.837 219.611 895.073 220.312C895.309 221.007 895.427 221.767 895.427 222.594V222.812C895.427 223.632 895.309 224.392 895.073 225.094C894.837 225.788 894.49 226.396 894.031 226.917C893.573 227.431 893.007 227.83 892.333 228.115C891.66 228.399 890.882 228.542 890 228.542C889.118 228.542 888.337 228.399 887.656 228.115C886.976 227.83 886.406 227.431 885.948 226.917C885.49 226.396 885.142 225.788 884.906 225.094C884.67 224.392 884.552 223.632 884.552 222.812ZM888.062 222.594V222.812C888.062 223.236 888.094 223.632 888.156 224C888.219 224.368 888.323 224.691 888.469 224.969C888.615 225.24 888.812 225.451 889.062 225.604C889.312 225.757 889.625 225.833 890 225.833C890.368 225.833 890.674 225.757 890.917 225.604C891.167 225.451 891.365 225.24 891.51 224.969C891.656 224.691 891.76 224.368 891.823 224C891.885 223.632 891.917 223.236 891.917 222.812V222.594C891.917 222.184 891.885 221.799 891.823 221.437C891.76 221.069 891.656 220.747 891.51 220.469C891.365 220.184 891.167 219.962 890.917 219.802C890.667 219.642 890.354 219.562 889.979 219.562C889.611 219.562 889.302 219.642 889.052 219.802C888.809 219.962 888.615 220.184 888.469 220.469C888.323 220.747 888.219 221.069 888.156 221.437C888.094 221.799 888.062 222.184 888.062 222.594ZM903.469 225.75V212.333H907V228.333H903.833L903.469 225.75ZM896.552 222.833V222.615C896.552 221.76 896.646 220.983 896.833 220.281C897.021 219.573 897.299 218.965 897.667 218.458C898.035 217.944 898.493 217.549 899.042 217.271C899.59 216.993 900.222 216.854 900.938 216.854C901.576 216.854 902.135 217.003 902.615 217.302C903.094 217.594 903.503 218.003 903.844 218.531C904.184 219.059 904.462 219.677 904.677 220.385C904.892 221.087 905.056 221.844 905.167 222.656V222.917C905.056 223.681 904.892 224.403 904.677 225.083C904.462 225.757 904.184 226.354 903.844 226.875C903.503 227.396 903.09 227.806 902.604 228.104C902.125 228.396 901.563 228.542 900.917 228.542C900.201 228.542 899.569 228.399 899.021 228.115C898.479 227.83 898.024 227.431 897.656 226.917C897.295 226.403 897.021 225.799 896.833 225.104C896.646 224.41 896.552 223.653 896.552 222.833ZM900.063 222.615V222.833C900.063 223.257 900.09 223.649 900.146 224.01C900.201 224.372 900.295 224.691 900.427 224.969C900.566 225.24 900.747 225.451 900.969 225.604C901.198 225.757 901.479 225.833 901.813 225.833C902.264 225.833 902.635 225.726 902.927 225.51C903.226 225.295 903.444 224.99 903.583 224.594C903.729 224.198 903.792 223.733 903.771 223.198V222.375C903.785 221.917 903.753 221.514 903.677 221.167C903.601 220.812 903.479 220.517 903.313 220.281C903.153 220.045 902.948 219.868 902.698 219.75C902.455 219.625 902.167 219.562 901.833 219.562C901.507 219.562 901.229 219.639 901 219.792C900.778 219.944 900.597 220.16 900.458 220.437C900.319 220.708 900.219 221.031 900.156 221.406C900.094 221.774 900.063 222.177 900.063 222.615ZM914.448 228.542C913.531 228.542 912.712 228.399 911.99 228.115C911.267 227.823 910.656 227.424 910.156 226.917C909.663 226.41 909.285 225.826 909.021 225.167C908.764 224.507 908.635 223.809 908.635 223.073V222.677C908.635 221.851 908.75 221.087 908.979 220.385C909.208 219.677 909.549 219.059 910 218.531C910.451 218.003 911.017 217.594 911.698 217.302C912.378 217.003 913.17 216.854 914.073 216.854C914.872 216.854 915.587 216.983 916.219 217.24C916.851 217.497 917.385 217.865 917.823 218.344C918.267 218.823 918.604 219.403 918.833 220.083C919.069 220.764 919.188 221.528 919.188 222.375V223.802H909.979V221.604H915.76V221.333C915.767 220.958 915.701 220.639 915.563 220.375C915.431 220.111 915.236 219.91 914.979 219.771C914.722 219.632 914.41 219.562 914.042 219.562C913.66 219.562 913.344 219.646 913.094 219.812C912.851 219.979 912.66 220.208 912.521 220.5C912.389 220.785 912.295 221.115 912.24 221.49C912.184 221.865 912.156 222.26 912.156 222.677V223.073C912.156 223.49 912.212 223.868 912.323 224.208C912.441 224.549 912.608 224.84 912.823 225.083C913.045 225.319 913.309 225.503 913.615 225.635C913.927 225.767 914.281 225.833 914.677 225.833C915.156 225.833 915.628 225.743 916.094 225.562C916.559 225.382 916.958 225.083 917.292 224.667L918.885 226.562C918.656 226.889 918.33 227.205 917.906 227.51C917.49 227.816 916.99 228.066 916.406 228.26C915.823 228.448 915.17 228.542 914.448 228.542ZM926.813 223.573V213.167H930.458V223.573C930.458 224.587 930.226 225.465 929.76 226.208C929.302 226.951 928.677 227.528 927.885 227.937C927.101 228.34 926.219 228.542 925.24 228.542C924.226 228.542 923.323 228.372 922.531 228.031C921.747 227.691 921.128 227.167 920.677 226.458C920.233 225.75 920.01 224.847 920.01 223.75H923.677C923.677 224.264 923.736 224.667 923.854 224.958C923.972 225.243 924.146 225.444 924.375 225.562C924.611 225.674 924.899 225.729 925.24 225.729C925.573 225.729 925.854 225.646 926.083 225.479C926.319 225.306 926.5 225.059 926.625 224.74C926.75 224.413 926.813 224.024 926.813 223.573ZM940.594 224.302C940.594 224.066 940.559 223.854 940.49 223.667C940.42 223.472 940.292 223.292 940.104 223.125C939.917 222.958 939.646 222.792 939.292 222.625C938.944 222.451 938.486 222.271 937.917 222.083C937.25 221.861 936.608 221.611 935.99 221.333C935.372 221.049 934.819 220.719 934.333 220.344C933.847 219.962 933.462 219.517 933.177 219.01C932.892 218.497 932.75 217.899 932.75 217.219C932.75 216.566 932.896 215.979 933.188 215.458C933.479 214.931 933.885 214.483 934.406 214.115C934.934 213.74 935.552 213.455 936.26 213.26C936.969 213.059 937.743 212.958 938.583 212.958C939.694 212.958 940.674 213.153 941.521 213.542C942.375 213.924 943.042 214.469 943.521 215.177C944.007 215.878 944.25 216.708 944.25 217.667H940.615C940.615 217.285 940.535 216.948 940.375 216.656C940.222 216.365 939.99 216.135 939.677 215.969C939.365 215.802 938.972 215.719 938.5 215.719C938.042 215.719 937.656 215.788 937.344 215.927C937.031 216.066 936.795 216.253 936.635 216.49C936.476 216.719 936.396 216.972 936.396 217.25C936.396 217.479 936.458 217.687 936.583 217.875C936.715 218.056 936.899 218.226 937.135 218.385C937.378 218.545 937.67 218.698 938.01 218.844C938.358 218.99 938.747 219.132 939.177 219.271C939.983 219.528 940.698 219.816 941.323 220.135C941.955 220.448 942.486 220.806 942.917 221.208C943.354 221.604 943.684 222.056 943.906 222.562C944.135 223.069 944.25 223.642 944.25 224.281C944.25 224.962 944.118 225.566 943.854 226.094C943.59 226.622 943.212 227.069 942.719 227.437C942.226 227.799 941.635 228.073 940.948 228.26C940.26 228.448 939.493 228.542 938.646 228.542C937.868 228.542 937.101 228.444 936.344 228.25C935.594 228.049 934.913 227.743 934.302 227.333C933.691 226.917 933.201 226.385 932.833 225.74C932.472 225.087 932.292 224.312 932.292 223.417H935.958C935.958 223.861 936.017 224.236 936.135 224.542C936.253 224.847 936.427 225.094 936.656 225.281C936.885 225.462 937.167 225.594 937.5 225.677C937.833 225.753 938.215 225.792 938.646 225.792C939.111 225.792 939.486 225.726 939.771 225.594C940.056 225.455 940.264 225.274 940.396 225.052C940.528 224.823 940.594 224.573 940.594 224.302Z" fill="white"/>
<rect x="1035" y="196.333" width="208" height="49.3333" rx="4.66667" fill="#888888" stroke="#888888" stroke-width="4"/>
<path d="M1117.68 213.167V228.333H1114.03L1108.67 218.896V228.333H1105.01V213.167H1108.67L1114.03 222.604V213.167H1117.68ZM1125.28 228.542C1124.36 228.542 1123.55 228.399 1122.82 228.115C1122.1 227.823 1121.49 227.424 1120.99 226.917C1120.5 226.41 1120.12 225.826 1119.85 225.167C1119.6 224.507 1119.47 223.809 1119.47 223.073V222.677C1119.47 221.851 1119.58 221.087 1119.81 220.385C1120.04 219.677 1120.38 219.059 1120.83 218.531C1121.28 218.003 1121.85 217.594 1122.53 217.302C1123.21 217.003 1124 216.854 1124.91 216.854C1125.7 216.854 1126.42 216.983 1127.05 217.24C1127.68 217.497 1128.22 217.865 1128.66 218.344C1129.1 218.823 1129.44 219.403 1129.67 220.083C1129.9 220.764 1130.02 221.528 1130.02 222.375V223.802H1120.81V221.604H1126.59V221.333C1126.6 220.958 1126.53 220.639 1126.4 220.375C1126.26 220.111 1126.07 219.91 1125.81 219.771C1125.56 219.632 1125.24 219.562 1124.88 219.562C1124.49 219.562 1124.18 219.646 1123.93 219.812C1123.68 219.979 1123.49 220.208 1123.35 220.5C1123.22 220.785 1123.13 221.115 1123.07 221.49C1123.02 221.865 1122.99 222.26 1122.99 222.677V223.073C1122.99 223.49 1123.05 223.868 1123.16 224.208C1123.27 224.549 1123.44 224.84 1123.66 225.083C1123.88 225.319 1124.14 225.503 1124.45 225.635C1124.76 225.767 1125.11 225.833 1125.51 225.833C1125.99 225.833 1126.46 225.743 1126.93 225.562C1127.39 225.382 1127.79 225.083 1128.13 224.667L1129.72 226.562C1129.49 226.889 1129.16 227.205 1128.74 227.51C1128.32 227.816 1127.82 228.066 1127.24 228.26C1126.66 228.448 1126 228.542 1125.28 228.542ZM1134.43 217.062L1136.01 220.167L1137.65 217.062H1141.29L1138.33 222.552L1141.45 228.333H1137.77L1136.01 225L1134.26 228.333H1130.58L1133.7 222.552L1130.75 217.062H1134.43ZM1148.39 217.062V219.5H1141.59V217.062H1148.39ZM1143.02 214.26H1146.53V224.656C1146.53 224.955 1146.57 225.187 1146.64 225.354C1146.7 225.514 1146.82 225.628 1146.99 225.698C1147.16 225.76 1147.39 225.792 1147.68 225.792C1147.88 225.792 1148.05 225.788 1148.18 225.781C1148.31 225.767 1148.43 225.75 1148.55 225.729V228.24C1148.25 228.337 1147.94 228.41 1147.61 228.458C1147.29 228.514 1146.94 228.542 1146.57 228.542C1145.82 228.542 1145.18 228.424 1144.65 228.187C1144.12 227.951 1143.72 227.58 1143.44 227.073C1143.16 226.566 1143.02 225.906 1143.02 225.094V214.26ZM1155.98 223.573V213.167H1159.63V223.573C1159.63 224.587 1159.39 225.465 1158.93 226.208C1158.47 226.951 1157.84 227.528 1157.05 227.937C1156.27 228.34 1155.39 228.542 1154.41 228.542C1153.39 228.542 1152.49 228.372 1151.7 228.031C1150.91 227.691 1150.3 227.167 1149.84 226.458C1149.4 225.75 1149.18 224.847 1149.18 223.75H1152.84C1152.84 224.264 1152.9 224.667 1153.02 224.958C1153.14 225.243 1153.31 225.444 1153.54 225.562C1153.78 225.674 1154.07 225.729 1154.41 225.729C1154.74 225.729 1155.02 225.646 1155.25 225.479C1155.49 225.306 1155.67 225.059 1155.79 224.74C1155.92 224.413 1155.98 224.024 1155.98 223.573ZM1169.76 224.302C1169.76 224.066 1169.73 223.854 1169.66 223.667C1169.59 223.472 1169.46 223.292 1169.27 223.125C1169.08 222.958 1168.81 222.792 1168.46 222.625C1168.11 222.451 1167.65 222.271 1167.08 222.083C1166.42 221.861 1165.77 221.611 1165.16 221.333C1164.54 221.049 1163.99 220.719 1163.5 220.344C1163.01 219.962 1162.63 219.517 1162.34 219.01C1162.06 218.497 1161.92 217.899 1161.92 217.219C1161.92 216.566 1162.06 215.979 1162.35 215.458C1162.65 214.931 1163.05 214.483 1163.57 214.115C1164.1 213.74 1164.72 213.455 1165.43 213.26C1166.14 213.059 1166.91 212.958 1167.75 212.958C1168.86 212.958 1169.84 213.153 1170.69 213.542C1171.54 213.924 1172.21 214.469 1172.69 215.177C1173.17 215.878 1173.42 216.708 1173.42 217.667H1169.78C1169.78 217.285 1169.7 216.948 1169.54 216.656C1169.39 216.365 1169.16 216.135 1168.84 215.969C1168.53 215.802 1168.14 215.719 1167.67 215.719C1167.21 215.719 1166.82 215.788 1166.51 215.927C1166.2 216.066 1165.96 216.253 1165.8 216.49C1165.64 216.719 1165.56 216.972 1165.56 217.25C1165.56 217.479 1165.63 217.687 1165.75 217.875C1165.88 218.056 1166.07 218.226 1166.3 218.385C1166.55 218.545 1166.84 218.698 1167.18 218.844C1167.52 218.99 1167.91 219.132 1168.34 219.271C1169.15 219.528 1169.86 219.816 1170.49 220.135C1171.12 220.448 1171.65 220.806 1172.08 221.208C1172.52 221.604 1172.85 222.056 1173.07 222.562C1173.3 223.069 1173.42 223.642 1173.42 224.281C1173.42 224.962 1173.28 225.566 1173.02 226.094C1172.76 226.622 1172.38 227.069 1171.89 227.437C1171.39 227.799 1170.8 228.073 1170.11 228.26C1169.43 228.448 1168.66 228.542 1167.81 228.542C1167.03 228.542 1166.27 228.444 1165.51 228.25C1164.76 228.049 1164.08 227.743 1163.47 227.333C1162.86 226.917 1162.37 226.385 1162 225.74C1161.64 225.087 1161.46 224.312 1161.46 223.417H1165.13C1165.13 223.861 1165.18 224.236 1165.3 224.542C1165.42 224.847 1165.59 225.094 1165.82 225.281C1166.05 225.462 1166.33 225.594 1166.67 225.677C1167 225.753 1167.38 225.792 1167.81 225.792C1168.28 225.792 1168.65 225.726 1168.94 225.594C1169.22 225.455 1169.43 225.274 1169.56 225.052C1169.69 224.823 1169.76 224.573 1169.76 224.302Z" fill="white"/>
</svg>
