<svg width="1363" height="167" viewBox="0 0 1363 167" fill="none" xmlns="http://www.w3.org/2000/svg">
<rect width="1363" height="167" rx="15" fill="#F0F0F0"/>
<path d="M0 15C0 6.71573 6.71573 0 15 0H37V167H15C6.71573 167 0 160.284 0 152V15Z" fill="#424241"/>
<path d="M100.906 50.9219L93.3945 48.2383V45.0859L103.602 49.375V51.6367L100.906 50.9219ZM93.3945 53.1719L100.918 50.4297L103.602 49.7852V52.0352L93.3945 56.3242V53.1719ZM121.789 52.3398H125.293C125.223 53.4883 124.906 54.5078 124.344 55.3984C123.789 56.2891 123.012 56.9844 122.012 57.4844C121.02 57.9844 119.824 58.2344 118.426 58.2344C117.332 58.2344 116.352 58.0469 115.484 57.6719C114.617 57.2891 113.875 56.7422 113.258 56.0312C112.648 55.3203 112.184 54.4609 111.863 53.4531C111.543 52.4453 111.383 51.3164 111.383 50.0664V48.8828C111.383 47.6328 111.547 46.5039 111.875 45.4961C112.211 44.4805 112.688 43.6172 113.305 42.9062C113.93 42.1953 114.676 41.6484 115.543 41.2656C116.41 40.8828 117.379 40.6914 118.449 40.6914C119.871 40.6914 121.07 40.9492 122.047 41.4648C123.031 41.9805 123.793 42.6914 124.332 43.5977C124.879 44.5039 125.207 45.5352 125.316 46.6914H121.801C121.762 46.0039 121.625 45.4219 121.391 44.9453C121.156 44.4609 120.801 44.0977 120.324 43.8555C119.855 43.6055 119.23 43.4805 118.449 43.4805C117.863 43.4805 117.352 43.5898 116.914 43.8086C116.477 44.0273 116.109 44.3594 115.812 44.8047C115.516 45.25 115.293 45.8125 115.145 46.4922C115.004 47.1641 114.934 47.9531 114.934 48.8594V50.0664C114.934 50.9492 115 51.7266 115.133 52.3984C115.266 53.0625 115.469 53.625 115.742 54.0859C116.023 54.5391 116.383 54.8828 116.82 55.1172C117.266 55.3438 117.801 55.457 118.426 55.457C119.16 55.457 119.766 55.3398 120.242 55.1055C120.719 54.8711 121.082 54.5234 121.332 54.0625C121.59 53.6016 121.742 53.0273 121.789 52.3398ZM130.953 40V58H127.566V40H130.953ZM133.203 51.7891V51.543C133.203 50.6133 133.336 49.7578 133.602 48.9766C133.867 48.1875 134.254 47.5039 134.762 46.9258C135.27 46.3477 135.895 45.8984 136.637 45.5781C137.379 45.25 138.23 45.0859 139.191 45.0859C140.152 45.0859 141.008 45.25 141.758 45.5781C142.508 45.8984 143.137 46.3477 143.645 46.9258C144.16 47.5039 144.551 48.1875 144.816 48.9766C145.082 49.7578 145.215 50.6133 145.215 51.543V51.7891C145.215 52.7109 145.082 53.5664 144.816 54.3555C144.551 55.1367 144.16 55.8203 143.645 56.4062C143.137 56.9844 142.512 57.4336 141.77 57.7539C141.027 58.0742 140.176 58.2344 139.215 58.2344C138.254 58.2344 137.398 58.0742 136.648 57.7539C135.906 57.4336 135.277 56.9844 134.762 56.4062C134.254 55.8203 133.867 55.1367 133.602 54.3555C133.336 53.5664 133.203 52.7109 133.203 51.7891ZM136.578 51.543V51.7891C136.578 52.3203 136.625 52.8164 136.719 53.2773C136.812 53.7383 136.961 54.1445 137.164 54.4961C137.375 54.8398 137.648 55.1094 137.984 55.3047C138.32 55.5 138.73 55.5977 139.215 55.5977C139.684 55.5977 140.086 55.5 140.422 55.3047C140.758 55.1094 141.027 54.8398 141.23 54.4961C141.434 54.1445 141.582 53.7383 141.676 53.2773C141.777 52.8164 141.828 52.3203 141.828 51.7891V51.543C141.828 51.0273 141.777 50.543 141.676 50.0898C141.582 49.6289 141.43 49.2227 141.219 48.8711C141.016 48.5117 140.746 48.2305 140.41 48.0273C140.074 47.8242 139.668 47.7227 139.191 47.7227C138.715 47.7227 138.309 47.8242 137.973 48.0273C137.645 48.2305 137.375 48.5117 137.164 48.8711C136.961 49.2227 136.812 49.6289 136.719 50.0898C136.625 50.543 136.578 51.0273 136.578 51.543ZM154.789 54.9648V45.3203H158.164V58H154.988L154.789 54.9648ZM155.164 52.3633L156.16 52.3398C156.16 53.1836 156.062 53.9688 155.867 54.6953C155.672 55.4141 155.379 56.0391 154.988 56.5703C154.598 57.0938 154.105 57.5039 153.512 57.8008C152.918 58.0898 152.219 58.2344 151.414 58.2344C150.797 58.2344 150.227 58.1484 149.703 57.9766C149.188 57.7969 148.742 57.5195 148.367 57.1445C148 56.7617 147.711 56.2734 147.5 55.6797C147.297 55.0781 147.195 54.3555 147.195 53.5117V45.3203H150.57V53.5352C150.57 53.9102 150.613 54.2266 150.699 54.4844C150.793 54.7422 150.922 54.9531 151.086 55.1172C151.25 55.2812 151.441 55.3984 151.66 55.4688C151.887 55.5391 152.137 55.5742 152.41 55.5742C153.105 55.5742 153.652 55.4336 154.051 55.1523C154.457 54.8711 154.742 54.4883 154.906 54.0039C155.078 53.5117 155.164 52.9648 155.164 52.3633ZM168.23 55.2344V40H171.629V58H168.57L168.23 55.2344ZM160.215 51.8125V51.5664C160.215 50.5977 160.324 49.7188 160.543 48.9297C160.762 48.1328 161.082 47.4492 161.504 46.8789C161.926 46.3086 162.445 45.8672 163.062 45.5547C163.68 45.2422 164.383 45.0859 165.172 45.0859C165.914 45.0859 166.562 45.2422 167.117 45.5547C167.68 45.8672 168.156 46.3125 168.547 46.8906C168.945 47.4609 169.266 48.1367 169.508 48.918C169.75 49.6914 169.926 50.5391 170.035 51.4609V52C169.926 52.8828 169.75 53.7031 169.508 54.4609C169.266 55.2188 168.945 55.8828 168.547 56.4531C168.156 57.0156 167.68 57.4531 167.117 57.7656C166.555 58.0781 165.898 58.2344 165.148 58.2344C164.359 58.2344 163.656 58.0742 163.039 57.7539C162.43 57.4336 161.914 56.9844 161.492 56.4062C161.078 55.8281 160.762 55.1484 160.543 54.3672C160.324 53.5859 160.215 52.7344 160.215 51.8125ZM163.59 51.5664V51.8125C163.59 52.3359 163.629 52.8242 163.707 53.2773C163.793 53.7305 163.93 54.1328 164.117 54.4844C164.312 54.8281 164.562 55.0977 164.867 55.293C165.18 55.4805 165.559 55.5742 166.004 55.5742C166.582 55.5742 167.059 55.4453 167.434 55.1875C167.809 54.9219 168.094 54.5586 168.289 54.0977C168.492 53.6367 168.609 53.1055 168.641 52.5039V50.9688C168.617 50.4766 168.547 50.0352 168.43 49.6445C168.32 49.2461 168.156 48.9062 167.938 48.625C167.727 48.3438 167.461 48.125 167.141 47.9688C166.828 47.8125 166.457 47.7344 166.027 47.7344C165.59 47.7344 165.215 47.8359 164.902 48.0391C164.59 48.2344 164.336 48.5039 164.141 48.8477C163.953 49.1914 163.812 49.5977 163.719 50.0664C163.633 50.5273 163.59 51.0273 163.59 51.5664ZM189.336 53.5352C189.336 53.2305 189.289 52.957 189.195 52.7148C189.109 52.4648 188.945 52.2383 188.703 52.0352C188.461 51.8242 188.121 51.6172 187.684 51.4141C187.246 51.2109 186.68 51 185.984 50.7812C185.211 50.5312 184.477 50.25 183.781 49.9375C183.094 49.625 182.484 49.2617 181.953 48.8477C181.43 48.4258 181.016 47.9375 180.711 47.3828C180.414 46.8281 180.266 46.1836 180.266 45.4492C180.266 44.7383 180.422 44.0938 180.734 43.5156C181.047 42.9297 181.484 42.4297 182.047 42.0156C182.609 41.5938 183.273 41.2695 184.039 41.043C184.812 40.8164 185.66 40.7031 186.582 40.7031C187.84 40.7031 188.938 40.9297 189.875 41.3828C190.812 41.8359 191.539 42.457 192.055 43.2461C192.578 44.0352 192.84 44.9375 192.84 45.9531H189.348C189.348 45.4531 189.242 45.0156 189.031 44.6406C188.828 44.2578 188.516 43.957 188.094 43.7383C187.68 43.5195 187.156 43.4102 186.523 43.4102C185.914 43.4102 185.406 43.5039 185 43.6914C184.594 43.8711 184.289 44.1172 184.086 44.4297C183.883 44.7344 183.781 45.0781 183.781 45.4609C183.781 45.75 183.852 46.0117 183.992 46.2461C184.141 46.4805 184.359 46.6992 184.648 46.9023C184.938 47.1055 185.293 47.2969 185.715 47.4766C186.137 47.6562 186.625 47.832 187.18 48.0039C188.109 48.2852 188.926 48.6016 189.629 48.9531C190.34 49.3047 190.934 49.6992 191.41 50.1367C191.887 50.5742 192.246 51.0703 192.488 51.625C192.73 52.1797 192.852 52.8086 192.852 53.5117C192.852 54.2539 192.707 54.918 192.418 55.5039C192.129 56.0898 191.711 56.5859 191.164 56.9922C190.617 57.3984 189.965 57.707 189.207 57.918C188.449 58.1289 187.602 58.2344 186.664 58.2344C185.82 58.2344 184.988 58.125 184.168 57.9062C183.348 57.6797 182.602 57.3398 181.93 56.8867C181.266 56.4336 180.734 55.8555 180.336 55.1523C179.938 54.4492 179.738 53.6172 179.738 52.6562H183.266C183.266 53.1875 183.348 53.6367 183.512 54.0039C183.676 54.3711 183.906 54.668 184.203 54.8945C184.508 55.1211 184.867 55.2852 185.281 55.3867C185.703 55.4883 186.164 55.5391 186.664 55.5391C187.273 55.5391 187.773 55.4531 188.164 55.2812C188.562 55.1094 188.855 54.8711 189.043 54.5664C189.238 54.2617 189.336 53.918 189.336 53.5352ZM198.406 39.9883V58H195.031V39.9883H198.406ZM206.398 45.3203L200.891 51.6016L197.938 54.5898L196.707 52.1523L199.051 49.1758L202.344 45.3203H206.398ZM202.895 58L199.145 52.1406L201.477 50.1016L206.785 58H202.895ZM211.414 45.3203V58H208.027V45.3203H211.414ZM207.816 42.0156C207.816 41.5234 207.988 41.1172 208.332 40.7969C208.676 40.4766 209.137 40.3164 209.715 40.3164C210.285 40.3164 210.742 40.4766 211.086 40.7969C211.438 41.1172 211.613 41.5234 211.613 42.0156C211.613 42.5078 211.438 42.9141 211.086 43.2344C210.742 43.5547 210.285 43.7148 209.715 43.7148C209.137 43.7148 208.676 43.5547 208.332 43.2344C207.988 42.9141 207.816 42.5078 207.816 42.0156ZM217.766 40V58H214.379V40H217.766ZM224.117 40V58H220.73V40H224.117ZM233.762 54.4961C233.762 54.2539 233.691 54.0352 233.551 53.8398C233.41 53.6445 233.148 53.4648 232.766 53.3008C232.391 53.1289 231.848 52.9727 231.137 52.832C230.496 52.6914 229.898 52.5156 229.344 52.3047C228.797 52.0859 228.32 51.8242 227.914 51.5195C227.516 51.2148 227.203 50.8555 226.977 50.4414C226.75 50.0195 226.637 49.5391 226.637 49C226.637 48.4688 226.75 47.9688 226.977 47.5C227.211 47.0312 227.543 46.6172 227.973 46.2578C228.41 45.8906 228.941 45.6055 229.566 45.4023C230.199 45.1914 230.91 45.0859 231.699 45.0859C232.801 45.0859 233.746 45.2617 234.535 45.6133C235.332 45.9648 235.941 46.4492 236.363 47.0664C236.793 47.6758 237.008 48.3711 237.008 49.1523H233.633C233.633 48.8242 233.562 48.5312 233.422 48.2734C233.289 48.0078 233.078 47.8008 232.789 47.6523C232.508 47.4961 232.141 47.418 231.688 47.418C231.312 47.418 230.988 47.4844 230.715 47.6172C230.441 47.7422 230.23 47.9141 230.082 48.1328C229.941 48.3438 229.871 48.5781 229.871 48.8359C229.871 49.0312 229.91 49.207 229.988 49.3633C230.074 49.5117 230.211 49.6484 230.398 49.7734C230.586 49.8984 230.828 50.0156 231.125 50.125C231.43 50.2266 231.805 50.3203 232.25 50.4062C233.164 50.5938 233.98 50.8398 234.699 51.1445C235.418 51.4414 235.988 51.8477 236.41 52.3633C236.832 52.8711 237.043 53.5391 237.043 54.3672C237.043 54.9297 236.918 55.4453 236.668 55.9141C236.418 56.3828 236.059 56.793 235.59 57.1445C235.121 57.4883 234.559 57.7578 233.902 57.9531C233.254 58.1406 232.523 58.2344 231.711 58.2344C230.531 58.2344 229.531 58.0234 228.711 57.6016C227.898 57.1797 227.281 56.6445 226.859 55.9961C226.445 55.3398 226.238 54.668 226.238 53.9805H229.438C229.453 54.4414 229.57 54.8125 229.789 55.0938C230.016 55.375 230.301 55.5781 230.645 55.7031C230.996 55.8281 231.375 55.8906 231.781 55.8906C232.219 55.8906 232.582 55.832 232.871 55.7148C233.16 55.5898 233.379 55.4258 233.527 55.2227C233.684 55.0117 233.762 54.7695 233.762 54.4961ZM252.102 50.5117H247.719L247.695 48.0977H251.375C252.023 48.0977 252.555 48.0156 252.969 47.8516C253.383 47.6797 253.691 47.4336 253.895 47.1133C254.105 46.7852 254.211 46.3867 254.211 45.918C254.211 45.3867 254.109 44.957 253.906 44.6289C253.711 44.3008 253.402 44.0625 252.98 43.9141C252.566 43.7656 252.031 43.6914 251.375 43.6914H248.938V58H245.422V40.9375H251.375C252.367 40.9375 253.254 41.0312 254.035 41.2188C254.824 41.4062 255.492 41.6914 256.039 42.0742C256.586 42.457 257.004 42.9414 257.293 43.5273C257.582 44.1055 257.727 44.793 257.727 45.5898C257.727 46.293 257.566 46.9414 257.246 47.5352C256.934 48.1289 256.438 48.6133 255.758 48.9883C255.086 49.3633 254.207 49.5703 253.121 49.6094L252.102 50.5117ZM251.949 58H246.758L248.129 55.2578H251.949C252.566 55.2578 253.07 55.1602 253.461 54.9648C253.852 54.7617 254.141 54.4883 254.328 54.1445C254.516 53.8008 254.609 53.4062 254.609 52.9609C254.609 52.4609 254.523 52.0273 254.352 51.6602C254.188 51.293 253.922 51.0117 253.555 50.8164C253.188 50.6133 252.703 50.5117 252.102 50.5117H248.715L248.738 48.0977H252.957L253.766 49.0469C254.805 49.0312 255.641 49.2148 256.273 49.5977C256.914 49.9727 257.379 50.4609 257.668 51.0625C257.965 51.6641 258.113 52.3086 258.113 52.9961C258.113 54.0898 257.875 55.0117 257.398 55.7617C256.922 56.5039 256.223 57.0625 255.301 57.4375C254.387 57.8125 253.27 58 251.949 58ZM268.039 54.9648V45.3203H271.414V58H268.238L268.039 54.9648ZM268.414 52.3633L269.41 52.3398C269.41 53.1836 269.312 53.9688 269.117 54.6953C268.922 55.4141 268.629 56.0391 268.238 56.5703C267.848 57.0938 267.355 57.5039 266.762 57.8008C266.168 58.0898 265.469 58.2344 264.664 58.2344C264.047 58.2344 263.477 58.1484 262.953 57.9766C262.438 57.7969 261.992 57.5195 261.617 57.1445C261.25 56.7617 260.961 56.2734 260.75 55.6797C260.547 55.0781 260.445 54.3555 260.445 53.5117V45.3203H263.82V53.5352C263.82 53.9102 263.863 54.2266 263.949 54.4844C264.043 54.7422 264.172 54.9531 264.336 55.1172C264.5 55.2812 264.691 55.3984 264.91 55.4688C265.137 55.5391 265.387 55.5742 265.66 55.5742C266.355 55.5742 266.902 55.4336 267.301 55.1523C267.707 54.8711 267.992 54.4883 268.156 54.0039C268.328 53.5117 268.414 52.9648 268.414 52.3633ZM277.555 45.3203V58H274.168V45.3203H277.555ZM273.957 42.0156C273.957 41.5234 274.129 41.1172 274.473 40.7969C274.816 40.4766 275.277 40.3164 275.855 40.3164C276.426 40.3164 276.883 40.4766 277.227 40.7969C277.578 41.1172 277.754 41.5234 277.754 42.0156C277.754 42.5078 277.578 42.9141 277.227 43.2344C276.883 43.5547 276.426 43.7148 275.855 43.7148C275.277 43.7148 274.816 43.5547 274.473 43.2344C274.129 42.9141 273.957 42.5078 273.957 42.0156ZM283.906 40V58H280.52V40H283.906ZM294.184 55.2344V40H297.582V58H294.523L294.184 55.2344ZM286.168 51.8125V51.5664C286.168 50.5977 286.277 49.7188 286.496 48.9297C286.715 48.1328 287.035 47.4492 287.457 46.8789C287.879 46.3086 288.398 45.8672 289.016 45.5547C289.633 45.2422 290.336 45.0859 291.125 45.0859C291.867 45.0859 292.516 45.2422 293.07 45.5547C293.633 45.8672 294.109 46.3125 294.5 46.8906C294.898 47.4609 295.219 48.1367 295.461 48.918C295.703 49.6914 295.879 50.5391 295.988 51.4609V52C295.879 52.8828 295.703 53.7031 295.461 54.4609C295.219 55.2188 294.898 55.8828 294.5 56.4531C294.109 57.0156 293.633 57.4531 293.07 57.7656C292.508 58.0781 291.852 58.2344 291.102 58.2344C290.312 58.2344 289.609 58.0742 288.992 57.7539C288.383 57.4336 287.867 56.9844 287.445 56.4062C287.031 55.8281 286.715 55.1484 286.496 54.3672C286.277 53.5859 286.168 52.7344 286.168 51.8125ZM289.543 51.5664V51.8125C289.543 52.3359 289.582 52.8242 289.66 53.2773C289.746 53.7305 289.883 54.1328 290.07 54.4844C290.266 54.8281 290.516 55.0977 290.82 55.293C291.133 55.4805 291.512 55.5742 291.957 55.5742C292.535 55.5742 293.012 55.4453 293.387 55.1875C293.762 54.9219 294.047 54.5586 294.242 54.0977C294.445 53.6367 294.562 53.1055 294.594 52.5039V50.9688C294.57 50.4766 294.5 50.0352 294.383 49.6445C294.273 49.2461 294.109 48.9062 293.891 48.625C293.68 48.3438 293.414 48.125 293.094 47.9688C292.781 47.8125 292.41 47.7344 291.98 47.7344C291.543 47.7344 291.168 47.8359 290.855 48.0391C290.543 48.2344 290.289 48.5039 290.094 48.8477C289.906 49.1914 289.766 49.5977 289.672 50.0664C289.586 50.5273 289.543 51.0273 289.543 51.5664ZM306.055 58.2344C305.07 58.2344 304.188 58.0781 303.406 57.7656C302.625 57.4453 301.961 57.0039 301.414 56.4414C300.875 55.8789 300.461 55.2266 300.172 54.4844C299.883 53.7344 299.738 52.9375 299.738 52.0938V51.625C299.738 50.6641 299.875 49.7852 300.148 48.9883C300.422 48.1914 300.812 47.5 301.32 46.9141C301.836 46.3281 302.461 45.8789 303.195 45.5664C303.93 45.2461 304.758 45.0859 305.68 45.0859C306.578 45.0859 307.375 45.2344 308.07 45.5312C308.766 45.8281 309.348 46.25 309.816 46.7969C310.293 47.3438 310.652 48 310.895 48.7656C311.137 49.5234 311.258 50.3672 311.258 51.2969V52.7031H301.18V50.4531H307.941V50.1953C307.941 49.7266 307.855 49.3086 307.684 48.9414C307.52 48.5664 307.27 48.2695 306.934 48.0508C306.598 47.832 306.168 47.7227 305.645 47.7227C305.199 47.7227 304.816 47.8203 304.496 48.0156C304.176 48.2109 303.914 48.4844 303.711 48.8359C303.516 49.1875 303.367 49.6016 303.266 50.0781C303.172 50.5469 303.125 51.0625 303.125 51.625V52.0938C303.125 52.6016 303.195 53.0703 303.336 53.5C303.484 53.9297 303.691 54.3008 303.957 54.6133C304.23 54.9258 304.559 55.168 304.941 55.3398C305.332 55.5117 305.773 55.5977 306.266 55.5977C306.875 55.5977 307.441 55.4805 307.965 55.2461C308.496 55.0039 308.953 54.6406 309.336 54.1562L310.977 55.9375C310.711 56.3203 310.348 56.6875 309.887 57.0391C309.434 57.3906 308.887 57.6797 308.246 57.9062C307.605 58.125 306.875 58.2344 306.055 58.2344ZM316.555 48.0859V58H313.18V45.3203H316.355L316.555 48.0859ZM320.375 45.2383L320.316 48.3672C320.152 48.3438 319.953 48.3242 319.719 48.3086C319.492 48.2852 319.285 48.2734 319.098 48.2734C318.621 48.2734 318.207 48.3359 317.855 48.4609C317.512 48.5781 317.223 48.7539 316.988 48.9883C316.762 49.2227 316.59 49.5078 316.473 49.8438C316.363 50.1797 316.301 50.5625 316.285 50.9922L315.605 50.7812C315.605 49.9609 315.688 49.207 315.852 48.5195C316.016 47.8242 316.254 47.2188 316.566 46.7031C316.887 46.1875 317.277 45.7891 317.738 45.5078C318.199 45.2266 318.727 45.0859 319.32 45.0859C319.508 45.0859 319.699 45.1016 319.895 45.1328C320.09 45.1562 320.25 45.1914 320.375 45.2383Z" fill="#888888"/>
<path d="M101.822 115.1L108.194 86.0078H111.995L114.061 88.4907L107.271 118H103.074L101.822 115.1ZM100.13 86.0078L105.513 115.319L104.129 118H99.2729L92.4834 86.0078H100.13ZM117.554 115.166L122.894 86.0078H130.518L123.729 118H118.895L117.554 115.166ZM114.742 86.0078L121.268 115.275L119.949 118H115.752L108.809 88.4468L110.962 86.0078H114.742ZM141.021 94.2256V118H133.594V94.2256H141.021ZM133.155 88.0952C133.155 87.0405 133.536 86.1763 134.297 85.5024C135.059 84.8286 136.048 84.4917 137.264 84.4917C138.479 84.4917 139.468 84.8286 140.23 85.5024C140.992 86.1763 141.373 87.0405 141.373 88.0952C141.373 89.1499 140.992 90.0142 140.23 90.688C139.468 91.3618 138.479 91.6987 137.264 91.6987C136.048 91.6987 135.059 91.3618 134.297 90.688C133.536 90.0142 133.155 89.1499 133.155 88.0952ZM153.062 100.114V118H145.657V94.2256H152.579L153.062 100.114ZM160.093 94.0498L159.961 100.927C159.668 100.898 159.273 100.861 158.775 100.817C158.277 100.773 157.859 100.751 157.522 100.751C156.658 100.751 155.911 100.854 155.281 101.059C154.666 101.25 154.153 101.542 153.743 101.938C153.348 102.319 153.055 102.802 152.864 103.388C152.688 103.974 152.608 104.655 152.623 105.432L151.282 104.553C151.282 102.956 151.436 101.506 151.744 100.202C152.066 98.8838 152.52 97.7485 153.106 96.7964C153.692 95.8296 154.402 95.0898 155.237 94.5771C156.072 94.0498 157.01 93.7861 158.05 93.7861C158.416 93.7861 158.775 93.8081 159.126 93.8521C159.493 93.896 159.815 93.9619 160.093 94.0498ZM173.716 118.439C171.783 118.439 170.054 118.139 168.531 117.539C167.007 116.923 165.718 116.081 164.664 115.012C163.624 113.942 162.825 112.712 162.269 111.32C161.727 109.929 161.456 108.457 161.456 106.904V106.069C161.456 104.326 161.697 102.714 162.181 101.235C162.664 99.7407 163.382 98.437 164.334 97.3237C165.286 96.2104 166.48 95.3462 167.916 94.731C169.351 94.1011 171.021 93.7861 172.925 93.7861C174.61 93.7861 176.119 94.0571 177.452 94.5991C178.785 95.1411 179.913 95.9175 180.835 96.9282C181.773 97.939 182.483 99.1621 182.967 100.598C183.465 102.033 183.714 103.645 183.714 105.432V108.442H164.29V103.806H176.485V103.234C176.5 102.443 176.36 101.77 176.067 101.213C175.789 100.656 175.379 100.231 174.837 99.9385C174.295 99.6455 173.636 99.499 172.859 99.499C172.054 99.499 171.387 99.6748 170.86 100.026C170.347 100.378 169.944 100.861 169.651 101.477C169.373 102.077 169.175 102.773 169.058 103.564C168.941 104.355 168.882 105.19 168.882 106.069V106.904C168.882 107.783 169 108.581 169.234 109.299C169.483 110.017 169.834 110.632 170.289 111.145C170.757 111.643 171.314 112.031 171.958 112.309C172.618 112.587 173.365 112.727 174.2 112.727C175.21 112.727 176.207 112.536 177.188 112.155C178.169 111.774 179.012 111.145 179.715 110.266L183.077 114.265C182.593 114.953 181.905 115.62 181.011 116.264C180.132 116.909 179.078 117.436 177.847 117.846C176.617 118.242 175.24 118.439 173.716 118.439ZM195.799 118H188.35V92.292C188.35 90.4463 188.724 88.8936 189.471 87.6338C190.218 86.374 191.272 85.4219 192.635 84.7773C193.997 84.1182 195.608 83.7886 197.469 83.7886C198.113 83.7886 198.721 83.8325 199.292 83.9204C199.864 84.0083 200.42 84.1182 200.962 84.25L200.984 89.6992C200.721 89.626 200.45 89.5747 200.171 89.5454C199.893 89.5161 199.549 89.5015 199.139 89.5015C198.421 89.5015 197.813 89.6113 197.315 89.8311C196.817 90.0361 196.436 90.3511 196.172 90.7759C195.923 91.186 195.799 91.6914 195.799 92.292V118ZM200.413 94.2256V99.3672H184.922V94.2256H200.413ZM210.542 100.114V118H203.138V94.2256H210.059L210.542 100.114ZM217.574 94.0498L217.442 100.927C217.149 100.898 216.753 100.861 216.255 100.817C215.757 100.773 215.34 100.751 215.003 100.751C214.139 100.751 213.392 100.854 212.762 101.059C212.146 101.25 211.634 101.542 211.224 101.938C210.828 102.319 210.535 102.802 210.345 103.388C210.169 103.974 210.088 104.655 210.103 105.432L208.763 104.553C208.763 102.956 208.917 101.506 209.224 100.202C209.546 98.8838 210 97.7485 210.586 96.7964C211.172 95.8296 211.883 95.0898 212.718 94.5771C213.553 94.0498 214.49 93.7861 215.53 93.7861C215.896 93.7861 216.255 93.8081 216.607 93.8521C216.973 93.896 217.295 93.9619 217.574 94.0498ZM231.812 112.023V102.224C231.812 101.55 231.717 100.971 231.526 100.488C231.336 100.004 231.036 99.6309 230.625 99.3672C230.215 99.0889 229.666 98.9497 228.978 98.9497C228.421 98.9497 227.945 99.0449 227.549 99.2354C227.154 99.4258 226.854 99.7114 226.648 100.092C226.443 100.473 226.341 100.957 226.341 101.542H218.936C218.936 100.444 219.178 99.4258 219.661 98.4883C220.159 97.5361 220.862 96.7085 221.771 96.0054C222.693 95.3022 223.792 94.7603 225.066 94.3794C226.355 93.9839 227.791 93.7861 229.373 93.7861C231.263 93.7861 232.947 94.1011 234.427 94.731C235.921 95.3608 237.1 96.3057 237.964 97.5654C238.829 98.8105 239.261 100.378 239.261 102.268V112.001C239.261 113.554 239.349 114.733 239.524 115.539C239.7 116.33 239.949 117.026 240.271 117.626V118H232.845C232.493 117.268 232.229 116.374 232.054 115.319C231.893 114.25 231.812 113.151 231.812 112.023ZM232.713 103.476L232.757 107.431H229.483C228.794 107.431 228.208 107.526 227.725 107.717C227.256 107.907 226.875 108.171 226.583 108.508C226.304 108.83 226.099 109.196 225.967 109.606C225.85 110.017 225.792 110.449 225.792 110.903C225.792 111.342 225.894 111.738 226.099 112.089C226.319 112.426 226.612 112.69 226.978 112.88C227.344 113.071 227.754 113.166 228.208 113.166C229.029 113.166 229.725 113.012 230.296 112.705C230.882 112.382 231.329 111.994 231.636 111.54C231.944 111.086 232.098 110.661 232.098 110.266L233.724 113.298C233.431 113.884 233.094 114.477 232.713 115.078C232.347 115.678 231.885 116.235 231.329 116.748C230.787 117.246 230.12 117.656 229.329 117.978C228.538 118.286 227.579 118.439 226.451 118.439C224.986 118.439 223.638 118.139 222.408 117.539C221.192 116.938 220.218 116.103 219.485 115.034C218.753 113.95 218.387 112.705 218.387 111.298C218.387 110.068 218.606 108.969 219.046 108.002C219.5 107.036 220.181 106.215 221.089 105.542C221.998 104.868 223.155 104.355 224.561 104.003C225.967 103.652 227.623 103.476 229.527 103.476H232.713ZM250.84 99.2573V118H243.436V94.2256H250.379L250.84 99.2573ZM249.939 105.3L248.248 105.344C248.248 103.674 248.445 102.136 248.841 100.729C249.236 99.3232 249.822 98.1001 250.599 97.0601C251.375 96.02 252.327 95.2144 253.455 94.6431C254.598 94.0718 255.916 93.7861 257.41 93.7861C258.45 93.7861 259.395 93.9473 260.245 94.2695C261.094 94.5771 261.827 95.0679 262.442 95.7417C263.057 96.4009 263.526 97.2651 263.848 98.3345C264.185 99.3892 264.354 100.656 264.354 102.136V118H256.949V103.081C256.949 102.07 256.832 101.308 256.597 100.795C256.377 100.283 256.055 99.9385 255.63 99.7627C255.206 99.5869 254.686 99.499 254.07 99.499C253.426 99.499 252.847 99.6455 252.334 99.9385C251.822 100.231 251.382 100.642 251.016 101.169C250.665 101.682 250.394 102.29 250.203 102.993C250.027 103.696 249.939 104.465 249.939 105.3ZM263.519 105.3L261.453 105.344C261.453 103.674 261.636 102.136 262.002 100.729C262.383 99.3232 262.947 98.1001 263.694 97.0601C264.456 96.02 265.401 95.2144 266.529 94.6431C267.657 94.0718 268.968 93.7861 270.462 93.7861C271.546 93.7861 272.542 93.9473 273.45 94.2695C274.358 94.5918 275.142 95.1118 275.801 95.8296C276.46 96.5474 276.973 97.4995 277.339 98.686C277.706 99.8579 277.889 101.308 277.889 103.037V118H270.462V103.037C270.462 102.055 270.345 101.315 270.11 100.817C269.891 100.305 269.568 99.9604 269.144 99.7847C268.719 99.5942 268.213 99.499 267.627 99.499C266.924 99.499 266.316 99.6455 265.804 99.9385C265.291 100.231 264.859 100.642 264.507 101.169C264.17 101.682 263.921 102.29 263.76 102.993C263.599 103.696 263.519 104.465 263.519 105.3ZM293.643 118.439C291.709 118.439 289.981 118.139 288.458 117.539C286.934 116.923 285.645 116.081 284.59 115.012C283.55 113.942 282.752 112.712 282.195 111.32C281.653 109.929 281.382 108.457 281.382 106.904V106.069C281.382 104.326 281.624 102.714 282.107 101.235C282.591 99.7407 283.309 98.437 284.261 97.3237C285.213 96.2104 286.407 95.3462 287.842 94.731C289.278 94.1011 290.948 93.7861 292.852 93.7861C294.537 93.7861 296.045 94.0571 297.378 94.5991C298.711 95.1411 299.839 95.9175 300.762 96.9282C301.7 97.939 302.41 99.1621 302.894 100.598C303.392 102.033 303.641 103.645 303.641 105.432V108.442H284.217V103.806H296.412V103.234C296.426 102.443 296.287 101.77 295.994 101.213C295.716 100.656 295.306 100.231 294.764 99.9385C294.222 99.6455 293.562 99.499 292.786 99.499C291.98 99.499 291.314 99.6748 290.787 100.026C290.274 100.378 289.871 100.861 289.578 101.477C289.3 102.077 289.102 102.773 288.985 103.564C288.868 104.355 288.809 105.19 288.809 106.069V106.904C288.809 107.783 288.926 108.581 289.161 109.299C289.41 110.017 289.761 110.632 290.215 111.145C290.684 111.643 291.241 112.031 291.885 112.309C292.544 112.587 293.292 112.727 294.126 112.727C295.137 112.727 296.133 112.536 297.115 112.155C298.096 111.774 298.938 111.145 299.642 110.266L303.003 114.265C302.52 114.953 301.832 115.62 300.938 116.264C300.059 116.909 299.004 117.436 297.774 117.846C296.543 118.242 295.167 118.439 293.643 118.439ZM319.109 111.32C319.109 110.91 318.97 110.559 318.692 110.266C318.428 109.958 317.959 109.68 317.286 109.431C316.612 109.167 315.667 108.903 314.451 108.64C313.294 108.391 312.203 108.061 311.177 107.651C310.167 107.241 309.28 106.743 308.519 106.157C307.757 105.571 307.156 104.875 306.717 104.069C306.292 103.264 306.08 102.341 306.08 101.301C306.08 100.29 306.292 99.3379 306.717 98.4443C307.156 97.5361 307.793 96.7378 308.628 96.0493C309.478 95.3462 310.511 94.7969 311.727 94.4014C312.942 93.9912 314.327 93.7861 315.879 93.7861C318.018 93.7861 319.864 94.1157 321.417 94.7749C322.969 95.4194 324.163 96.3276 324.998 97.4995C325.848 98.6567 326.272 99.9971 326.272 101.521H318.868C318.868 100.92 318.765 100.407 318.56 99.9824C318.37 99.5576 318.055 99.2354 317.615 99.0156C317.176 98.7812 316.59 98.6641 315.857 98.6641C315.345 98.6641 314.876 98.7593 314.451 98.9497C314.041 99.1401 313.711 99.4038 313.462 99.7407C313.213 100.078 313.089 100.473 313.089 100.927C313.089 101.25 313.162 101.542 313.309 101.806C313.47 102.055 313.711 102.29 314.034 102.509C314.356 102.714 314.766 102.905 315.264 103.081C315.762 103.242 316.363 103.388 317.066 103.52C318.663 103.813 320.157 104.23 321.548 104.772C322.94 105.314 324.068 106.083 324.932 107.08C325.811 108.076 326.25 109.416 326.25 111.101C326.25 112.155 326.009 113.129 325.525 114.023C325.042 114.902 324.346 115.678 323.438 116.352C322.53 117.011 321.438 117.524 320.164 117.89C318.89 118.256 317.454 118.439 315.857 118.439C313.587 118.439 311.668 118.037 310.101 117.231C308.533 116.411 307.347 115.385 306.541 114.155C305.75 112.91 305.354 111.65 305.354 110.375H312.254C312.283 111.108 312.459 111.708 312.781 112.177C313.118 112.646 313.565 112.99 314.122 113.21C314.678 113.43 315.323 113.54 316.055 113.54C316.729 113.54 317.286 113.444 317.725 113.254C318.179 113.063 318.523 112.807 318.758 112.485C318.992 112.148 319.109 111.76 319.109 111.32Z" fill="#424241"/>
<path d="M1363 15C1363 6.71573 1356.28 0 1348 0H1134V167H1348C1356.28 167 1363 160.284 1363 152V15Z" fill="#232E52"/>
<path fill-rule="evenodd" clip-rule="evenodd" d="M1203 49C1203 47.8954 1203.9 47 1205 47H1292.5C1293.6 47 1294.5 47.8954 1294.5 49V118.996C1294.5 120.101 1293.6 120.996 1292.5 120.996H1205C1203.9 120.996 1203 120.101 1203 118.996V49ZM1207 51V55.4945H1290.5V51H1207ZM1290.5 59.4945H1235.44V116.996H1290.5V59.4945ZM1231.44 116.996V59.4945H1207V116.996H1231.44Z" fill="white"/>
<path fill-rule="evenodd" clip-rule="evenodd" d="M1209.97 64.8004C1209.97 63.6958 1210.87 62.8004 1211.97 62.8004H1225.97C1227.08 62.8004 1227.97 63.6958 1227.97 64.8004V84.1956C1227.97 85.3001 1227.08 86.1956 1225.97 86.1956H1211.97C1210.87 86.1956 1209.97 85.3001 1209.97 84.1956V64.8004ZM1213.97 66.8004V82.1956H1223.97V66.8004H1213.97ZM1239.58 65.6964C1239.58 64.5918 1240.47 63.6964 1241.58 63.6964H1284.5C1285.61 63.6964 1286.5 64.5918 1286.5 65.6964V111.905C1286.5 113.01 1285.61 113.905 1284.5 113.905H1241.58C1240.47 113.905 1239.58 113.01 1239.58 111.905V65.6964ZM1243.58 67.6964V109.905H1282.5V67.6964H1243.58ZM1209.81 95.9363C1209.81 94.8317 1210.71 93.9363 1211.81 93.9363H1220.73C1221.84 93.9363 1222.73 94.8317 1222.73 95.9363C1222.73 97.0409 1221.84 97.9363 1220.73 97.9363H1211.81C1210.71 97.9363 1209.81 97.0409 1209.81 95.9363ZM1209.81 102.936C1209.81 101.832 1210.71 100.936 1211.81 100.936H1226.35C1227.46 100.936 1228.35 101.832 1228.35 102.936C1228.35 104.041 1227.46 104.936 1226.35 104.936H1211.81C1210.71 104.936 1209.81 104.041 1209.81 102.936ZM1209.81 109.936C1209.81 108.832 1210.71 107.936 1211.81 107.936H1220.73C1221.84 107.936 1222.73 108.832 1222.73 109.936C1222.73 111.041 1221.84 111.936 1220.73 111.936H1211.81C1210.71 111.936 1209.81 111.041 1209.81 109.936Z" fill="white"/>
</svg>
