<svg width="1363" height="167" viewBox="0 0 1363 167" fill="none" xmlns="http://www.w3.org/2000/svg">
<rect width="1363" height="167" rx="15" fill="#F0F0F0"/>
<path d="M0 15C0 6.71573 6.71573 0 15 0H37V167H15C6.71573 167 0 160.284 0 152V15Z" fill="#424241"/>
<path d="M100.906 50.9219L93.3945 48.2383V45.0859L103.602 49.375V51.6367L100.906 50.9219ZM93.3945 53.1719L100.918 50.4297L103.602 49.7852V52.0352L93.3945 56.3242V53.1719ZM117.137 58H113.422L113.445 55.2578H117.137C118.059 55.2578 118.836 55.0508 119.469 54.6367C120.102 54.2148 120.578 53.6016 120.898 52.7969C121.227 51.9922 121.391 51.0195 121.391 49.8789V49.0469C121.391 48.1719 121.297 47.4023 121.109 46.7383C120.93 46.0742 120.66 45.5156 120.301 45.0625C119.941 44.6094 119.5 44.2695 118.977 44.043C118.453 43.8086 117.852 43.6914 117.172 43.6914H113.352V40.9375H117.172C118.312 40.9375 119.355 41.1328 120.301 41.5234C121.254 41.9062 122.078 42.457 122.773 43.1758C123.469 43.8945 124.004 44.7539 124.379 45.7539C124.762 46.7461 124.953 47.8516 124.953 49.0703V49.8789C124.953 51.0898 124.762 52.1953 124.379 53.1953C124.004 54.1953 123.469 55.0547 122.773 55.7734C122.086 56.4844 121.262 57.0352 120.301 57.4258C119.348 57.8086 118.293 58 117.137 58ZM115.414 40.9375V58H111.898V40.9375H115.414ZM133.133 58.2344C132.148 58.2344 131.266 58.0781 130.484 57.7656C129.703 57.4453 129.039 57.0039 128.492 56.4414C127.953 55.8789 127.539 55.2266 127.25 54.4844C126.961 53.7344 126.816 52.9375 126.816 52.0938V51.625C126.816 50.6641 126.953 49.7852 127.227 48.9883C127.5 48.1914 127.891 47.5 128.398 46.9141C128.914 46.3281 129.539 45.8789 130.273 45.5664C131.008 45.2461 131.836 45.0859 132.758 45.0859C133.656 45.0859 134.453 45.2344 135.148 45.5312C135.844 45.8281 136.426 46.25 136.895 46.7969C137.371 47.3438 137.73 48 137.973 48.7656C138.215 49.5234 138.336 50.3672 138.336 51.2969V52.7031H128.258V50.4531H135.02V50.1953C135.02 49.7266 134.934 49.3086 134.762 48.9414C134.598 48.5664 134.348 48.2695 134.012 48.0508C133.676 47.832 133.246 47.7227 132.723 47.7227C132.277 47.7227 131.895 47.8203 131.574 48.0156C131.254 48.2109 130.992 48.4844 130.789 48.8359C130.594 49.1875 130.445 49.6016 130.344 50.0781C130.25 50.5469 130.203 51.0625 130.203 51.625V52.0938C130.203 52.6016 130.273 53.0703 130.414 53.5C130.562 53.9297 130.77 54.3008 131.035 54.6133C131.309 54.9258 131.637 55.168 132.02 55.3398C132.41 55.5117 132.852 55.5977 133.344 55.5977C133.953 55.5977 134.52 55.4805 135.043 55.2461C135.574 55.0039 136.031 54.6406 136.414 54.1562L138.055 55.9375C137.789 56.3203 137.426 56.6875 136.965 57.0391C136.512 57.3906 135.965 57.6797 135.324 57.9062C134.684 58.125 133.953 58.2344 133.133 58.2344ZM144.406 55.5391L147.219 45.3203H150.746L146.469 58H144.336L144.406 55.5391ZM142.473 45.3203L145.297 55.5508L145.355 58H143.211L138.934 45.3203H142.473ZM155.82 40V58H152.434V40H155.82ZM158.07 51.7891V51.543C158.07 50.6133 158.203 49.7578 158.469 48.9766C158.734 48.1875 159.121 47.5039 159.629 46.9258C160.137 46.3477 160.762 45.8984 161.504 45.5781C162.246 45.25 163.098 45.0859 164.059 45.0859C165.02 45.0859 165.875 45.25 166.625 45.5781C167.375 45.8984 168.004 46.3477 168.512 46.9258C169.027 47.5039 169.418 48.1875 169.684 48.9766C169.949 49.7578 170.082 50.6133 170.082 51.543V51.7891C170.082 52.7109 169.949 53.5664 169.684 54.3555C169.418 55.1367 169.027 55.8203 168.512 56.4062C168.004 56.9844 167.379 57.4336 166.637 57.7539C165.895 58.0742 165.043 58.2344 164.082 58.2344C163.121 58.2344 162.266 58.0742 161.516 57.7539C160.773 57.4336 160.145 56.9844 159.629 56.4062C159.121 55.8203 158.734 55.1367 158.469 54.3555C158.203 53.5664 158.07 52.7109 158.07 51.7891ZM161.445 51.543V51.7891C161.445 52.3203 161.492 52.8164 161.586 53.2773C161.68 53.7383 161.828 54.1445 162.031 54.4961C162.242 54.8398 162.516 55.1094 162.852 55.3047C163.188 55.5 163.598 55.5977 164.082 55.5977C164.551 55.5977 164.953 55.5 165.289 55.3047C165.625 55.1094 165.895 54.8398 166.098 54.4961C166.301 54.1445 166.449 53.7383 166.543 53.2773C166.645 52.8164 166.695 52.3203 166.695 51.7891V51.543C166.695 51.0273 166.645 50.543 166.543 50.0898C166.449 49.6289 166.297 49.2227 166.086 48.8711C165.883 48.5117 165.613 48.2305 165.277 48.0273C164.941 47.8242 164.535 47.7227 164.059 47.7227C163.582 47.7227 163.176 47.8242 162.84 48.0273C162.512 48.2305 162.242 48.5117 162.031 48.8711C161.828 49.2227 161.68 49.6289 161.586 50.0898C161.492 50.543 161.445 51.0273 161.445 51.543ZM180.184 45.3203H183.242V57.5781C183.242 58.7344 182.984 59.7148 182.469 60.5195C181.961 61.332 181.25 61.9453 180.336 62.3594C179.422 62.7812 178.359 62.9922 177.148 62.9922C176.617 62.9922 176.055 62.9219 175.461 62.7812C174.875 62.6406 174.312 62.4219 173.773 62.125C173.242 61.8281 172.797 61.4531 172.438 61L173.926 59.0078C174.316 59.4609 174.77 59.8125 175.285 60.0625C175.801 60.3203 176.371 60.4492 176.996 60.4492C177.605 60.4492 178.121 60.3359 178.543 60.1094C178.965 59.8906 179.289 59.5664 179.516 59.1367C179.742 58.7148 179.855 58.2031 179.855 57.6016V48.25L180.184 45.3203ZM171.652 51.8125V51.5664C171.652 50.5977 171.77 49.7188 172.004 48.9297C172.246 48.1328 172.586 47.4492 173.023 46.8789C173.469 46.3086 174.008 45.8672 174.641 45.5547C175.273 45.2422 175.988 45.0859 176.785 45.0859C177.629 45.0859 178.336 45.2422 178.906 45.5547C179.477 45.8672 179.945 46.3125 180.312 46.8906C180.68 47.4609 180.965 48.1367 181.168 48.918C181.379 49.6914 181.543 50.5391 181.66 51.4609V52C181.543 52.8828 181.367 53.7031 181.133 54.4609C180.898 55.2188 180.59 55.8828 180.207 56.4531C179.824 57.0156 179.348 57.4531 178.777 57.7656C178.215 58.0781 177.543 58.2344 176.762 58.2344C175.98 58.2344 175.273 58.0742 174.641 57.7539C174.016 57.4336 173.48 56.9844 173.035 56.4062C172.59 55.8281 172.246 55.1484 172.004 54.3672C171.77 53.5859 171.652 52.7344 171.652 51.8125ZM175.027 51.5664V51.8125C175.027 52.3359 175.078 52.8242 175.18 53.2773C175.281 53.7305 175.438 54.1328 175.648 54.4844C175.867 54.8281 176.137 55.0977 176.457 55.293C176.785 55.4805 177.172 55.5742 177.617 55.5742C178.234 55.5742 178.738 55.4453 179.129 55.1875C179.52 54.9219 179.812 54.5586 180.008 54.0977C180.203 53.6367 180.316 53.1055 180.348 52.5039V50.9688C180.332 50.4766 180.266 50.0352 180.148 49.6445C180.031 49.2461 179.867 48.9062 179.656 48.625C179.445 48.3438 179.172 48.125 178.836 47.9688C178.5 47.8125 178.102 47.7344 177.641 47.7344C177.195 47.7344 176.809 47.8359 176.48 48.0391C176.16 48.2344 175.891 48.5039 175.672 48.8477C175.461 49.1914 175.301 49.5977 175.191 50.0664C175.082 50.5273 175.027 51.0273 175.027 51.5664Z" fill="#888888"/>
<path d="M115.994 98.708V104.641H99.5806V98.708H115.994ZM102.151 86.0078V118H94.439V86.0078H102.151ZM121.18 86.0078V118H113.489V86.0078H121.18ZM124.805 106.354V105.893C124.805 104.15 125.054 102.546 125.552 101.081C126.05 99.6016 126.783 98.3198 127.75 97.2358C128.716 96.1519 129.91 95.3096 131.331 94.709C132.752 94.0938 134.393 93.7861 136.253 93.7861C138.128 93.7861 139.776 94.0938 141.197 94.709C142.632 95.3096 143.833 96.1519 144.8 97.2358C145.767 98.3198 146.5 99.6016 146.998 101.081C147.496 102.546 147.745 104.15 147.745 105.893V106.354C147.745 108.083 147.496 109.687 146.998 111.167C146.5 112.631 145.767 113.913 144.8 115.012C143.833 116.096 142.64 116.938 141.219 117.539C139.798 118.139 138.157 118.439 136.297 118.439C134.437 118.439 132.789 118.139 131.353 117.539C129.917 116.938 128.716 116.096 127.75 115.012C126.783 113.913 126.05 112.631 125.552 111.167C125.054 109.687 124.805 108.083 124.805 106.354ZM132.21 105.893V106.354C132.21 107.248 132.276 108.083 132.408 108.859C132.54 109.636 132.759 110.317 133.067 110.903C133.375 111.474 133.792 111.921 134.319 112.243C134.847 112.565 135.506 112.727 136.297 112.727C137.073 112.727 137.718 112.565 138.23 112.243C138.758 111.921 139.175 111.474 139.483 110.903C139.791 110.317 140.01 109.636 140.142 108.859C140.274 108.083 140.34 107.248 140.34 106.354V105.893C140.34 105.029 140.274 104.216 140.142 103.454C140.01 102.678 139.791 101.997 139.483 101.411C139.175 100.81 138.758 100.341 138.23 100.004C137.703 99.6675 137.044 99.499 136.253 99.499C135.477 99.499 134.825 99.6675 134.297 100.004C133.785 100.341 133.375 100.81 133.067 101.411C132.759 101.997 132.54 102.678 132.408 103.454C132.276 104.216 132.21 105.029 132.21 105.893ZM158.27 110.925L162.664 94.2256H167.3L165.652 102.597L161.302 118H157.588L158.27 110.925ZM156.534 94.2256L159.258 110.793L159.566 118H155.062L149.437 94.2256H156.534ZM171.211 110.441L173.958 94.2256H181.055L175.474 118H170.97L171.211 110.441ZM167.828 94.2256L172.266 110.881L172.947 118H169.19L164.927 102.641L163.345 94.2256H167.828ZM209.466 86.0078V118H201.753V86.0078H209.466ZM219.09 86.0078V91.9624H192.349V86.0078H219.09ZM216.475 106.354V105.893C216.475 104.15 216.724 102.546 217.222 101.081C217.72 99.6016 218.453 98.3198 219.419 97.2358C220.386 96.1519 221.58 95.3096 223.001 94.709C224.422 94.0938 226.062 93.7861 227.923 93.7861C229.798 93.7861 231.446 94.0938 232.867 94.709C234.302 95.3096 235.503 96.1519 236.47 97.2358C237.437 98.3198 238.169 99.6016 238.667 101.081C239.166 102.546 239.415 104.15 239.415 105.893V106.354C239.415 108.083 239.166 109.687 238.667 111.167C238.169 112.631 237.437 113.913 236.47 115.012C235.503 116.096 234.31 116.938 232.889 117.539C231.468 118.139 229.827 118.439 227.967 118.439C226.106 118.439 224.458 118.139 223.023 117.539C221.587 116.938 220.386 116.096 219.419 115.012C218.453 113.913 217.72 112.631 217.222 111.167C216.724 109.687 216.475 108.083 216.475 106.354ZM223.88 105.893V106.354C223.88 107.248 223.946 108.083 224.078 108.859C224.209 109.636 224.429 110.317 224.737 110.903C225.044 111.474 225.462 111.921 225.989 112.243C226.517 112.565 227.176 112.727 227.967 112.727C228.743 112.727 229.388 112.565 229.9 112.243C230.428 111.921 230.845 111.474 231.153 110.903C231.46 110.317 231.68 109.636 231.812 108.859C231.944 108.083 232.01 107.248 232.01 106.354V105.893C232.01 105.029 231.944 104.216 231.812 103.454C231.68 102.678 231.46 101.997 231.153 101.411C230.845 100.81 230.428 100.341 229.9 100.004C229.373 99.6675 228.714 99.499 227.923 99.499C227.146 99.499 226.495 99.6675 225.967 100.004C225.455 100.341 225.044 100.81 224.737 101.411C224.429 101.997 224.209 102.678 224.078 103.454C223.946 104.216 223.88 105.029 223.88 105.893ZM254.268 86.0078H266.858C269.319 86.0078 271.458 86.374 273.274 87.1064C275.091 87.8389 276.49 88.9229 277.471 90.3584C278.467 91.7939 278.965 93.5664 278.965 95.6758C278.965 97.5068 278.68 99.0376 278.108 100.268C277.537 101.499 276.739 102.517 275.713 103.322C274.703 104.113 273.523 104.765 272.176 105.278L269.649 106.706H259.08L259.036 100.751H266.858C267.84 100.751 268.653 100.576 269.297 100.224C269.942 99.8726 270.425 99.3745 270.748 98.73C271.084 98.0708 271.253 97.2871 271.253 96.3789C271.253 95.4561 271.084 94.665 270.748 94.0059C270.411 93.3467 269.913 92.8413 269.253 92.4897C268.609 92.1382 267.811 91.9624 266.858 91.9624H261.98V118H254.268V86.0078ZM271.78 118L264.705 103.85L272.879 103.806L280.042 117.67V118H271.78ZM297.159 112.221V94.2256H304.585V118H297.642L297.159 112.221ZM297.862 107.387L299.795 107.343C299.795 108.94 299.605 110.419 299.224 111.782C298.843 113.129 298.279 114.301 297.532 115.297C296.8 116.293 295.892 117.07 294.808 117.626C293.738 118.168 292.5 118.439 291.094 118.439C289.922 118.439 288.846 118.278 287.864 117.956C286.897 117.619 286.062 117.099 285.359 116.396C284.656 115.678 284.107 114.763 283.711 113.649C283.331 112.521 283.14 111.174 283.14 109.606V94.2256H290.545V109.65C290.545 110.178 290.611 110.632 290.743 111.013C290.875 111.394 291.065 111.716 291.314 111.979C291.563 112.229 291.871 112.419 292.237 112.551C292.618 112.668 293.05 112.727 293.533 112.727C294.646 112.727 295.518 112.492 296.148 112.023C296.778 111.555 297.217 110.917 297.466 110.112C297.73 109.306 297.862 108.398 297.862 107.387ZM315.945 99.3013V118H308.541V94.2256H315.484L315.945 99.3013ZM315.066 105.3L313.331 105.344C313.331 103.527 313.55 101.909 313.99 100.488C314.429 99.0522 315.052 97.8364 315.857 96.8403C316.663 95.8442 317.623 95.0898 318.736 94.5771C319.864 94.0498 321.116 93.7861 322.493 93.7861C323.592 93.7861 324.595 93.9473 325.503 94.2695C326.426 94.5918 327.217 95.1118 327.876 95.8296C328.55 96.5474 329.063 97.4995 329.415 98.686C329.781 99.8579 329.964 101.308 329.964 103.037V118H322.515V103.015C322.515 102.062 322.383 101.337 322.12 100.839C321.856 100.327 321.475 99.9751 320.977 99.7847C320.479 99.5942 319.871 99.499 319.153 99.499C318.392 99.499 317.747 99.6455 317.22 99.9385C316.692 100.231 316.268 100.642 315.945 101.169C315.638 101.682 315.411 102.29 315.264 102.993C315.132 103.696 315.066 104.465 315.066 105.3ZM345.85 107.871H339.544C339.544 106.582 339.632 105.446 339.808 104.465C339.998 103.469 340.32 102.575 340.774 101.784C341.229 100.993 341.844 100.261 342.62 99.5869C343.309 99.0156 343.902 98.4663 344.4 97.939C344.898 97.4116 345.279 96.877 345.542 96.335C345.806 95.793 345.938 95.2144 345.938 94.5991C345.938 93.8374 345.828 93.2148 345.608 92.7314C345.403 92.248 345.088 91.8892 344.664 91.6548C344.253 91.4058 343.733 91.2812 343.104 91.2812C342.591 91.2812 342.107 91.4058 341.653 91.6548C341.214 91.9038 340.855 92.292 340.577 92.8193C340.298 93.332 340.145 94.0132 340.115 94.8628H332.667C332.71 92.6802 333.194 90.9077 334.117 89.5454C335.054 88.1685 336.299 87.165 337.852 86.5352C339.419 85.8906 341.17 85.5684 343.104 85.5684C345.242 85.5684 347.081 85.8979 348.619 86.5571C350.157 87.2163 351.336 88.1978 352.156 89.5015C352.977 90.7905 353.387 92.3799 353.387 94.2695C353.387 95.5293 353.145 96.6279 352.662 97.5654C352.193 98.4883 351.556 99.3525 350.75 100.158C349.959 100.949 349.073 101.799 348.091 102.707C347.242 103.454 346.663 104.216 346.355 104.992C346.048 105.754 345.879 106.713 345.85 107.871ZM338.643 114.55C338.643 113.496 339.024 112.617 339.786 111.914C340.547 111.196 341.536 110.837 342.752 110.837C343.968 110.837 344.957 111.196 345.718 111.914C346.48 112.617 346.861 113.496 346.861 114.55C346.861 115.605 346.48 116.491 345.718 117.209C344.957 117.912 343.968 118.264 342.752 118.264C341.536 118.264 340.547 117.912 339.786 117.209C339.024 116.491 338.643 115.605 338.643 114.55Z" fill="#424241"/>
<path d="M1363 15C1363 6.71573 1356.28 0 1348 0H1134V167H1348C1356.28 167 1363 160.284 1363 152V15Z" fill="#232E52"/>
<path d="M1260.77 81.3079C1263.96 81.3079 1267.09 82.2553 1269.74 84.0303C1272.4 85.8053 1274.47 88.3282 1275.69 91.2799C1276.92 94.2316 1277.24 97.4796 1276.61 100.613C1275.99 103.747 1274.45 106.625 1272.19 108.884C1269.93 111.143 1267.05 112.682 1263.92 113.305C1260.79 113.928 1257.54 113.608 1254.59 112.386C1251.64 111.163 1249.11 109.093 1247.34 106.436C1245.56 103.78 1244.62 100.657 1244.62 97.4617C1244.62 93.1774 1246.32 89.0686 1249.35 86.0392C1252.38 83.0098 1256.48 81.3079 1260.77 81.3079ZM1260.77 75.9233C1256.51 75.9233 1252.35 77.1865 1248.8 79.5532C1245.26 81.9198 1242.5 85.2837 1240.87 89.2193C1239.24 93.1549 1238.81 97.4856 1239.64 101.664C1240.48 105.842 1242.53 109.679 1245.54 112.692C1248.55 115.704 1252.39 117.755 1256.57 118.586C1260.75 119.417 1265.08 118.991 1269.01 117.361C1272.95 115.73 1276.31 112.97 1278.68 109.428C1281.04 105.886 1282.31 101.722 1282.31 97.4617C1282.31 91.7493 1280.04 86.271 1276 82.2317C1271.96 78.1925 1266.48 75.9233 1260.77 75.9233Z" fill="white"/>
<path d="M1274.23 49H1220.38C1218.96 49 1217.59 49.5673 1216.58 50.5771C1215.57 51.5869 1215 52.9565 1215 54.3846V108.231C1215 109.659 1215.57 111.028 1216.58 112.038C1217.59 113.048 1218.96 113.615 1220.38 113.615H1231.15V108.231H1220.38V70.5384H1279.62V54.3846C1279.62 52.9565 1279.05 51.5869 1278.04 50.5771C1277.03 49.5673 1275.66 49 1274.23 49ZM1220.38 65.1538V54.3846H1274.23V65.1538H1220.38Z" fill="white"/>
<path d="M1255.38 89.3849V105.539L1268.85 97.4618L1255.38 89.3849Z" fill="white"/>
</svg>
