<svg width="1363" height="301" viewBox="0 0 1363 301" fill="none" xmlns="http://www.w3.org/2000/svg">
<rect width="1363" height="301" rx="15" fill="#F0F0F0"/>
<path d="M0 15C0 6.71573 6.71573 0 15 0H37V301H15C6.71573 301 0 294.284 0 286V15Z" fill="#232E52"/>
<path d="M107.684 144H99.0093L99.063 136.749H107.684C109.474 136.749 110.987 136.319 112.222 135.46C113.475 134.601 114.424 133.32 115.069 131.62C115.731 129.901 116.062 127.788 116.062 125.282V123.59C116.062 121.71 115.875 120.063 115.499 118.648C115.14 117.216 114.603 116.026 113.887 115.077C113.171 114.11 112.276 113.385 111.202 112.901C110.145 112.418 108.928 112.176 107.549 112.176H98.8481V104.898H107.549C110.199 104.898 112.625 105.355 114.827 106.268C117.047 107.163 118.963 108.452 120.574 110.135C122.203 111.8 123.457 113.779 124.334 116.07C125.229 118.344 125.677 120.868 125.677 123.644V125.282C125.677 128.039 125.229 130.563 124.334 132.855C123.457 135.147 122.212 137.125 120.601 138.79C118.99 140.455 117.083 141.744 114.881 142.657C112.697 143.552 110.298 144 107.684 144ZM104.407 104.898V144H94.981V104.898H104.407ZM144.234 144.537C141.871 144.537 139.758 144.17 137.896 143.436C136.034 142.684 134.458 141.655 133.169 140.348C131.898 139.041 130.923 137.537 130.242 135.836C129.58 134.135 129.249 132.336 129.249 130.438V129.417C129.249 127.287 129.544 125.318 130.135 123.509C130.726 121.683 131.603 120.09 132.767 118.729C133.93 117.368 135.389 116.312 137.144 115.56C138.899 114.79 140.94 114.405 143.267 114.405C145.326 114.405 147.17 114.736 148.799 115.399C150.429 116.061 151.807 117.01 152.935 118.246C154.081 119.481 154.949 120.976 155.54 122.73C156.149 124.485 156.453 126.454 156.453 128.639V132.318H132.713V126.651H147.618V125.953C147.636 124.986 147.465 124.163 147.107 123.482C146.767 122.802 146.266 122.283 145.604 121.925C144.941 121.567 144.135 121.388 143.187 121.388C142.202 121.388 141.387 121.603 140.743 122.032C140.116 122.462 139.624 123.053 139.266 123.805C138.925 124.539 138.684 125.389 138.541 126.356C138.397 127.323 138.326 128.343 138.326 129.417V130.438C138.326 131.512 138.469 132.488 138.755 133.365C139.06 134.243 139.489 134.994 140.044 135.621C140.617 136.23 141.298 136.704 142.085 137.044C142.891 137.385 143.804 137.555 144.825 137.555C146.06 137.555 147.278 137.322 148.477 136.856C149.677 136.391 150.706 135.621 151.565 134.547L155.674 139.435C155.083 140.276 154.242 141.091 153.15 141.878C152.076 142.666 150.787 143.311 149.283 143.812C147.779 144.295 146.096 144.537 144.234 144.537ZM170.23 137.796L175.95 114.942H185.484L175.977 144H170.337L170.23 137.796ZM166.846 114.942L172.486 137.796L172.432 144H166.766L157.286 114.942H166.846ZM197.73 102.75V144H188.653V102.75H197.73ZM202.188 129.767V129.203C202.188 127.072 202.492 125.112 203.101 123.321C203.71 121.513 204.605 119.946 205.787 118.622C206.968 117.297 208.427 116.267 210.164 115.533C211.901 114.781 213.906 114.405 216.18 114.405C218.471 114.405 220.486 114.781 222.222 115.533C223.977 116.267 225.445 117.297 226.626 118.622C227.808 119.946 228.703 121.513 229.312 123.321C229.921 125.112 230.225 127.072 230.225 129.203V129.767C230.225 131.879 229.921 133.84 229.312 135.648C228.703 137.438 227.808 139.005 226.626 140.348C225.445 141.673 223.986 142.702 222.249 143.436C220.512 144.17 218.507 144.537 216.233 144.537C213.96 144.537 211.945 144.17 210.191 143.436C208.436 142.702 206.968 141.673 205.787 140.348C204.605 139.005 203.71 137.438 203.101 135.648C202.492 133.84 202.188 131.879 202.188 129.767ZM211.238 129.203V129.767C211.238 130.859 211.319 131.879 211.48 132.828C211.641 133.777 211.91 134.61 212.286 135.326C212.662 136.024 213.172 136.57 213.816 136.964C214.461 137.358 215.267 137.555 216.233 137.555C217.182 137.555 217.97 137.358 218.597 136.964C219.241 136.57 219.751 136.024 220.127 135.326C220.503 134.61 220.772 133.777 220.933 132.828C221.094 131.879 221.175 130.859 221.175 129.767V129.203C221.175 128.146 221.094 127.153 220.933 126.222C220.772 125.273 220.503 124.44 220.127 123.724C219.751 122.99 219.241 122.417 218.597 122.005C217.952 121.594 217.146 121.388 216.18 121.388C215.231 121.388 214.434 121.594 213.79 122.005C213.163 122.417 212.662 122.99 212.286 123.724C211.91 124.44 211.641 125.273 211.48 126.222C211.319 127.153 211.238 128.146 211.238 129.203ZM252.515 114.942H260.733V142.872C260.733 145.558 260.115 147.831 258.88 149.693C257.645 151.573 255.917 152.997 253.697 153.963C251.495 154.948 248.917 155.44 245.962 155.44C244.655 155.44 243.322 155.27 241.961 154.93C240.6 154.608 239.329 154.125 238.147 153.48C236.966 152.835 235.972 152.039 235.167 151.09L238.953 145.772C239.687 146.596 240.609 147.294 241.719 147.867C242.829 148.458 244.136 148.753 245.64 148.753C246.947 148.753 248.039 148.521 248.917 148.055C249.812 147.59 250.492 146.909 250.958 146.014C251.423 145.137 251.656 144.072 251.656 142.818V121.817L252.515 114.942ZM233.206 129.82V129.256C233.206 127.054 233.475 125.049 234.012 123.241C234.567 121.415 235.354 119.848 236.375 118.541C237.413 117.216 238.667 116.196 240.135 115.479C241.603 114.763 243.259 114.405 245.103 114.405C247.09 114.405 248.72 114.79 249.991 115.56C251.28 116.312 252.309 117.368 253.079 118.729C253.867 120.09 254.476 121.683 254.905 123.509C255.353 125.318 255.729 127.269 256.033 129.364V130.035C255.729 132.005 255.308 133.867 254.771 135.621C254.252 137.358 253.571 138.897 252.73 140.24C251.889 141.583 250.832 142.639 249.561 143.409C248.308 144.161 246.804 144.537 245.049 144.537C243.223 144.537 241.576 144.17 240.108 143.436C238.658 142.702 237.413 141.673 236.375 140.348C235.354 139.023 234.567 137.465 234.012 135.675C233.475 133.884 233.206 131.933 233.206 129.82ZM242.256 129.256V129.82C242.256 130.912 242.355 131.924 242.552 132.855C242.767 133.786 243.089 134.61 243.519 135.326C243.948 136.024 244.476 136.57 245.103 136.964C245.748 137.358 246.5 137.555 247.359 137.555C248.666 137.555 249.722 137.277 250.528 136.722C251.333 136.167 251.915 135.379 252.273 134.359C252.632 133.338 252.784 132.139 252.73 130.76V128.639C252.766 127.457 252.685 126.419 252.488 125.523C252.291 124.61 251.978 123.849 251.548 123.241C251.137 122.632 250.582 122.175 249.883 121.871C249.203 121.549 248.379 121.388 247.413 121.388C246.571 121.388 245.828 121.585 245.184 121.979C244.539 122.372 244.002 122.927 243.572 123.644C243.143 124.342 242.811 125.174 242.579 126.141C242.364 127.09 242.256 128.128 242.256 129.256Z" fill="black"/>
<path d="M114.661 66.9775V68.1567C114.661 70.048 114.405 71.7456 113.892 73.2495C113.379 74.7534 112.656 76.0352 111.722 77.0947C110.787 78.1429 109.671 78.9461 108.372 79.5044C107.085 80.0627 105.655 80.3418 104.083 80.3418C102.522 80.3418 101.092 80.0627 99.793 79.5044C98.5055 78.9461 97.389 78.1429 96.4434 77.0947C95.4977 76.0352 94.7629 74.7534 94.2388 73.2495C93.7261 71.7456 93.4697 70.048 93.4697 68.1567V66.9775C93.4697 65.0749 93.7261 63.3773 94.2388 61.8848C94.7515 60.3809 95.4749 59.0991 96.4092 58.0396C97.3548 56.98 98.4714 56.1711 99.7588 55.6128C101.058 55.0545 102.487 54.7754 104.048 54.7754C105.621 54.7754 107.05 55.0545 108.338 55.6128C109.637 56.1711 110.753 56.98 111.688 58.0396C112.633 59.0991 113.362 60.3809 113.875 61.8848C114.399 63.3773 114.661 65.0749 114.661 66.9775ZM109.483 68.1567V66.9434C109.483 65.6217 109.363 64.4596 109.124 63.457C108.885 62.4544 108.532 61.6113 108.064 60.9277C107.597 60.2441 107.028 59.7314 106.355 59.3896C105.683 59.0365 104.914 58.8599 104.048 58.8599C103.182 58.8599 102.413 59.0365 101.741 59.3896C101.08 59.7314 100.516 60.2441 100.049 60.9277C99.5936 61.6113 99.2461 62.4544 99.0068 63.457C98.7676 64.4596 98.6479 65.6217 98.6479 66.9434V68.1567C98.6479 69.467 98.7676 70.6291 99.0068 71.6431C99.2461 72.6457 99.5993 73.4945 100.066 74.1895C100.534 74.873 101.103 75.3914 101.775 75.7446C102.448 76.0978 103.217 76.2744 104.083 76.2744C104.948 76.2744 105.717 76.0978 106.39 75.7446C107.062 75.3914 107.626 74.873 108.082 74.1895C108.537 73.4945 108.885 72.6457 109.124 71.6431C109.363 70.6291 109.483 69.467 109.483 68.1567ZM122.967 65.3369V80H118.028V61.5088H122.659L122.967 65.3369ZM122.283 70.105H120.916C120.916 68.8175 121.07 67.6326 121.377 66.5503C121.696 65.4565 122.158 64.5109 122.762 63.7134C123.377 62.9045 124.135 62.2778 125.035 61.8335C125.935 61.3892 126.977 61.167 128.162 61.167C128.982 61.167 129.734 61.2923 130.418 61.543C131.102 61.7822 131.688 62.1639 132.178 62.688C132.68 63.2007 133.067 63.8729 133.34 64.7046C133.614 65.5249 133.75 66.5104 133.75 67.6611V80H128.829V68.208C128.829 67.3649 128.715 66.7155 128.487 66.2598C128.259 65.804 127.934 65.485 127.513 65.3027C127.103 65.1204 126.607 65.0293 126.026 65.0293C125.388 65.0293 124.83 65.1603 124.351 65.4224C123.884 65.6844 123.497 66.049 123.189 66.5161C122.881 66.9718 122.653 67.5073 122.505 68.1226C122.357 68.7378 122.283 69.3986 122.283 70.105ZM133.289 69.541L131.529 69.7632C131.529 68.5555 131.677 67.4333 131.973 66.3965C132.281 65.3597 132.731 64.4482 133.323 63.6621C133.927 62.876 134.673 62.2664 135.562 61.8335C136.451 61.3892 137.476 61.167 138.638 61.167C139.527 61.167 140.336 61.298 141.065 61.5601C141.794 61.8107 142.415 62.2152 142.928 62.7734C143.452 63.3203 143.851 64.0381 144.124 64.9268C144.409 65.8154 144.551 66.9035 144.551 68.1909V80H139.612V68.1909C139.612 67.3364 139.498 66.687 139.271 66.2427C139.054 65.7869 138.735 65.4736 138.313 65.3027C137.903 65.1204 137.413 65.0293 136.844 65.0293C136.251 65.0293 135.733 65.1489 135.289 65.3882C134.844 65.616 134.474 65.9351 134.178 66.3452C133.882 66.7554 133.659 67.2339 133.511 67.7808C133.363 68.3162 133.289 68.903 133.289 69.541ZM158.343 75.8301V67.5928C158.343 67.0003 158.246 66.4933 158.052 66.0718C157.859 65.6388 157.557 65.3027 157.146 65.0635C156.748 64.8242 156.229 64.7046 155.591 64.7046C155.044 64.7046 154.572 64.8014 154.173 64.9951C153.774 65.1774 153.466 65.4451 153.25 65.7983C153.034 66.1401 152.925 66.5446 152.925 67.0117H148.003C148.003 66.2256 148.186 65.4793 148.55 64.7729C148.915 64.0666 149.445 63.4456 150.14 62.9102C150.835 62.3633 151.661 61.936 152.618 61.6284C153.586 61.3208 154.668 61.167 155.865 61.167C157.3 61.167 158.576 61.4062 159.693 61.8848C160.809 62.3633 161.687 63.0811 162.325 64.0381C162.974 64.9951 163.299 66.1914 163.299 67.627V75.5396C163.299 76.5535 163.361 77.3853 163.487 78.0347C163.612 78.6727 163.794 79.231 164.034 79.7095V80H159.061C158.821 79.4987 158.639 78.8721 158.514 78.1201C158.4 77.3568 158.343 76.5934 158.343 75.8301ZM158.992 68.7378L159.026 71.5234H156.275C155.625 71.5234 155.062 71.5975 154.583 71.7456C154.104 71.8937 153.711 72.1045 153.404 72.3779C153.096 72.64 152.868 72.9476 152.72 73.3008C152.583 73.654 152.515 74.0413 152.515 74.4629C152.515 74.8844 152.612 75.2661 152.806 75.6079C152.999 75.9383 153.278 76.2004 153.643 76.394C154.008 76.5763 154.435 76.6675 154.925 76.6675C155.665 76.6675 156.309 76.5194 156.856 76.2231C157.403 75.9269 157.824 75.5623 158.121 75.1294C158.428 74.6965 158.588 74.2863 158.599 73.8989L159.898 75.9839C159.716 76.451 159.465 76.9352 159.146 77.4365C158.838 77.9378 158.445 78.4106 157.967 78.855C157.488 79.2879 156.913 79.6468 156.241 79.9316C155.569 80.2051 154.771 80.3418 153.848 80.3418C152.675 80.3418 151.609 80.1082 150.652 79.6411C149.707 79.1626 148.955 78.5075 148.396 77.6758C147.85 76.8327 147.576 75.8757 147.576 74.8047C147.576 73.8363 147.758 72.9761 148.123 72.2241C148.488 71.4722 149.023 70.8398 149.729 70.3271C150.447 69.8031 151.342 69.41 152.413 69.1479C153.484 68.8745 154.725 68.7378 156.138 68.7378H158.992ZM172.015 65.542V80H167.093V61.5088H171.724L172.015 65.542ZM177.586 61.3892L177.5 65.9521C177.261 65.918 176.971 65.8895 176.629 65.8667C176.299 65.8325 175.997 65.8154 175.723 65.8154C175.028 65.8154 174.424 65.9066 173.912 66.0889C173.41 66.2598 172.989 66.5161 172.647 66.8579C172.317 67.1997 172.066 67.6156 171.895 68.1055C171.736 68.5954 171.644 69.1536 171.622 69.7803L170.63 69.4727C170.63 68.2764 170.75 67.1769 170.989 66.1743C171.229 65.1603 171.576 64.2773 172.032 63.5254C172.499 62.7734 173.069 62.1924 173.741 61.7822C174.413 61.3721 175.182 61.167 176.048 61.167C176.321 61.167 176.6 61.1898 176.885 61.2354C177.17 61.2695 177.404 61.3208 177.586 61.3892ZM206.929 76.001V80H189.292V76.001H206.929ZM206.673 57.9712L191.565 80H187.959V77.0605L203.187 55.1172H206.673V57.9712ZM204.913 55.1172V59.1333H187.977V55.1172H204.913ZM218.021 80.3418C216.585 80.3418 215.298 80.1139 214.158 79.6582C213.019 79.1911 212.05 78.5474 211.253 77.7271C210.467 76.9067 209.863 75.9554 209.441 74.873C209.02 73.7793 208.809 72.6172 208.809 71.3867V70.7031C208.809 69.3018 209.008 68.02 209.407 66.8579C209.806 65.6958 210.376 64.6875 211.116 63.833C211.868 62.9785 212.78 62.3234 213.851 61.8677C214.922 61.4006 216.129 61.167 217.474 61.167C218.784 61.167 219.946 61.3835 220.96 61.8164C221.974 62.2493 222.823 62.8646 223.506 63.6621C224.201 64.4596 224.725 65.4167 225.079 66.5332C225.432 67.6383 225.608 68.8688 225.608 70.2246V72.2754H210.911V68.9941H220.772V68.6182C220.772 67.9346 220.647 67.325 220.396 66.7896C220.157 66.2427 219.792 65.8097 219.302 65.4907C218.812 65.1717 218.186 65.0122 217.422 65.0122C216.773 65.0122 216.215 65.1546 215.748 65.4395C215.28 65.7243 214.899 66.123 214.603 66.6357C214.318 67.1484 214.101 67.7523 213.953 68.4473C213.816 69.1309 213.748 69.8828 213.748 70.7031V71.3867C213.748 72.1273 213.851 72.8109 214.056 73.4375C214.272 74.0641 214.574 74.6053 214.961 75.061C215.36 75.5168 215.839 75.87 216.397 76.1206C216.967 76.3713 217.61 76.4966 218.328 76.4966C219.217 76.4966 220.043 76.3257 220.806 75.9839C221.581 75.6307 222.247 75.1009 222.806 74.3945L225.198 76.9922C224.811 77.5505 224.281 78.0859 223.609 78.5986C222.948 79.1113 222.151 79.5329 221.216 79.8633C220.282 80.1823 219.217 80.3418 218.021 80.3418ZM233.606 61.5088V80H228.667V61.5088H233.606ZM228.36 56.6895C228.36 55.9717 228.611 55.3792 229.112 54.9121C229.613 54.445 230.285 54.2114 231.128 54.2114C231.96 54.2114 232.627 54.445 233.128 54.9121C233.641 55.3792 233.897 55.9717 233.897 56.6895C233.897 57.4072 233.641 57.9997 233.128 58.4668C232.627 58.9339 231.96 59.1675 231.128 59.1675C230.285 59.1675 229.613 58.9339 229.112 58.4668C228.611 57.9997 228.36 57.4072 228.36 56.6895ZM242.493 65.4565V80H237.571V61.5088H242.186L242.493 65.4565ZM241.775 70.105H240.442C240.442 68.7378 240.619 67.5073 240.972 66.4136C241.325 65.3084 241.821 64.3685 242.459 63.5938C243.097 62.8076 243.855 62.2095 244.732 61.7993C245.621 61.3778 246.612 61.167 247.706 61.167C248.571 61.167 249.363 61.2923 250.081 61.543C250.799 61.7936 251.414 62.1924 251.927 62.7393C252.451 63.2861 252.85 64.0096 253.123 64.9097C253.408 65.8097 253.55 66.9092 253.55 68.208V80H248.594V68.1909C248.594 67.3706 248.48 66.7326 248.252 66.2769C248.025 65.8211 247.688 65.5021 247.244 65.3198C246.811 65.1261 246.276 65.0293 245.638 65.0293C244.977 65.0293 244.402 65.1603 243.912 65.4224C243.433 65.6844 243.034 66.049 242.715 66.5161C242.408 66.9718 242.174 67.5073 242.015 68.1226C241.855 68.7378 241.775 69.3986 241.775 70.105ZM265.804 80.3418C264.368 80.3418 263.081 80.1139 261.941 79.6582C260.802 79.1911 259.834 78.5474 259.036 77.7271C258.25 76.9067 257.646 75.9554 257.225 74.873C256.803 73.7793 256.592 72.6172 256.592 71.3867V70.7031C256.592 69.3018 256.792 68.02 257.19 66.8579C257.589 65.6958 258.159 64.6875 258.899 63.833C259.651 62.9785 260.563 62.3234 261.634 61.8677C262.705 61.4006 263.912 61.167 265.257 61.167C266.567 61.167 267.729 61.3835 268.743 61.8164C269.757 62.2493 270.606 62.8646 271.29 63.6621C271.985 64.4596 272.509 65.4167 272.862 66.5332C273.215 67.6383 273.392 68.8688 273.392 70.2246V72.2754H258.694V68.9941H268.555V68.6182C268.555 67.9346 268.43 67.325 268.179 66.7896C267.94 66.2427 267.575 65.8097 267.085 65.4907C266.596 65.1717 265.969 65.0122 265.206 65.0122C264.556 65.0122 263.998 65.1546 263.531 65.4395C263.064 65.7243 262.682 66.123 262.386 66.6357C262.101 67.1484 261.884 67.7523 261.736 68.4473C261.6 69.1309 261.531 69.8828 261.531 70.7031V71.3867C261.531 72.1273 261.634 72.8109 261.839 73.4375C262.055 74.0641 262.357 74.6053 262.745 75.061C263.143 75.5168 263.622 75.87 264.18 76.1206C264.75 76.3713 265.394 76.4966 266.111 76.4966C267 76.4966 267.826 76.3257 268.589 75.9839C269.364 75.6307 270.031 75.1009 270.589 74.3945L272.981 76.9922C272.594 77.5505 272.064 78.0859 271.392 78.5986C270.731 79.1113 269.934 79.5329 269 79.8633C268.065 80.1823 267 80.3418 265.804 80.3418ZM287.115 75.9668V53.75H292.071V80H287.61L287.115 75.9668ZM275.425 70.9766V70.6177C275.425 69.2049 275.585 67.9232 275.904 66.7725C276.223 65.6104 276.69 64.6134 277.305 63.7817C277.92 62.95 278.678 62.3063 279.578 61.8506C280.478 61.3949 281.504 61.167 282.654 61.167C283.737 61.167 284.682 61.3949 285.491 61.8506C286.312 62.3063 287.007 62.9557 287.576 63.7988C288.157 64.6305 288.624 65.616 288.978 66.7554C289.331 67.8833 289.587 69.1195 289.747 70.4639V71.25C289.587 72.5374 289.331 73.7337 288.978 74.8389C288.624 75.944 288.157 76.9124 287.576 77.7441C287.007 78.5645 286.312 79.2025 285.491 79.6582C284.671 80.1139 283.714 80.3418 282.62 80.3418C281.469 80.3418 280.444 80.1082 279.544 79.6411C278.655 79.174 277.903 78.5189 277.288 77.6758C276.684 76.8327 276.223 75.8415 275.904 74.7021C275.585 73.5628 275.425 72.321 275.425 70.9766ZM280.347 70.6177V70.9766C280.347 71.7399 280.404 72.452 280.518 73.1128C280.643 73.7736 280.843 74.3604 281.116 74.873C281.401 75.3743 281.766 75.7674 282.21 76.0522C282.666 76.3257 283.218 76.4624 283.868 76.4624C284.711 76.4624 285.406 76.2744 285.953 75.8984C286.5 75.5111 286.915 74.9813 287.2 74.3091C287.496 73.6369 287.667 72.8621 287.713 71.9849V69.7461C287.679 69.0283 287.576 68.3846 287.405 67.8149C287.246 67.2339 287.007 66.7383 286.688 66.3281C286.38 65.918 285.993 65.599 285.525 65.3711C285.07 65.1432 284.528 65.0293 283.902 65.0293C283.264 65.0293 282.717 65.1774 282.261 65.4736C281.806 65.7585 281.435 66.1515 281.15 66.6528C280.877 67.1541 280.672 67.7466 280.535 68.4302C280.41 69.1024 280.347 69.8315 280.347 70.6177ZM306.836 75.9668V53.75H311.792V80H307.332L306.836 75.9668ZM295.147 70.9766V70.6177C295.147 69.2049 295.306 67.9232 295.625 66.7725C295.944 65.6104 296.412 64.6134 297.027 63.7817C297.642 62.95 298.4 62.3063 299.3 61.8506C300.2 61.3949 301.225 61.167 302.376 61.167C303.458 61.167 304.404 61.3949 305.213 61.8506C306.033 62.3063 306.728 62.9557 307.298 63.7988C307.879 64.6305 308.346 65.616 308.699 66.7554C309.052 67.8833 309.309 69.1195 309.468 70.4639V71.25C309.309 72.5374 309.052 73.7337 308.699 74.8389C308.346 75.944 307.879 76.9124 307.298 77.7441C306.728 78.5645 306.033 79.2025 305.213 79.6582C304.393 80.1139 303.436 80.3418 302.342 80.3418C301.191 80.3418 300.166 80.1082 299.266 79.6411C298.377 79.174 297.625 78.5189 297.01 77.6758C296.406 76.8327 295.944 75.8415 295.625 74.7021C295.306 73.5628 295.147 72.321 295.147 70.9766ZM300.069 70.6177V70.9766C300.069 71.7399 300.126 72.452 300.24 73.1128C300.365 73.7736 300.564 74.3604 300.838 74.873C301.123 75.3743 301.487 75.7674 301.932 76.0522C302.387 76.3257 302.94 76.4624 303.589 76.4624C304.432 76.4624 305.127 76.2744 305.674 75.8984C306.221 75.5111 306.637 74.9813 306.922 74.3091C307.218 73.6369 307.389 72.8621 307.435 71.9849V69.7461C307.4 69.0283 307.298 68.3846 307.127 67.8149C306.967 67.2339 306.728 66.7383 306.409 66.3281C306.102 65.918 305.714 65.599 305.247 65.3711C304.791 65.1432 304.25 65.0293 303.624 65.0293C302.986 65.0293 302.439 65.1774 301.983 65.4736C301.527 65.7585 301.157 66.1515 300.872 66.6528C300.599 67.1541 300.394 67.7466 300.257 68.4302C300.132 69.1024 300.069 69.8315 300.069 70.6177ZM320.833 61.5088V80H315.894V61.5088H320.833ZM315.586 56.6895C315.586 55.9717 315.837 55.3792 316.338 54.9121C316.84 54.445 317.512 54.2114 318.355 54.2114C319.187 54.2114 319.853 54.445 320.354 54.9121C320.867 55.3792 321.124 55.9717 321.124 56.6895C321.124 57.4072 320.867 57.9997 320.354 58.4668C319.853 58.9339 319.187 59.1675 318.355 59.1675C317.512 59.1675 316.84 58.9339 316.338 58.4668C315.837 57.9997 315.586 57.4072 315.586 56.6895ZM329.72 65.4565V80H324.798V61.5088H329.412L329.72 65.4565ZM329.002 70.105H327.669C327.669 68.7378 327.846 67.5073 328.199 66.4136C328.552 65.3084 329.048 64.3685 329.686 63.5938C330.324 62.8076 331.081 62.2095 331.958 61.7993C332.847 61.3778 333.838 61.167 334.932 61.167C335.798 61.167 336.59 61.2923 337.308 61.543C338.025 61.7936 338.641 62.1924 339.153 62.7393C339.677 63.2861 340.076 64.0096 340.35 64.9097C340.634 65.8097 340.777 66.9092 340.777 68.208V80H335.821V68.1909C335.821 67.3706 335.707 66.7326 335.479 66.2769C335.251 65.8211 334.915 65.5021 334.471 65.3198C334.038 65.1261 333.502 65.0293 332.864 65.0293C332.203 65.0293 331.628 65.1603 331.138 65.4224C330.66 65.6844 330.261 66.049 329.942 66.5161C329.634 66.9718 329.401 67.5073 329.241 68.1226C329.082 68.7378 329.002 69.3986 329.002 70.105ZM353.03 80.3418C351.595 80.3418 350.307 80.1139 349.168 79.6582C348.029 79.1911 347.06 78.5474 346.263 77.7271C345.477 76.9067 344.873 75.9554 344.451 74.873C344.03 73.7793 343.819 72.6172 343.819 71.3867V70.7031C343.819 69.3018 344.018 68.02 344.417 66.8579C344.816 65.6958 345.385 64.6875 346.126 63.833C346.878 62.9785 347.789 62.3234 348.86 61.8677C349.931 61.4006 351.139 61.167 352.483 61.167C353.794 61.167 354.956 61.3835 355.97 61.8164C356.984 62.2493 357.833 62.8646 358.516 63.6621C359.211 64.4596 359.735 65.4167 360.088 66.5332C360.442 67.6383 360.618 68.8688 360.618 70.2246V72.2754H345.921V68.9941H355.782V68.6182C355.782 67.9346 355.656 67.325 355.406 66.7896C355.167 66.2427 354.802 65.8097 354.312 65.4907C353.822 65.1717 353.195 65.0122 352.432 65.0122C351.783 65.0122 351.224 65.1546 350.757 65.4395C350.29 65.7243 349.909 66.123 349.612 66.6357C349.327 67.1484 349.111 67.7523 348.963 68.4473C348.826 69.1309 348.758 69.8828 348.758 70.7031V71.3867C348.758 72.1273 348.86 72.8109 349.065 73.4375C349.282 74.0641 349.584 74.6053 349.971 75.061C350.37 75.5168 350.848 75.87 351.407 76.1206C351.976 76.3713 352.62 76.4966 353.338 76.4966C354.227 76.4966 355.053 76.3257 355.816 75.9839C356.591 75.6307 357.257 75.1009 357.815 74.3945L360.208 76.9922C359.821 77.5505 359.291 78.0859 358.619 78.5986C357.958 79.1113 357.16 79.5329 356.226 79.8633C355.292 80.1823 354.227 80.3418 353.03 80.3418Z" fill="#888888"/>
<rect x="92" y="181" width="1179" height="80" rx="13.3333" fill="#CCCCCC"/>
<rect x="107" y="196.333" width="208" height="49.3333" rx="4.66667" fill="#888888" stroke="#888888" stroke-width="4"/>
<path d="M166.656 213.167H169.635L173.021 223.719L176.406 213.167H179.385L174.229 228.333H171.813L166.656 213.167ZM164.844 213.167H167.927L168.5 224.792V228.333H164.844V213.167ZM178.115 213.167H181.208V228.333H177.542V224.792L178.115 213.167ZM182.948 222.812V222.594C182.948 221.767 183.066 221.007 183.302 220.312C183.538 219.611 183.885 219.003 184.344 218.49C184.802 217.976 185.368 217.576 186.042 217.292C186.715 217 187.493 216.854 188.375 216.854C189.264 216.854 190.045 217 190.719 217.292C191.399 217.576 191.969 217.976 192.427 218.49C192.885 219.003 193.233 219.611 193.469 220.312C193.705 221.007 193.823 221.767 193.823 222.594V222.812C193.823 223.632 193.705 224.392 193.469 225.094C193.233 225.788 192.885 226.396 192.427 226.917C191.969 227.431 191.403 227.83 190.729 228.115C190.056 228.399 189.278 228.542 188.396 228.542C187.514 228.542 186.733 228.399 186.052 228.115C185.372 227.83 184.802 227.431 184.344 226.917C183.885 226.396 183.538 225.788 183.302 225.094C183.066 224.392 182.948 223.632 182.948 222.812ZM186.458 222.594V222.812C186.458 223.236 186.49 223.632 186.552 224C186.615 224.368 186.719 224.691 186.865 224.969C187.01 225.24 187.208 225.451 187.458 225.604C187.708 225.757 188.021 225.833 188.396 225.833C188.764 225.833 189.069 225.757 189.313 225.604C189.563 225.451 189.76 225.24 189.906 224.969C190.052 224.691 190.156 224.368 190.219 224C190.281 223.632 190.313 223.236 190.313 222.812V222.594C190.313 222.184 190.281 221.799 190.219 221.437C190.156 221.069 190.052 220.747 189.906 220.469C189.76 220.184 189.563 219.962 189.313 219.802C189.063 219.642 188.75 219.562 188.375 219.562C188.007 219.562 187.698 219.642 187.448 219.802C187.205 219.962 187.01 220.184 186.865 220.469C186.719 220.747 186.615 221.069 186.552 221.437C186.49 221.799 186.458 222.184 186.458 222.594ZM198.833 219.469V228.333H195.323V217.062H198.615L198.833 219.469ZM198.417 222.312L197.594 222.333C197.594 221.472 197.698 220.705 197.906 220.031C198.115 219.351 198.41 218.774 198.792 218.302C199.174 217.83 199.628 217.472 200.156 217.229C200.691 216.979 201.285 216.854 201.938 216.854C202.458 216.854 202.934 216.931 203.365 217.083C203.802 217.236 204.177 217.483 204.49 217.823C204.809 218.163 205.052 218.615 205.219 219.177C205.392 219.733 205.479 220.42 205.479 221.24V228.333H201.948V221.229C201.948 220.778 201.885 220.434 201.76 220.198C201.635 219.955 201.455 219.788 201.219 219.698C200.983 219.608 200.694 219.562 200.354 219.562C199.993 219.562 199.688 219.632 199.438 219.771C199.188 219.91 198.986 220.104 198.833 220.354C198.688 220.597 198.58 220.885 198.51 221.219C198.448 221.552 198.417 221.917 198.417 222.312ZM214.51 217.062H217.698V227.896C217.698 228.937 217.458 229.819 216.979 230.542C216.5 231.271 215.83 231.823 214.969 232.198C214.115 232.58 213.115 232.771 211.969 232.771C211.462 232.771 210.944 232.705 210.417 232.573C209.889 232.448 209.396 232.26 208.938 232.01C208.479 231.76 208.094 231.451 207.781 231.083L209.25 229.021C209.535 229.34 209.892 229.611 210.323 229.833C210.753 230.062 211.26 230.177 211.844 230.177C212.351 230.177 212.774 230.087 213.115 229.906C213.462 229.726 213.726 229.462 213.906 229.115C214.087 228.774 214.177 228.361 214.177 227.875V219.729L214.51 217.062ZM207.021 222.833V222.615C207.021 221.76 207.125 220.983 207.333 220.281C207.549 219.573 207.854 218.965 208.25 218.458C208.653 217.944 209.139 217.549 209.708 217.271C210.278 216.993 210.92 216.854 211.635 216.854C212.406 216.854 213.038 217.003 213.531 217.302C214.031 217.594 214.431 218.003 214.729 218.531C215.035 219.059 215.271 219.677 215.438 220.385C215.611 221.087 215.757 221.844 215.875 222.656V222.917C215.757 223.681 215.594 224.403 215.385 225.083C215.184 225.757 214.92 226.354 214.594 226.875C214.267 227.396 213.858 227.806 213.365 228.104C212.878 228.396 212.295 228.542 211.615 228.542C210.906 228.542 210.267 228.399 209.698 228.115C209.135 227.83 208.653 227.431 208.25 226.917C207.854 226.403 207.549 225.799 207.333 225.104C207.125 224.41 207.021 223.653 207.021 222.833ZM210.531 222.615V222.833C210.531 223.257 210.569 223.649 210.646 224.01C210.729 224.372 210.854 224.691 211.021 224.969C211.188 225.24 211.392 225.451 211.635 225.604C211.885 225.757 212.177 225.833 212.51 225.833C213.017 225.833 213.427 225.726 213.74 225.51C214.052 225.295 214.278 224.99 214.417 224.594C214.556 224.198 214.615 223.733 214.594 223.198V222.375C214.608 221.917 214.576 221.514 214.5 221.167C214.424 220.812 214.302 220.517 214.135 220.281C213.976 220.045 213.76 219.868 213.49 219.75C213.226 219.625 212.906 219.562 212.531 219.562C212.205 219.562 211.917 219.639 211.667 219.792C211.417 219.944 211.208 220.16 211.042 220.437C210.875 220.708 210.747 221.031 210.656 221.406C210.573 221.774 210.531 222.177 210.531 222.615ZM219.281 222.812V222.594C219.281 221.767 219.399 221.007 219.635 220.312C219.872 219.611 220.219 219.003 220.677 218.49C221.135 217.976 221.701 217.576 222.375 217.292C223.049 217 223.826 216.854 224.708 216.854C225.597 216.854 226.378 217 227.052 217.292C227.733 217.576 228.302 217.976 228.76 218.49C229.219 219.003 229.566 219.611 229.802 220.312C230.038 221.007 230.156 221.767 230.156 222.594V222.812C230.156 223.632 230.038 224.392 229.802 225.094C229.566 225.788 229.219 226.396 228.76 226.917C228.302 227.431 227.736 227.83 227.063 228.115C226.389 228.399 225.611 228.542 224.729 228.542C223.847 228.542 223.066 228.399 222.385 228.115C221.705 227.83 221.135 227.431 220.677 226.917C220.219 226.396 219.872 225.788 219.635 225.094C219.399 224.392 219.281 223.632 219.281 222.812ZM222.792 222.594V222.812C222.792 223.236 222.823 223.632 222.885 224C222.948 224.368 223.052 224.691 223.198 224.969C223.344 225.24 223.542 225.451 223.792 225.604C224.042 225.757 224.354 225.833 224.729 225.833C225.097 225.833 225.403 225.757 225.646 225.604C225.896 225.451 226.094 225.24 226.24 224.969C226.385 224.691 226.49 224.368 226.552 224C226.615 223.632 226.646 223.236 226.646 222.812V222.594C226.646 222.184 226.615 221.799 226.552 221.437C226.49 221.069 226.385 220.747 226.24 220.469C226.094 220.184 225.896 219.962 225.646 219.802C225.396 219.642 225.083 219.562 224.708 219.562C224.34 219.562 224.031 219.642 223.781 219.802C223.538 219.962 223.344 220.184 223.198 220.469C223.052 220.747 222.948 221.069 222.885 221.437C222.823 221.799 222.792 222.184 222.792 222.594ZM236.813 228.333H233.448L233.469 225.521H236.813C237.507 225.521 238.094 225.354 238.573 225.021C239.059 224.687 239.427 224.191 239.677 223.531C239.934 222.865 240.063 222.045 240.063 221.073V220.417C240.063 219.687 239.99 219.049 239.844 218.5C239.705 217.944 239.497 217.483 239.219 217.115C238.941 216.74 238.594 216.458 238.177 216.271C237.767 216.083 237.295 215.99 236.76 215.99H233.385V213.167H236.76C237.788 213.167 238.729 213.344 239.583 213.698C240.444 214.045 241.188 214.545 241.813 215.198C242.444 215.844 242.931 216.611 243.271 217.5C243.618 218.382 243.792 219.361 243.792 220.437V221.073C243.792 222.142 243.618 223.122 243.271 224.01C242.931 224.899 242.448 225.667 241.823 226.312C241.198 226.958 240.458 227.458 239.604 227.812C238.757 228.16 237.826 228.333 236.813 228.333ZM235.542 213.167V228.333H231.885V213.167H235.542ZM251.885 221.885H247.979L247.958 219.49H251.125C251.694 219.49 252.149 219.427 252.49 219.302C252.83 219.17 253.076 218.979 253.229 218.729C253.389 218.479 253.469 218.167 253.469 217.792C253.469 217.361 253.389 217.014 253.229 216.75C253.069 216.486 252.816 216.295 252.469 216.177C252.128 216.052 251.688 215.99 251.146 215.99H249.354V228.333H245.698V213.167H251.146C252.083 213.167 252.92 213.253 253.656 213.427C254.392 213.594 255.017 213.851 255.531 214.198C256.052 214.545 256.448 214.983 256.719 215.51C256.99 216.031 257.125 216.646 257.125 217.354C257.125 217.972 256.993 218.552 256.729 219.094C256.465 219.635 256.024 220.076 255.406 220.417C254.795 220.75 253.958 220.924 252.896 220.937L251.885 221.885ZM251.74 228.333H247.094L248.344 225.521H251.74C252.24 225.521 252.639 225.444 252.938 225.292C253.243 225.132 253.462 224.924 253.594 224.667C253.733 224.403 253.802 224.111 253.802 223.792C253.802 223.403 253.736 223.066 253.604 222.781C253.479 222.497 253.278 222.278 253 222.125C252.722 221.965 252.351 221.885 251.885 221.885H248.813L248.833 219.49H252.51L253.365 220.448C254.378 220.406 255.181 220.549 255.771 220.875C256.368 221.201 256.795 221.632 257.052 222.167C257.309 222.701 257.438 223.26 257.438 223.844C257.438 224.837 257.222 225.667 256.792 226.333C256.368 227 255.733 227.5 254.885 227.833C254.038 228.167 252.99 228.333 251.74 228.333Z" fill="white"/>
<path d="M339 201C339 198.423 341.089 196.333 343.667 196.333H542.333C544.911 196.333 547 198.423 547 201V241C547 243.577 544.911 245.667 542.333 245.667H343.667C341.089 245.667 339 243.577 339 241V201Z" fill="#888888" stroke="#888888" stroke-width="4"/>
<path d="M416.427 225.521V228.333H408.344V225.521H416.427ZM409.646 213.167V228.333H405.99V213.167H409.646ZM415.385 219.187V221.906H408.344V219.187H415.385ZM416.458 213.167V215.99H408.344V213.167H416.458ZM420.74 217.062L422.323 220.167L423.958 217.062H427.604L424.646 222.552L427.76 228.333H424.083L422.323 225L420.573 228.333H416.896L420.01 222.552L417.062 217.062H420.74ZM432.302 219.229V232.667H428.792V217.062H432.062L432.302 219.229ZM439.219 222.562V222.781C439.219 223.601 439.125 224.361 438.937 225.062C438.75 225.764 438.472 226.375 438.104 226.896C437.736 227.417 437.278 227.823 436.729 228.115C436.187 228.399 435.559 228.542 434.844 228.542C434.17 228.542 433.59 228.392 433.104 228.094C432.618 227.795 432.212 227.382 431.885 226.854C431.559 226.326 431.295 225.722 431.094 225.042C430.892 224.361 430.733 223.642 430.615 222.885V222.604C430.733 221.792 430.892 221.038 431.094 220.344C431.295 219.642 431.559 219.031 431.885 218.51C432.212 217.99 432.615 217.583 433.094 217.292C433.58 217 434.16 216.854 434.833 216.854C435.549 216.854 436.177 216.99 436.719 217.26C437.267 217.531 437.726 217.92 438.094 218.427C438.469 218.927 438.75 219.528 438.937 220.229C439.125 220.931 439.219 221.708 439.219 222.562ZM435.708 222.781V222.562C435.708 222.125 435.677 221.726 435.615 221.365C435.552 220.997 435.451 220.677 435.312 220.406C435.181 220.135 435.003 219.927 434.781 219.781C434.559 219.635 434.285 219.562 433.958 219.562C433.583 219.562 433.267 219.622 433.01 219.74C432.76 219.851 432.559 220.024 432.406 220.26C432.26 220.49 432.156 220.778 432.094 221.125C432.038 221.465 432.014 221.865 432.021 222.323V223.177C432.007 223.705 432.059 224.17 432.177 224.573C432.295 224.969 432.5 225.278 432.792 225.5C433.083 225.722 433.479 225.833 433.979 225.833C434.312 225.833 434.59 225.757 434.812 225.604C435.035 225.444 435.212 225.226 435.344 224.948C435.476 224.663 435.569 224.337 435.625 223.969C435.681 223.601 435.708 223.205 435.708 222.781ZM444.323 219.854V228.333H440.812V217.062H444.094L444.323 219.854ZM447.656 216.979L447.594 220.24C447.455 220.226 447.267 220.208 447.031 220.187C446.795 220.167 446.597 220.156 446.437 220.156C446.028 220.156 445.674 220.205 445.375 220.302C445.083 220.392 444.84 220.531 444.646 220.719C444.458 220.899 444.319 221.128 444.229 221.406C444.146 221.684 444.108 222.007 444.115 222.375L443.479 221.958C443.479 221.201 443.552 220.514 443.698 219.896C443.851 219.271 444.066 218.733 444.344 218.281C444.622 217.823 444.958 217.472 445.354 217.229C445.75 216.979 446.194 216.854 446.687 216.854C446.861 216.854 447.031 216.865 447.198 216.885C447.372 216.906 447.524 216.937 447.656 216.979ZM454.115 228.542C453.198 228.542 452.378 228.399 451.656 228.115C450.934 227.823 450.323 227.424 449.823 226.917C449.33 226.41 448.951 225.826 448.687 225.167C448.431 224.507 448.302 223.809 448.302 223.073V222.677C448.302 221.851 448.417 221.087 448.646 220.385C448.875 219.677 449.215 219.059 449.667 218.531C450.118 218.003 450.684 217.594 451.365 217.302C452.045 217.003 452.837 216.854 453.74 216.854C454.538 216.854 455.253 216.983 455.885 217.24C456.517 217.497 457.052 217.865 457.49 218.344C457.934 218.823 458.271 219.403 458.5 220.083C458.736 220.764 458.854 221.528 458.854 222.375V223.802H449.646V221.604H455.427V221.333C455.434 220.958 455.368 220.639 455.229 220.375C455.097 220.111 454.903 219.91 454.646 219.771C454.389 219.632 454.076 219.562 453.708 219.562C453.326 219.562 453.01 219.646 452.76 219.812C452.517 219.979 452.326 220.208 452.187 220.5C452.056 220.785 451.962 221.115 451.906 221.49C451.851 221.865 451.823 222.26 451.823 222.677V223.073C451.823 223.49 451.878 223.868 451.99 224.208C452.108 224.549 452.274 224.84 452.49 225.083C452.712 225.319 452.976 225.503 453.281 225.635C453.594 225.767 453.948 225.833 454.344 225.833C454.823 225.833 455.295 225.743 455.76 225.562C456.226 225.382 456.625 225.083 456.958 224.667L458.552 226.562C458.323 226.889 457.997 227.205 457.573 227.51C457.156 227.816 456.656 228.066 456.073 228.26C455.49 228.448 454.837 228.542 454.115 228.542ZM466.187 225.167C466.187 224.972 466.122 224.806 465.99 224.667C465.865 224.521 465.642 224.389 465.323 224.271C465.003 224.146 464.556 224.021 463.979 223.896C463.431 223.778 462.913 223.622 462.427 223.427C461.948 223.233 461.528 222.997 461.167 222.719C460.806 222.441 460.521 222.111 460.312 221.729C460.111 221.347 460.01 220.91 460.01 220.417C460.01 219.937 460.111 219.486 460.312 219.062C460.521 218.632 460.823 218.253 461.219 217.927C461.622 217.594 462.111 217.333 462.687 217.146C463.264 216.951 463.92 216.854 464.656 216.854C465.67 216.854 466.545 217.01 467.281 217.323C468.017 217.628 468.583 218.059 468.979 218.615C469.382 219.163 469.583 219.799 469.583 220.521H466.073C466.073 220.236 466.024 219.993 465.927 219.792C465.837 219.59 465.687 219.437 465.479 219.333C465.271 219.222 464.993 219.167 464.646 219.167C464.403 219.167 464.181 219.212 463.979 219.302C463.785 219.392 463.628 219.517 463.51 219.677C463.392 219.837 463.333 220.024 463.333 220.24C463.333 220.392 463.368 220.531 463.437 220.656C463.514 220.774 463.628 220.885 463.781 220.99C463.934 221.087 464.128 221.177 464.365 221.26C464.601 221.337 464.885 221.406 465.219 221.469C465.976 221.608 466.684 221.806 467.344 222.062C468.003 222.319 468.538 222.684 468.948 223.156C469.365 223.628 469.573 224.264 469.573 225.062C469.573 225.562 469.458 226.024 469.229 226.448C469 226.865 468.67 227.233 468.24 227.552C467.809 227.865 467.292 228.108 466.687 228.281C466.083 228.455 465.403 228.542 464.646 228.542C463.569 228.542 462.66 228.351 461.917 227.969C461.174 227.58 460.611 227.094 460.229 226.51C459.854 225.92 459.667 225.323 459.667 224.719H462.937C462.951 225.066 463.035 225.351 463.187 225.573C463.347 225.795 463.559 225.958 463.823 226.062C464.087 226.167 464.392 226.219 464.74 226.219C465.059 226.219 465.323 226.174 465.531 226.083C465.747 225.993 465.91 225.872 466.021 225.719C466.132 225.559 466.187 225.375 466.187 225.167ZM477.125 225.167C477.125 224.972 477.059 224.806 476.927 224.667C476.802 224.521 476.58 224.389 476.26 224.271C475.941 224.146 475.493 224.021 474.917 223.896C474.368 223.778 473.851 223.622 473.365 223.427C472.885 223.233 472.465 222.997 472.104 222.719C471.743 222.441 471.458 222.111 471.25 221.729C471.049 221.347 470.948 220.91 470.948 220.417C470.948 219.937 471.049 219.486 471.25 219.062C471.458 218.632 471.76 218.253 472.156 217.927C472.559 217.594 473.049 217.333 473.625 217.146C474.201 216.951 474.858 216.854 475.594 216.854C476.608 216.854 477.483 217.01 478.219 217.323C478.955 217.628 479.521 218.059 479.917 218.615C480.319 219.163 480.521 219.799 480.521 220.521H477.01C477.01 220.236 476.962 219.993 476.865 219.792C476.774 219.59 476.625 219.437 476.417 219.333C476.208 219.222 475.931 219.167 475.583 219.167C475.34 219.167 475.118 219.212 474.917 219.302C474.722 219.392 474.566 219.517 474.448 219.677C474.33 219.837 474.271 220.024 474.271 220.24C474.271 220.392 474.306 220.531 474.375 220.656C474.451 220.774 474.566 220.885 474.719 220.99C474.872 221.087 475.066 221.177 475.302 221.26C475.538 221.337 475.823 221.406 476.156 221.469C476.913 221.608 477.622 221.806 478.281 222.062C478.941 222.319 479.476 222.684 479.885 223.156C480.302 223.628 480.51 224.264 480.51 225.062C480.51 225.562 480.396 226.024 480.167 226.448C479.937 226.865 479.608 227.233 479.177 227.552C478.747 227.865 478.229 228.108 477.625 228.281C477.021 228.455 476.34 228.542 475.583 228.542C474.507 228.542 473.597 228.351 472.854 227.969C472.111 227.58 471.549 227.094 471.167 226.51C470.792 225.92 470.604 225.323 470.604 224.719H473.875C473.889 225.066 473.972 225.351 474.125 225.573C474.285 225.795 474.497 225.958 474.76 226.062C475.024 226.167 475.33 226.219 475.677 226.219C475.997 226.219 476.26 226.174 476.469 226.083C476.684 225.993 476.847 225.872 476.958 225.719C477.069 225.559 477.125 225.375 477.125 225.167Z" fill="white"/>
<rect x="571" y="196.333" width="208" height="49.3333" rx="4.66667" fill="#888888" stroke="#888888" stroke-width="4"/>
<path d="M648.5 213.167H654.469C655.635 213.167 656.649 213.34 657.51 213.687C658.372 214.035 659.035 214.549 659.5 215.229C659.972 215.91 660.208 216.75 660.208 217.75C660.208 218.618 660.073 219.344 659.802 219.927C659.531 220.51 659.153 220.993 658.667 221.375C658.188 221.75 657.628 222.059 656.99 222.302L655.792 222.979H650.781L650.76 220.156H654.469C654.934 220.156 655.319 220.073 655.625 219.906C655.931 219.74 656.16 219.503 656.313 219.198C656.472 218.885 656.552 218.514 656.552 218.083C656.552 217.646 656.472 217.271 656.313 216.958C656.153 216.646 655.917 216.406 655.604 216.24C655.299 216.073 654.92 215.99 654.469 215.99H652.156V228.333H648.5V213.167ZM656.802 228.333L653.448 221.625L657.323 221.604L660.719 228.177V228.333H656.802ZM667.708 228.542C666.792 228.542 665.972 228.399 665.25 228.115C664.528 227.823 663.917 227.424 663.417 226.917C662.924 226.41 662.545 225.826 662.281 225.167C662.024 224.507 661.896 223.809 661.896 223.073V222.677C661.896 221.851 662.01 221.087 662.24 220.385C662.469 219.677 662.809 219.059 663.26 218.531C663.712 218.003 664.278 217.594 664.958 217.302C665.639 217.003 666.431 216.854 667.333 216.854C668.132 216.854 668.847 216.983 669.479 217.24C670.111 217.497 670.646 217.865 671.083 218.344C671.528 218.823 671.865 219.403 672.094 220.083C672.33 220.764 672.448 221.528 672.448 222.375V223.802H663.24V221.604H669.021V221.333C669.028 220.958 668.962 220.639 668.823 220.375C668.691 220.111 668.497 219.91 668.24 219.771C667.983 219.632 667.67 219.562 667.302 219.562C666.92 219.562 666.604 219.646 666.354 219.812C666.111 219.979 665.92 220.208 665.781 220.5C665.649 220.785 665.556 221.115 665.5 221.49C665.444 221.865 665.417 222.26 665.417 222.677V223.073C665.417 223.49 665.472 223.868 665.583 224.208C665.701 224.549 665.868 224.84 666.083 225.083C666.306 225.319 666.569 225.503 666.875 225.635C667.187 225.767 667.542 225.833 667.937 225.833C668.417 225.833 668.889 225.743 669.354 225.562C669.819 225.382 670.219 225.083 670.552 224.667L672.146 226.562C671.917 226.889 671.59 227.205 671.167 227.51C670.75 227.816 670.25 228.066 669.667 228.26C669.083 228.448 668.431 228.542 667.708 228.542ZM679.729 225.5V220.854C679.729 220.535 679.684 220.26 679.594 220.031C679.503 219.802 679.361 219.625 679.167 219.5C678.972 219.368 678.712 219.302 678.385 219.302C678.122 219.302 677.896 219.347 677.708 219.437C677.521 219.528 677.378 219.663 677.281 219.844C677.184 220.024 677.135 220.253 677.135 220.531H673.625C673.625 220.01 673.74 219.528 673.969 219.083C674.205 218.632 674.538 218.24 674.969 217.906C675.406 217.573 675.927 217.316 676.531 217.135C677.142 216.948 677.823 216.854 678.573 216.854C679.469 216.854 680.267 217.003 680.969 217.302C681.677 217.601 682.236 218.049 682.646 218.646C683.056 219.236 683.26 219.979 683.26 220.875V225.49C683.26 226.226 683.302 226.785 683.385 227.167C683.469 227.542 683.587 227.872 683.74 228.156V228.333H680.219C680.052 227.986 679.927 227.562 679.844 227.062C679.767 226.556 679.729 226.035 679.729 225.5ZM680.156 221.448L680.177 223.323H678.625C678.299 223.323 678.021 223.368 677.792 223.458C677.569 223.549 677.389 223.674 677.25 223.833C677.118 223.986 677.021 224.16 676.958 224.354C676.903 224.549 676.875 224.753 676.875 224.969C676.875 225.177 676.924 225.365 677.021 225.531C677.125 225.691 677.264 225.816 677.438 225.906C677.611 225.997 677.806 226.042 678.021 226.042C678.41 226.042 678.74 225.969 679.01 225.823C679.288 225.67 679.5 225.486 679.646 225.271C679.792 225.056 679.865 224.854 679.865 224.667L680.635 226.104C680.497 226.382 680.337 226.663 680.156 226.948C679.983 227.233 679.764 227.497 679.5 227.74C679.243 227.976 678.927 228.17 678.552 228.323C678.177 228.469 677.722 228.542 677.188 228.542C676.493 228.542 675.854 228.399 675.271 228.115C674.694 227.83 674.233 227.434 673.885 226.927C673.538 226.413 673.365 225.823 673.365 225.156C673.365 224.573 673.469 224.052 673.677 223.594C673.892 223.135 674.215 222.747 674.646 222.427C675.076 222.108 675.625 221.865 676.292 221.698C676.958 221.531 677.743 221.448 678.646 221.448H680.156ZM689.969 225.833C690.295 225.833 690.573 225.774 690.802 225.656C691.038 225.531 691.215 225.358 691.333 225.135C691.458 224.906 691.517 224.632 691.51 224.312H694.813C694.819 225.16 694.611 225.903 694.188 226.542C693.771 227.174 693.201 227.667 692.479 228.021C691.764 228.368 690.955 228.542 690.052 228.542C689.17 228.542 688.399 228.399 687.74 228.115C687.08 227.823 686.528 227.42 686.083 226.906C685.646 226.385 685.316 225.778 685.094 225.083C684.878 224.389 684.771 223.635 684.771 222.823V222.583C684.771 221.771 684.878 221.017 685.094 220.323C685.316 219.622 685.646 219.014 686.083 218.5C686.528 217.979 687.076 217.576 687.729 217.292C688.389 217 689.156 216.854 690.031 216.854C690.969 216.854 691.795 217.031 692.51 217.385C693.233 217.74 693.799 218.253 694.208 218.927C694.618 219.601 694.819 220.417 694.813 221.375H691.51C691.517 221.035 691.465 220.729 691.354 220.458C691.243 220.187 691.069 219.972 690.833 219.812C690.604 219.646 690.309 219.562 689.948 219.562C689.587 219.562 689.295 219.642 689.073 219.802C688.851 219.962 688.681 220.184 688.563 220.469C688.451 220.747 688.375 221.066 688.333 221.427C688.299 221.788 688.281 222.174 688.281 222.583V222.823C688.281 223.24 688.299 223.632 688.333 224C688.375 224.361 688.455 224.681 688.573 224.958C688.691 225.229 688.861 225.444 689.083 225.604C689.306 225.757 689.601 225.833 689.969 225.833ZM702.25 217.062V219.5H695.458V217.062H702.25ZM696.885 214.26H700.396V224.656C700.396 224.955 700.431 225.187 700.5 225.354C700.569 225.514 700.688 225.628 700.854 225.698C701.028 225.76 701.257 225.792 701.542 225.792C701.743 225.792 701.91 225.788 702.042 225.781C702.174 225.767 702.299 225.75 702.417 225.729V228.24C702.118 228.337 701.806 228.41 701.479 228.458C701.153 228.514 700.806 228.542 700.438 228.542C699.688 228.542 699.045 228.424 698.51 228.187C697.983 227.951 697.58 227.58 697.302 227.073C697.024 226.566 696.885 225.906 696.885 225.094V214.26Z" fill="white"/>
<rect x="803" y="196.333" width="208" height="49.3333" rx="4.66667" fill="#888888" stroke="#888888" stroke-width="4"/>
<path d="M883.937 213.167V228.333H880.292L874.927 218.896V228.333H871.271V213.167H874.927L880.292 222.604V213.167H883.937ZM885.646 222.812V222.594C885.646 221.767 885.764 221.007 886 220.312C886.236 219.611 886.583 219.003 887.042 218.49C887.5 217.976 888.066 217.576 888.74 217.292C889.413 217 890.191 216.854 891.073 216.854C891.962 216.854 892.743 217 893.417 217.292C894.097 217.576 894.667 217.976 895.125 218.49C895.583 219.003 895.931 219.611 896.167 220.312C896.403 221.007 896.521 221.767 896.521 222.594V222.812C896.521 223.632 896.403 224.392 896.167 225.094C895.931 225.788 895.583 226.396 895.125 226.917C894.667 227.431 894.101 227.83 893.427 228.115C892.753 228.399 891.976 228.542 891.094 228.542C890.212 228.542 889.431 228.399 888.75 228.115C888.069 227.83 887.5 227.431 887.042 226.917C886.583 226.396 886.236 225.788 886 225.094C885.764 224.392 885.646 223.632 885.646 222.812ZM889.156 222.594V222.812C889.156 223.236 889.187 223.632 889.25 224C889.312 224.368 889.417 224.691 889.562 224.969C889.708 225.24 889.906 225.451 890.156 225.604C890.406 225.757 890.719 225.833 891.094 225.833C891.462 225.833 891.767 225.757 892.01 225.604C892.26 225.451 892.458 225.24 892.604 224.969C892.75 224.691 892.854 224.368 892.917 224C892.979 223.632 893.01 223.236 893.01 222.812V222.594C893.01 222.184 892.979 221.799 892.917 221.437C892.854 221.069 892.75 220.747 892.604 220.469C892.458 220.184 892.26 219.962 892.01 219.802C891.76 219.642 891.448 219.562 891.073 219.562C890.705 219.562 890.396 219.642 890.146 219.802C889.903 219.962 889.708 220.184 889.562 220.469C889.417 220.747 889.312 221.069 889.25 221.437C889.187 221.799 889.156 222.184 889.156 222.594ZM904.563 225.75V212.333H908.094V228.333H904.927L904.563 225.75ZM897.646 222.833V222.615C897.646 221.76 897.74 220.983 897.927 220.281C898.115 219.573 898.392 218.965 898.76 218.458C899.128 217.944 899.587 217.549 900.135 217.271C900.684 216.993 901.316 216.854 902.031 216.854C902.67 216.854 903.229 217.003 903.708 217.302C904.188 217.594 904.597 218.003 904.938 218.531C905.278 219.059 905.556 219.677 905.771 220.385C905.986 221.087 906.149 221.844 906.26 222.656V222.917C906.149 223.681 905.986 224.403 905.771 225.083C905.556 225.757 905.278 226.354 904.938 226.875C904.597 227.396 904.184 227.806 903.698 228.104C903.219 228.396 902.656 228.542 902.01 228.542C901.295 228.542 900.663 228.399 900.115 228.115C899.573 227.83 899.118 227.431 898.75 226.917C898.389 226.403 898.115 225.799 897.927 225.104C897.74 224.41 897.646 223.653 897.646 222.833ZM901.156 222.615V222.833C901.156 223.257 901.184 223.649 901.24 224.01C901.295 224.372 901.389 224.691 901.521 224.969C901.66 225.24 901.84 225.451 902.063 225.604C902.292 225.757 902.573 225.833 902.906 225.833C903.358 225.833 903.729 225.726 904.021 225.51C904.319 225.295 904.538 224.99 904.677 224.594C904.823 224.198 904.885 223.733 904.865 223.198V222.375C904.878 221.917 904.847 221.514 904.771 221.167C904.694 220.812 904.573 220.517 904.406 220.281C904.247 220.045 904.042 219.868 903.792 219.75C903.549 219.625 903.26 219.562 902.927 219.562C902.601 219.562 902.323 219.639 902.094 219.792C901.872 219.944 901.691 220.16 901.552 220.437C901.413 220.708 901.313 221.031 901.25 221.406C901.188 221.774 901.156 222.177 901.156 222.615ZM915.542 228.542C914.625 228.542 913.806 228.399 913.083 228.115C912.361 227.823 911.75 227.424 911.25 226.917C910.757 226.41 910.378 225.826 910.115 225.167C909.858 224.507 909.729 223.809 909.729 223.073V222.677C909.729 221.851 909.844 221.087 910.073 220.385C910.302 219.677 910.642 219.059 911.094 218.531C911.545 218.003 912.111 217.594 912.792 217.302C913.472 217.003 914.264 216.854 915.167 216.854C915.965 216.854 916.681 216.983 917.313 217.24C917.944 217.497 918.479 217.865 918.917 218.344C919.361 218.823 919.698 219.403 919.927 220.083C920.163 220.764 920.281 221.528 920.281 222.375V223.802H911.073V221.604H916.854V221.333C916.861 220.958 916.795 220.639 916.656 220.375C916.524 220.111 916.33 219.91 916.073 219.771C915.816 219.632 915.503 219.562 915.135 219.562C914.753 219.562 914.438 219.646 914.188 219.812C913.944 219.979 913.753 220.208 913.615 220.5C913.483 220.785 913.389 221.115 913.333 221.49C913.278 221.865 913.25 222.26 913.25 222.677V223.073C913.25 223.49 913.306 223.868 913.417 224.208C913.535 224.549 913.701 224.84 913.917 225.083C914.139 225.319 914.403 225.503 914.708 225.635C915.021 225.767 915.375 225.833 915.771 225.833C916.25 225.833 916.722 225.743 917.188 225.562C917.653 225.382 918.052 225.083 918.385 224.667L919.979 226.562C919.75 226.889 919.424 227.205 919 227.51C918.583 227.816 918.083 228.066 917.5 228.26C916.917 228.448 916.264 228.542 915.542 228.542ZM921.938 226.687C921.938 226.187 922.118 225.771 922.479 225.437C922.84 225.097 923.306 224.927 923.875 224.927C924.451 224.927 924.917 225.097 925.271 225.437C925.632 225.771 925.813 226.187 925.813 226.687C925.813 227.187 925.632 227.608 925.271 227.948C924.917 228.281 924.451 228.448 923.875 228.448C923.306 228.448 922.84 228.281 922.479 227.948C922.118 227.608 921.938 227.187 921.938 226.687ZM928.427 217.062H931.948V228.698C931.948 229.601 931.774 230.361 931.427 230.979C931.08 231.604 930.583 232.076 929.937 232.396C929.292 232.722 928.521 232.885 927.625 232.885C927.326 232.885 927.052 232.872 926.802 232.844C926.545 232.823 926.264 232.778 925.958 232.708V230.052C926.139 230.08 926.306 230.101 926.458 230.115C926.611 230.135 926.778 230.146 926.958 230.146C927.278 230.146 927.545 230.094 927.76 229.99C927.976 229.885 928.139 229.726 928.25 229.51C928.368 229.295 928.427 229.024 928.427 228.698V217.062ZM928.167 214.156C928.167 213.656 928.347 213.247 928.708 212.927C929.069 212.608 929.538 212.448 930.115 212.448C930.691 212.448 931.16 212.608 931.521 212.927C931.882 213.247 932.062 213.656 932.062 214.156C932.062 214.656 931.882 215.066 931.521 215.385C931.16 215.705 930.691 215.865 930.115 215.865C929.538 215.865 929.069 215.705 928.708 215.385C928.347 215.066 928.167 214.656 928.167 214.156ZM939.844 225.167C939.844 224.972 939.778 224.806 939.646 224.667C939.521 224.521 939.299 224.389 938.979 224.271C938.66 224.146 938.212 224.021 937.635 223.896C937.087 223.778 936.569 223.622 936.083 223.427C935.604 223.233 935.184 222.997 934.823 222.719C934.462 222.441 934.177 222.111 933.969 221.729C933.767 221.347 933.667 220.91 933.667 220.417C933.667 219.937 933.767 219.486 933.969 219.062C934.177 218.632 934.479 218.253 934.875 217.927C935.278 217.594 935.767 217.333 936.344 217.146C936.92 216.951 937.576 216.854 938.312 216.854C939.326 216.854 940.201 217.01 940.937 217.323C941.674 217.628 942.24 218.059 942.635 218.615C943.038 219.163 943.24 219.799 943.24 220.521H939.729C939.729 220.236 939.681 219.993 939.583 219.792C939.493 219.59 939.344 219.437 939.135 219.333C938.927 219.222 938.649 219.167 938.302 219.167C938.059 219.167 937.837 219.212 937.635 219.302C937.441 219.392 937.285 219.517 937.167 219.677C937.049 219.837 936.99 220.024 936.99 220.24C936.99 220.392 937.024 220.531 937.094 220.656C937.17 220.774 937.285 220.885 937.437 220.99C937.59 221.087 937.785 221.177 938.021 221.26C938.257 221.337 938.542 221.406 938.875 221.469C939.632 221.608 940.34 221.806 941 222.062C941.66 222.319 942.194 222.684 942.604 223.156C943.021 223.628 943.229 224.264 943.229 225.062C943.229 225.562 943.115 226.024 942.885 226.448C942.656 226.865 942.326 227.233 941.896 227.552C941.465 227.865 940.948 228.108 940.344 228.281C939.74 228.455 939.059 228.542 938.302 228.542C937.226 228.542 936.316 228.351 935.573 227.969C934.83 227.58 934.267 227.094 933.885 226.51C933.51 225.92 933.323 225.323 933.323 224.719H936.594C936.608 225.066 936.691 225.351 936.844 225.573C937.003 225.795 937.215 225.958 937.479 226.062C937.743 226.167 938.049 226.219 938.396 226.219C938.715 226.219 938.979 226.174 939.187 226.083C939.403 225.993 939.566 225.872 939.677 225.719C939.788 225.559 939.844 225.375 939.844 225.167Z" fill="white"/>
<rect x="1035" y="196.333" width="208" height="49.3333" rx="4.66667" fill="#888888" stroke="#888888" stroke-width="4"/>
<path d="M1118.77 213.167V228.333H1115.13L1109.76 218.896V228.333H1106.1V213.167H1109.76L1115.13 222.604V213.167H1118.77ZM1126.38 228.542C1125.46 228.542 1124.64 228.399 1123.92 228.115C1123.19 227.823 1122.58 227.424 1122.08 226.917C1121.59 226.41 1121.21 225.826 1120.95 225.167C1120.69 224.507 1120.56 223.809 1120.56 223.073V222.677C1120.56 221.851 1120.68 221.087 1120.91 220.385C1121.14 219.677 1121.48 219.059 1121.93 218.531C1122.38 218.003 1122.94 217.594 1123.63 217.302C1124.31 217.003 1125.1 216.854 1126 216.854C1126.8 216.854 1127.51 216.983 1128.15 217.24C1128.78 217.497 1129.31 217.865 1129.75 218.344C1130.19 218.823 1130.53 219.403 1130.76 220.083C1131 220.764 1131.11 221.528 1131.11 222.375V223.802H1121.91V221.604H1127.69V221.333C1127.69 220.958 1127.63 220.639 1127.49 220.375C1127.36 220.111 1127.16 219.91 1126.91 219.771C1126.65 219.632 1126.34 219.562 1125.97 219.562C1125.59 219.562 1125.27 219.646 1125.02 219.812C1124.78 219.979 1124.59 220.208 1124.45 220.5C1124.32 220.785 1124.22 221.115 1124.17 221.49C1124.11 221.865 1124.08 222.26 1124.08 222.677V223.073C1124.08 223.49 1124.14 223.868 1124.25 224.208C1124.37 224.549 1124.53 224.84 1124.75 225.083C1124.97 225.319 1125.24 225.503 1125.54 225.635C1125.85 225.767 1126.21 225.833 1126.6 225.833C1127.08 225.833 1127.56 225.743 1128.02 225.562C1128.49 225.382 1128.89 225.083 1129.22 224.667L1130.81 226.562C1130.58 226.889 1130.26 227.205 1129.83 227.51C1129.42 227.816 1128.92 228.066 1128.33 228.26C1127.75 228.448 1127.1 228.542 1126.38 228.542ZM1135.52 217.062L1137.1 220.167L1138.74 217.062H1142.39L1139.43 222.552L1142.54 228.333H1138.86L1137.1 225L1135.35 228.333H1131.68L1134.79 222.552L1131.84 217.062H1135.52ZM1149.48 217.062V219.5H1142.69V217.062H1149.48ZM1144.11 214.26H1147.63V224.656C1147.63 224.955 1147.66 225.187 1147.73 225.354C1147.8 225.514 1147.92 225.628 1148.08 225.698C1148.26 225.76 1148.49 225.792 1148.77 225.792C1148.97 225.792 1149.14 225.788 1149.27 225.781C1149.4 225.767 1149.53 225.75 1149.65 225.729V228.24C1149.35 228.337 1149.03 228.41 1148.71 228.458C1148.38 228.514 1148.03 228.542 1147.67 228.542C1146.92 228.542 1146.27 228.424 1145.74 228.187C1145.21 227.951 1144.81 227.58 1144.53 227.073C1144.25 226.566 1144.11 225.906 1144.11 225.094V214.26ZM1151.1 226.687C1151.1 226.187 1151.28 225.771 1151.65 225.437C1152.01 225.097 1152.47 224.927 1153.04 224.927C1153.62 224.927 1154.08 225.097 1154.44 225.437C1154.8 225.771 1154.98 226.187 1154.98 226.687C1154.98 227.187 1154.8 227.608 1154.44 227.948C1154.08 228.281 1153.62 228.448 1153.04 228.448C1152.47 228.448 1152.01 228.281 1151.65 227.948C1151.28 227.608 1151.1 227.187 1151.1 226.687ZM1157.59 217.062H1161.11V228.698C1161.11 229.601 1160.94 230.361 1160.59 230.979C1160.25 231.604 1159.75 232.076 1159.1 232.396C1158.46 232.722 1157.69 232.885 1156.79 232.885C1156.49 232.885 1156.22 232.872 1155.97 232.844C1155.71 232.823 1155.43 232.778 1155.13 232.708V230.052C1155.31 230.08 1155.47 230.101 1155.63 230.115C1155.78 230.135 1155.94 230.146 1156.13 230.146C1156.44 230.146 1156.71 230.094 1156.93 229.99C1157.14 229.885 1157.31 229.726 1157.42 229.51C1157.53 229.295 1157.59 229.024 1157.59 228.698V217.062ZM1157.33 214.156C1157.33 213.656 1157.51 213.247 1157.88 212.927C1158.24 212.608 1158.7 212.448 1159.28 212.448C1159.86 212.448 1160.33 212.608 1160.69 212.927C1161.05 213.247 1161.23 213.656 1161.23 214.156C1161.23 214.656 1161.05 215.066 1160.69 215.385C1160.33 215.705 1159.86 215.865 1159.28 215.865C1158.7 215.865 1158.24 215.705 1157.88 215.385C1157.51 215.066 1157.33 214.656 1157.33 214.156ZM1169.01 225.167C1169.01 224.972 1168.94 224.806 1168.81 224.667C1168.69 224.521 1168.47 224.389 1168.15 224.271C1167.83 224.146 1167.38 224.021 1166.8 223.896C1166.25 223.778 1165.74 223.622 1165.25 223.427C1164.77 223.233 1164.35 222.997 1163.99 222.719C1163.63 222.441 1163.34 222.111 1163.14 221.729C1162.93 221.347 1162.83 220.91 1162.83 220.417C1162.83 219.937 1162.93 219.486 1163.14 219.062C1163.34 218.632 1163.65 218.253 1164.04 217.927C1164.44 217.594 1164.93 217.333 1165.51 217.146C1166.09 216.951 1166.74 216.854 1167.48 216.854C1168.49 216.854 1169.37 217.01 1170.1 217.323C1170.84 217.628 1171.41 218.059 1171.8 218.615C1172.2 219.163 1172.41 219.799 1172.41 220.521H1168.9C1168.9 220.236 1168.85 219.993 1168.75 219.792C1168.66 219.59 1168.51 219.437 1168.3 219.333C1168.09 219.222 1167.82 219.167 1167.47 219.167C1167.23 219.167 1167 219.212 1166.8 219.302C1166.61 219.392 1166.45 219.517 1166.33 219.677C1166.22 219.837 1166.16 220.024 1166.16 220.24C1166.16 220.392 1166.19 220.531 1166.26 220.656C1166.34 220.774 1166.45 220.885 1166.6 220.99C1166.76 221.087 1166.95 221.177 1167.19 221.26C1167.42 221.337 1167.71 221.406 1168.04 221.469C1168.8 221.608 1169.51 221.806 1170.17 222.062C1170.83 222.319 1171.36 222.684 1171.77 223.156C1172.19 223.628 1172.4 224.264 1172.4 225.062C1172.4 225.562 1172.28 226.024 1172.05 226.448C1171.82 226.865 1171.49 227.233 1171.06 227.552C1170.63 227.865 1170.11 228.108 1169.51 228.281C1168.91 228.455 1168.23 228.542 1167.47 228.542C1166.39 228.542 1165.48 228.351 1164.74 227.969C1164 227.58 1163.43 227.094 1163.05 226.51C1162.68 225.92 1162.49 225.323 1162.49 224.719H1165.76C1165.77 225.066 1165.86 225.351 1166.01 225.573C1166.17 225.795 1166.38 225.958 1166.65 226.062C1166.91 226.167 1167.22 226.219 1167.56 226.219C1167.88 226.219 1168.15 226.174 1168.35 226.083C1168.57 225.993 1168.73 225.872 1168.84 225.719C1168.95 225.559 1169.01 225.375 1169.01 225.167Z" fill="white"/>
</svg>
