<svg width="1363" height="167" viewBox="0 0 1363 167" fill="none" xmlns="http://www.w3.org/2000/svg">
<rect width="1363" height="167" rx="15" fill="#F0F0F0"/>
<path d="M0 15C0 6.71573 6.71573 0 15 0H37V167H15C6.71573 167 0 160.284 0 152V15Z" fill="#424241"/>
<path d="M100.906 50.9219L93.3945 48.2383V45.0859L103.602 49.375V51.6367L100.906 50.9219ZM93.3945 53.1719L100.918 50.4297L103.602 49.7852V52.0352L93.3945 56.3242V53.1719ZM121.789 52.3398H125.293C125.223 53.4883 124.906 54.5078 124.344 55.3984C123.789 56.2891 123.012 56.9844 122.012 57.4844C121.02 57.9844 119.824 58.2344 118.426 58.2344C117.332 58.2344 116.352 58.0469 115.484 57.6719C114.617 57.2891 113.875 56.7422 113.258 56.0312C112.648 55.3203 112.184 54.4609 111.863 53.4531C111.543 52.4453 111.383 51.3164 111.383 50.0664V48.8828C111.383 47.6328 111.547 46.5039 111.875 45.4961C112.211 44.4805 112.688 43.6172 113.305 42.9062C113.93 42.1953 114.676 41.6484 115.543 41.2656C116.41 40.8828 117.379 40.6914 118.449 40.6914C119.871 40.6914 121.07 40.9492 122.047 41.4648C123.031 41.9805 123.793 42.6914 124.332 43.5977C124.879 44.5039 125.207 45.5352 125.316 46.6914H121.801C121.762 46.0039 121.625 45.4219 121.391 44.9453C121.156 44.4609 120.801 44.0977 120.324 43.8555C119.855 43.6055 119.23 43.4805 118.449 43.4805C117.863 43.4805 117.352 43.5898 116.914 43.8086C116.477 44.0273 116.109 44.3594 115.812 44.8047C115.516 45.25 115.293 45.8125 115.145 46.4922C115.004 47.1641 114.934 47.9531 114.934 48.8594V50.0664C114.934 50.9492 115 51.7266 115.133 52.3984C115.266 53.0625 115.469 53.625 115.742 54.0859C116.023 54.5391 116.383 54.8828 116.82 55.1172C117.266 55.3438 117.801 55.457 118.426 55.457C119.16 55.457 119.766 55.3398 120.242 55.1055C120.719 54.8711 121.082 54.5234 121.332 54.0625C121.59 53.6016 121.742 53.0273 121.789 52.3398ZM130.953 40V58H127.566V40H130.953ZM133.203 51.7891V51.543C133.203 50.6133 133.336 49.7578 133.602 48.9766C133.867 48.1875 134.254 47.5039 134.762 46.9258C135.27 46.3477 135.895 45.8984 136.637 45.5781C137.379 45.25 138.23 45.0859 139.191 45.0859C140.152 45.0859 141.008 45.25 141.758 45.5781C142.508 45.8984 143.137 46.3477 143.645 46.9258C144.16 47.5039 144.551 48.1875 144.816 48.9766C145.082 49.7578 145.215 50.6133 145.215 51.543V51.7891C145.215 52.7109 145.082 53.5664 144.816 54.3555C144.551 55.1367 144.16 55.8203 143.645 56.4062C143.137 56.9844 142.512 57.4336 141.77 57.7539C141.027 58.0742 140.176 58.2344 139.215 58.2344C138.254 58.2344 137.398 58.0742 136.648 57.7539C135.906 57.4336 135.277 56.9844 134.762 56.4062C134.254 55.8203 133.867 55.1367 133.602 54.3555C133.336 53.5664 133.203 52.7109 133.203 51.7891ZM136.578 51.543V51.7891C136.578 52.3203 136.625 52.8164 136.719 53.2773C136.812 53.7383 136.961 54.1445 137.164 54.4961C137.375 54.8398 137.648 55.1094 137.984 55.3047C138.32 55.5 138.73 55.5977 139.215 55.5977C139.684 55.5977 140.086 55.5 140.422 55.3047C140.758 55.1094 141.027 54.8398 141.23 54.4961C141.434 54.1445 141.582 53.7383 141.676 53.2773C141.777 52.8164 141.828 52.3203 141.828 51.7891V51.543C141.828 51.0273 141.777 50.543 141.676 50.0898C141.582 49.6289 141.43 49.2227 141.219 48.8711C141.016 48.5117 140.746 48.2305 140.41 48.0273C140.074 47.8242 139.668 47.7227 139.191 47.7227C138.715 47.7227 138.309 47.8242 137.973 48.0273C137.645 48.2305 137.375 48.5117 137.164 48.8711C136.961 49.2227 136.812 49.6289 136.719 50.0898C136.625 50.543 136.578 51.0273 136.578 51.543ZM154.789 54.9648V45.3203H158.164V58H154.988L154.789 54.9648ZM155.164 52.3633L156.16 52.3398C156.16 53.1836 156.062 53.9688 155.867 54.6953C155.672 55.4141 155.379 56.0391 154.988 56.5703C154.598 57.0938 154.105 57.5039 153.512 57.8008C152.918 58.0898 152.219 58.2344 151.414 58.2344C150.797 58.2344 150.227 58.1484 149.703 57.9766C149.188 57.7969 148.742 57.5195 148.367 57.1445C148 56.7617 147.711 56.2734 147.5 55.6797C147.297 55.0781 147.195 54.3555 147.195 53.5117V45.3203H150.57V53.5352C150.57 53.9102 150.613 54.2266 150.699 54.4844C150.793 54.7422 150.922 54.9531 151.086 55.1172C151.25 55.2812 151.441 55.3984 151.66 55.4688C151.887 55.5391 152.137 55.5742 152.41 55.5742C153.105 55.5742 153.652 55.4336 154.051 55.1523C154.457 54.8711 154.742 54.4883 154.906 54.0039C155.078 53.5117 155.164 52.9648 155.164 52.3633ZM168.23 55.2344V40H171.629V58H168.57L168.23 55.2344ZM160.215 51.8125V51.5664C160.215 50.5977 160.324 49.7188 160.543 48.9297C160.762 48.1328 161.082 47.4492 161.504 46.8789C161.926 46.3086 162.445 45.8672 163.062 45.5547C163.68 45.2422 164.383 45.0859 165.172 45.0859C165.914 45.0859 166.562 45.2422 167.117 45.5547C167.68 45.8672 168.156 46.3125 168.547 46.8906C168.945 47.4609 169.266 48.1367 169.508 48.918C169.75 49.6914 169.926 50.5391 170.035 51.4609V52C169.926 52.8828 169.75 53.7031 169.508 54.4609C169.266 55.2188 168.945 55.8828 168.547 56.4531C168.156 57.0156 167.68 57.4531 167.117 57.7656C166.555 58.0781 165.898 58.2344 165.148 58.2344C164.359 58.2344 163.656 58.0742 163.039 57.7539C162.43 57.4336 161.914 56.9844 161.492 56.4062C161.078 55.8281 160.762 55.1484 160.543 54.3672C160.324 53.5859 160.215 52.7344 160.215 51.8125ZM163.59 51.5664V51.8125C163.59 52.3359 163.629 52.8242 163.707 53.2773C163.793 53.7305 163.93 54.1328 164.117 54.4844C164.312 54.8281 164.562 55.0977 164.867 55.293C165.18 55.4805 165.559 55.5742 166.004 55.5742C166.582 55.5742 167.059 55.4453 167.434 55.1875C167.809 54.9219 168.094 54.5586 168.289 54.0977C168.492 53.6367 168.609 53.1055 168.641 52.5039V50.9688C168.617 50.4766 168.547 50.0352 168.43 49.6445C168.32 49.2461 168.156 48.9062 167.938 48.625C167.727 48.3438 167.461 48.125 167.141 47.9688C166.828 47.8125 166.457 47.7344 166.027 47.7344C165.59 47.7344 165.215 47.8359 164.902 48.0391C164.59 48.2344 164.336 48.5039 164.141 48.8477C163.953 49.1914 163.812 49.5977 163.719 50.0664C163.633 50.5273 163.59 51.0273 163.59 51.5664ZM189.336 53.5352C189.336 53.2305 189.289 52.957 189.195 52.7148C189.109 52.4648 188.945 52.2383 188.703 52.0352C188.461 51.8242 188.121 51.6172 187.684 51.4141C187.246 51.2109 186.68 51 185.984 50.7812C185.211 50.5312 184.477 50.25 183.781 49.9375C183.094 49.625 182.484 49.2617 181.953 48.8477C181.43 48.4258 181.016 47.9375 180.711 47.3828C180.414 46.8281 180.266 46.1836 180.266 45.4492C180.266 44.7383 180.422 44.0938 180.734 43.5156C181.047 42.9297 181.484 42.4297 182.047 42.0156C182.609 41.5938 183.273 41.2695 184.039 41.043C184.812 40.8164 185.66 40.7031 186.582 40.7031C187.84 40.7031 188.938 40.9297 189.875 41.3828C190.812 41.8359 191.539 42.457 192.055 43.2461C192.578 44.0352 192.84 44.9375 192.84 45.9531H189.348C189.348 45.4531 189.242 45.0156 189.031 44.6406C188.828 44.2578 188.516 43.957 188.094 43.7383C187.68 43.5195 187.156 43.4102 186.523 43.4102C185.914 43.4102 185.406 43.5039 185 43.6914C184.594 43.8711 184.289 44.1172 184.086 44.4297C183.883 44.7344 183.781 45.0781 183.781 45.4609C183.781 45.75 183.852 46.0117 183.992 46.2461C184.141 46.4805 184.359 46.6992 184.648 46.9023C184.938 47.1055 185.293 47.2969 185.715 47.4766C186.137 47.6562 186.625 47.832 187.18 48.0039C188.109 48.2852 188.926 48.6016 189.629 48.9531C190.34 49.3047 190.934 49.6992 191.41 50.1367C191.887 50.5742 192.246 51.0703 192.488 51.625C192.73 52.1797 192.852 52.8086 192.852 53.5117C192.852 54.2539 192.707 54.918 192.418 55.5039C192.129 56.0898 191.711 56.5859 191.164 56.9922C190.617 57.3984 189.965 57.707 189.207 57.918C188.449 58.1289 187.602 58.2344 186.664 58.2344C185.82 58.2344 184.988 58.125 184.168 57.9062C183.348 57.6797 182.602 57.3398 181.93 56.8867C181.266 56.4336 180.734 55.8555 180.336 55.1523C179.938 54.4492 179.738 53.6172 179.738 52.6562H183.266C183.266 53.1875 183.348 53.6367 183.512 54.0039C183.676 54.3711 183.906 54.668 184.203 54.8945C184.508 55.1211 184.867 55.2852 185.281 55.3867C185.703 55.4883 186.164 55.5391 186.664 55.5391C187.273 55.5391 187.773 55.4531 188.164 55.2812C188.562 55.1094 188.855 54.8711 189.043 54.5664C189.238 54.2617 189.336 53.918 189.336 53.5352ZM198.406 39.9883V58H195.031V39.9883H198.406ZM206.398 45.3203L200.891 51.6016L197.938 54.5898L196.707 52.1523L199.051 49.1758L202.344 45.3203H206.398ZM202.895 58L199.145 52.1406L201.477 50.1016L206.785 58H202.895ZM211.414 45.3203V58H208.027V45.3203H211.414ZM207.816 42.0156C207.816 41.5234 207.988 41.1172 208.332 40.7969C208.676 40.4766 209.137 40.3164 209.715 40.3164C210.285 40.3164 210.742 40.4766 211.086 40.7969C211.438 41.1172 211.613 41.5234 211.613 42.0156C211.613 42.5078 211.438 42.9141 211.086 43.2344C210.742 43.5547 210.285 43.7148 209.715 43.7148C209.137 43.7148 208.676 43.5547 208.332 43.2344C207.988 42.9141 207.816 42.5078 207.816 42.0156ZM217.766 40V58H214.379V40H217.766ZM224.117 40V58H220.73V40H224.117ZM233.762 54.4961C233.762 54.2539 233.691 54.0352 233.551 53.8398C233.41 53.6445 233.148 53.4648 232.766 53.3008C232.391 53.1289 231.848 52.9727 231.137 52.832C230.496 52.6914 229.898 52.5156 229.344 52.3047C228.797 52.0859 228.32 51.8242 227.914 51.5195C227.516 51.2148 227.203 50.8555 226.977 50.4414C226.75 50.0195 226.637 49.5391 226.637 49C226.637 48.4688 226.75 47.9688 226.977 47.5C227.211 47.0312 227.543 46.6172 227.973 46.2578C228.41 45.8906 228.941 45.6055 229.566 45.4023C230.199 45.1914 230.91 45.0859 231.699 45.0859C232.801 45.0859 233.746 45.2617 234.535 45.6133C235.332 45.9648 235.941 46.4492 236.363 47.0664C236.793 47.6758 237.008 48.3711 237.008 49.1523H233.633C233.633 48.8242 233.562 48.5312 233.422 48.2734C233.289 48.0078 233.078 47.8008 232.789 47.6523C232.508 47.4961 232.141 47.418 231.688 47.418C231.312 47.418 230.988 47.4844 230.715 47.6172C230.441 47.7422 230.23 47.9141 230.082 48.1328C229.941 48.3438 229.871 48.5781 229.871 48.8359C229.871 49.0312 229.91 49.207 229.988 49.3633C230.074 49.5117 230.211 49.6484 230.398 49.7734C230.586 49.8984 230.828 50.0156 231.125 50.125C231.43 50.2266 231.805 50.3203 232.25 50.4062C233.164 50.5938 233.98 50.8398 234.699 51.1445C235.418 51.4414 235.988 51.8477 236.41 52.3633C236.832 52.8711 237.043 53.5391 237.043 54.3672C237.043 54.9297 236.918 55.4453 236.668 55.9141C236.418 56.3828 236.059 56.793 235.59 57.1445C235.121 57.4883 234.559 57.7578 233.902 57.9531C233.254 58.1406 232.523 58.2344 231.711 58.2344C230.531 58.2344 229.531 58.0234 228.711 57.6016C227.898 57.1797 227.281 56.6445 226.859 55.9961C226.445 55.3398 226.238 54.668 226.238 53.9805H229.438C229.453 54.4414 229.57 54.8125 229.789 55.0938C230.016 55.375 230.301 55.5781 230.645 55.7031C230.996 55.8281 231.375 55.8906 231.781 55.8906C232.219 55.8906 232.582 55.832 232.871 55.7148C233.16 55.5898 233.379 55.4258 233.527 55.2227C233.684 55.0117 233.762 54.7695 233.762 54.4961ZM252.102 50.5117H247.719L247.695 48.0977H251.375C252.023 48.0977 252.555 48.0156 252.969 47.8516C253.383 47.6797 253.691 47.4336 253.895 47.1133C254.105 46.7852 254.211 46.3867 254.211 45.918C254.211 45.3867 254.109 44.957 253.906 44.6289C253.711 44.3008 253.402 44.0625 252.98 43.9141C252.566 43.7656 252.031 43.6914 251.375 43.6914H248.938V58H245.422V40.9375H251.375C252.367 40.9375 253.254 41.0312 254.035 41.2188C254.824 41.4062 255.492 41.6914 256.039 42.0742C256.586 42.457 257.004 42.9414 257.293 43.5273C257.582 44.1055 257.727 44.793 257.727 45.5898C257.727 46.293 257.566 46.9414 257.246 47.5352C256.934 48.1289 256.438 48.6133 255.758 48.9883C255.086 49.3633 254.207 49.5703 253.121 49.6094L252.102 50.5117ZM251.949 58H246.758L248.129 55.2578H251.949C252.566 55.2578 253.07 55.1602 253.461 54.9648C253.852 54.7617 254.141 54.4883 254.328 54.1445C254.516 53.8008 254.609 53.4062 254.609 52.9609C254.609 52.4609 254.523 52.0273 254.352 51.6602C254.188 51.293 253.922 51.0117 253.555 50.8164C253.188 50.6133 252.703 50.5117 252.102 50.5117H248.715L248.738 48.0977H252.957L253.766 49.0469C254.805 49.0312 255.641 49.2148 256.273 49.5977C256.914 49.9727 257.379 50.4609 257.668 51.0625C257.965 51.6641 258.113 52.3086 258.113 52.9961C258.113 54.0898 257.875 55.0117 257.398 55.7617C256.922 56.5039 256.223 57.0625 255.301 57.4375C254.387 57.8125 253.27 58 251.949 58ZM268.039 54.9648V45.3203H271.414V58H268.238L268.039 54.9648ZM268.414 52.3633L269.41 52.3398C269.41 53.1836 269.312 53.9688 269.117 54.6953C268.922 55.4141 268.629 56.0391 268.238 56.5703C267.848 57.0938 267.355 57.5039 266.762 57.8008C266.168 58.0898 265.469 58.2344 264.664 58.2344C264.047 58.2344 263.477 58.1484 262.953 57.9766C262.438 57.7969 261.992 57.5195 261.617 57.1445C261.25 56.7617 260.961 56.2734 260.75 55.6797C260.547 55.0781 260.445 54.3555 260.445 53.5117V45.3203H263.82V53.5352C263.82 53.9102 263.863 54.2266 263.949 54.4844C264.043 54.7422 264.172 54.9531 264.336 55.1172C264.5 55.2812 264.691 55.3984 264.91 55.4688C265.137 55.5391 265.387 55.5742 265.66 55.5742C266.355 55.5742 266.902 55.4336 267.301 55.1523C267.707 54.8711 267.992 54.4883 268.156 54.0039C268.328 53.5117 268.414 52.9648 268.414 52.3633ZM277.555 45.3203V58H274.168V45.3203H277.555ZM273.957 42.0156C273.957 41.5234 274.129 41.1172 274.473 40.7969C274.816 40.4766 275.277 40.3164 275.855 40.3164C276.426 40.3164 276.883 40.4766 277.227 40.7969C277.578 41.1172 277.754 41.5234 277.754 42.0156C277.754 42.5078 277.578 42.9141 277.227 43.2344C276.883 43.5547 276.426 43.7148 275.855 43.7148C275.277 43.7148 274.816 43.5547 274.473 43.2344C274.129 42.9141 273.957 42.5078 273.957 42.0156ZM283.906 40V58H280.52V40H283.906ZM294.184 55.2344V40H297.582V58H294.523L294.184 55.2344ZM286.168 51.8125V51.5664C286.168 50.5977 286.277 49.7188 286.496 48.9297C286.715 48.1328 287.035 47.4492 287.457 46.8789C287.879 46.3086 288.398 45.8672 289.016 45.5547C289.633 45.2422 290.336 45.0859 291.125 45.0859C291.867 45.0859 292.516 45.2422 293.07 45.5547C293.633 45.8672 294.109 46.3125 294.5 46.8906C294.898 47.4609 295.219 48.1367 295.461 48.918C295.703 49.6914 295.879 50.5391 295.988 51.4609V52C295.879 52.8828 295.703 53.7031 295.461 54.4609C295.219 55.2188 294.898 55.8828 294.5 56.4531C294.109 57.0156 293.633 57.4531 293.07 57.7656C292.508 58.0781 291.852 58.2344 291.102 58.2344C290.312 58.2344 289.609 58.0742 288.992 57.7539C288.383 57.4336 287.867 56.9844 287.445 56.4062C287.031 55.8281 286.715 55.1484 286.496 54.3672C286.277 53.5859 286.168 52.7344 286.168 51.8125ZM289.543 51.5664V51.8125C289.543 52.3359 289.582 52.8242 289.66 53.2773C289.746 53.7305 289.883 54.1328 290.07 54.4844C290.266 54.8281 290.516 55.0977 290.82 55.293C291.133 55.4805 291.512 55.5742 291.957 55.5742C292.535 55.5742 293.012 55.4453 293.387 55.1875C293.762 54.9219 294.047 54.5586 294.242 54.0977C294.445 53.6367 294.562 53.1055 294.594 52.5039V50.9688C294.57 50.4766 294.5 50.0352 294.383 49.6445C294.273 49.2461 294.109 48.9062 293.891 48.625C293.68 48.3438 293.414 48.125 293.094 47.9688C292.781 47.8125 292.41 47.7344 291.98 47.7344C291.543 47.7344 291.168 47.8359 290.855 48.0391C290.543 48.2344 290.289 48.5039 290.094 48.8477C289.906 49.1914 289.766 49.5977 289.672 50.0664C289.586 50.5273 289.543 51.0273 289.543 51.5664ZM306.055 58.2344C305.07 58.2344 304.188 58.0781 303.406 57.7656C302.625 57.4453 301.961 57.0039 301.414 56.4414C300.875 55.8789 300.461 55.2266 300.172 54.4844C299.883 53.7344 299.738 52.9375 299.738 52.0938V51.625C299.738 50.6641 299.875 49.7852 300.148 48.9883C300.422 48.1914 300.812 47.5 301.32 46.9141C301.836 46.3281 302.461 45.8789 303.195 45.5664C303.93 45.2461 304.758 45.0859 305.68 45.0859C306.578 45.0859 307.375 45.2344 308.07 45.5312C308.766 45.8281 309.348 46.25 309.816 46.7969C310.293 47.3438 310.652 48 310.895 48.7656C311.137 49.5234 311.258 50.3672 311.258 51.2969V52.7031H301.18V50.4531H307.941V50.1953C307.941 49.7266 307.855 49.3086 307.684 48.9414C307.52 48.5664 307.27 48.2695 306.934 48.0508C306.598 47.832 306.168 47.7227 305.645 47.7227C305.199 47.7227 304.816 47.8203 304.496 48.0156C304.176 48.2109 303.914 48.4844 303.711 48.8359C303.516 49.1875 303.367 49.6016 303.266 50.0781C303.172 50.5469 303.125 51.0625 303.125 51.625V52.0938C303.125 52.6016 303.195 53.0703 303.336 53.5C303.484 53.9297 303.691 54.3008 303.957 54.6133C304.23 54.9258 304.559 55.168 304.941 55.3398C305.332 55.5117 305.773 55.5977 306.266 55.5977C306.875 55.5977 307.441 55.4805 307.965 55.2461C308.496 55.0039 308.953 54.6406 309.336 54.1562L310.977 55.9375C310.711 56.3203 310.348 56.6875 309.887 57.0391C309.434 57.3906 308.887 57.6797 308.246 57.9062C307.605 58.125 306.875 58.2344 306.055 58.2344ZM316.555 48.0859V58H313.18V45.3203H316.355L316.555 48.0859ZM320.375 45.2383L320.316 48.3672C320.152 48.3438 319.953 48.3242 319.719 48.3086C319.492 48.2852 319.285 48.2734 319.098 48.2734C318.621 48.2734 318.207 48.3359 317.855 48.4609C317.512 48.5781 317.223 48.7539 316.988 48.9883C316.762 49.2227 316.59 49.5078 316.473 49.8438C316.363 50.1797 316.301 50.5625 316.285 50.9922L315.605 50.7812C315.605 49.9609 315.688 49.207 315.852 48.5195C316.016 47.8242 316.254 47.2188 316.566 46.7031C316.887 46.1875 317.277 45.7891 317.738 45.5078C318.199 45.2266 318.727 45.0859 319.32 45.0859C319.508 45.0859 319.699 45.1016 319.895 45.1328C320.09 45.1562 320.25 45.1914 320.375 45.2383Z" fill="#888888"/>
<path d="M107.205 107.146H99.251V101.191H107.205C108.289 101.191 109.168 101.008 109.842 100.642C110.516 100.275 111.006 99.77 111.314 99.1255C111.636 98.4663 111.797 97.7266 111.797 96.9062C111.797 96.0273 111.636 95.2144 111.314 94.4673C111.006 93.7202 110.516 93.1196 109.842 92.6655C109.168 92.1968 108.289 91.9624 107.205 91.9624H102.151V118H94.439V86.0078H107.205C109.769 86.0078 111.973 86.4766 113.819 87.4141C115.679 88.3516 117.107 89.6406 118.104 91.2812C119.1 92.9072 119.598 94.7676 119.598 96.8623C119.598 98.9277 119.1 100.729 118.104 102.268C117.107 103.806 115.679 105.007 113.819 105.871C111.973 106.721 109.769 107.146 107.205 107.146ZM130.87 100.114V118H123.465V94.2256H130.386L130.87 100.114ZM137.901 94.0498L137.769 100.927C137.476 100.898 137.081 100.861 136.583 100.817C136.084 100.773 135.667 100.751 135.33 100.751C134.466 100.751 133.719 100.854 133.089 101.059C132.474 101.25 131.961 101.542 131.551 101.938C131.155 102.319 130.862 102.802 130.672 103.388C130.496 103.974 130.416 104.655 130.43 105.432L129.09 104.553C129.09 102.956 129.244 101.506 129.551 100.202C129.874 98.8838 130.328 97.7485 130.914 96.7964C131.5 95.8296 132.21 95.0898 133.045 94.5771C133.88 94.0498 134.817 93.7861 135.857 93.7861C136.224 93.7861 136.583 93.8081 136.934 93.8521C137.3 93.896 137.623 93.9619 137.901 94.0498ZM138.736 106.354V105.893C138.736 104.15 138.985 102.546 139.483 101.081C139.981 99.6016 140.713 98.3198 141.68 97.2358C142.647 96.1519 143.841 95.3096 145.262 94.709C146.683 94.0938 148.323 93.7861 150.184 93.7861C152.059 93.7861 153.707 94.0938 155.127 94.709C156.563 95.3096 157.764 96.1519 158.731 97.2358C159.698 98.3198 160.43 99.6016 160.928 101.081C161.426 102.546 161.675 104.15 161.675 105.893V106.354C161.675 108.083 161.426 109.687 160.928 111.167C160.43 112.631 159.698 113.913 158.731 115.012C157.764 116.096 156.57 116.938 155.149 117.539C153.729 118.139 152.088 118.439 150.228 118.439C148.367 118.439 146.719 118.139 145.284 117.539C143.848 116.938 142.647 116.096 141.68 115.012C140.713 113.913 139.981 112.631 139.483 111.167C138.985 109.687 138.736 108.083 138.736 106.354ZM146.141 105.893V106.354C146.141 107.248 146.207 108.083 146.338 108.859C146.47 109.636 146.69 110.317 146.998 110.903C147.305 111.474 147.723 111.921 148.25 112.243C148.777 112.565 149.437 112.727 150.228 112.727C151.004 112.727 151.648 112.565 152.161 112.243C152.688 111.921 153.106 111.474 153.414 110.903C153.721 110.317 153.941 109.636 154.073 108.859C154.205 108.083 154.271 107.248 154.271 106.354V105.893C154.271 105.029 154.205 104.216 154.073 103.454C153.941 102.678 153.721 101.997 153.414 101.411C153.106 100.81 152.688 100.341 152.161 100.004C151.634 99.6675 150.975 99.499 150.184 99.499C149.407 99.499 148.755 99.6675 148.228 100.004C147.715 100.341 147.305 100.81 146.998 101.411C146.69 101.997 146.47 102.678 146.338 103.454C146.207 104.216 146.141 105.029 146.141 105.893ZM165.521 94.2256H172.947V118.769C172.947 120.673 172.581 122.277 171.849 123.581C171.116 124.899 170.069 125.896 168.707 126.569C167.344 127.258 165.718 127.602 163.829 127.602C163.199 127.602 162.62 127.573 162.093 127.514C161.551 127.47 160.958 127.375 160.313 127.229V121.625C160.694 121.684 161.045 121.728 161.368 121.757C161.69 121.801 162.042 121.823 162.422 121.823C163.096 121.823 163.66 121.713 164.114 121.494C164.568 121.274 164.913 120.937 165.147 120.483C165.396 120.029 165.521 119.458 165.521 118.769V94.2256ZM164.971 88.0952C164.971 87.0405 165.352 86.1763 166.114 85.5024C166.875 84.8286 167.864 84.4917 169.08 84.4917C170.296 84.4917 171.285 84.8286 172.046 85.5024C172.808 86.1763 173.189 87.0405 173.189 88.0952C173.189 89.1499 172.808 90.0142 172.046 90.688C171.285 91.3618 170.296 91.6987 169.08 91.6987C167.864 91.6987 166.875 91.3618 166.114 90.688C165.352 90.0142 164.971 89.1499 164.971 88.0952ZM188.658 118.439C186.724 118.439 184.996 118.139 183.472 117.539C181.949 116.923 180.66 116.081 179.605 115.012C178.565 113.942 177.767 112.712 177.21 111.32C176.668 109.929 176.397 108.457 176.397 106.904V106.069C176.397 104.326 176.639 102.714 177.122 101.235C177.605 99.7407 178.323 98.437 179.275 97.3237C180.228 96.2104 181.421 95.3462 182.857 94.731C184.292 94.1011 185.962 93.7861 187.867 93.7861C189.551 93.7861 191.06 94.0571 192.393 94.5991C193.726 95.1411 194.854 95.9175 195.777 96.9282C196.714 97.939 197.425 99.1621 197.908 100.598C198.406 102.033 198.655 103.645 198.655 105.432V108.442H179.231V103.806H191.426V103.234C191.441 102.443 191.302 101.77 191.009 101.213C190.73 100.656 190.32 100.231 189.778 99.9385C189.236 99.6455 188.577 99.499 187.801 99.499C186.995 99.499 186.329 99.6748 185.801 100.026C185.289 100.378 184.886 100.861 184.593 101.477C184.314 102.077 184.117 102.773 184 103.564C183.882 104.355 183.824 105.19 183.824 106.069V106.904C183.824 107.783 183.941 108.581 184.175 109.299C184.424 110.017 184.776 110.632 185.23 111.145C185.699 111.643 186.255 112.031 186.9 112.309C187.559 112.587 188.306 112.727 189.141 112.727C190.152 112.727 191.148 112.536 192.129 112.155C193.111 111.774 193.953 111.145 194.656 110.266L198.018 114.265C197.535 114.953 196.846 115.62 195.953 116.264C195.074 116.909 194.019 117.436 192.789 117.846C191.558 118.242 190.181 118.439 188.658 118.439ZM211.707 112.727C212.396 112.727 212.981 112.602 213.465 112.353C213.963 112.089 214.336 111.723 214.585 111.254C214.849 110.771 214.974 110.192 214.959 109.519H221.924C221.939 111.306 221.5 112.873 220.606 114.221C219.727 115.554 218.526 116.594 217.002 117.341C215.494 118.073 213.787 118.439 211.883 118.439C210.022 118.439 208.396 118.139 207.005 117.539C205.613 116.923 204.449 116.074 203.511 114.99C202.588 113.891 201.893 112.609 201.424 111.145C200.97 109.68 200.743 108.09 200.743 106.376V105.871C200.743 104.157 200.97 102.568 201.424 101.103C201.893 99.6235 202.588 98.3418 203.511 97.2578C204.449 96.1592 205.606 95.3096 206.983 94.709C208.375 94.0938 209.993 93.7861 211.839 93.7861C213.816 93.7861 215.56 94.1597 217.068 94.9067C218.592 95.6538 219.786 96.7378 220.65 98.1587C221.514 99.5796 221.939 101.301 221.924 103.322H214.959C214.974 102.604 214.864 101.96 214.629 101.389C214.395 100.817 214.029 100.363 213.531 100.026C213.047 99.6748 212.425 99.499 211.663 99.499C210.901 99.499 210.286 99.6675 209.817 100.004C209.349 100.341 208.99 100.81 208.741 101.411C208.506 101.997 208.345 102.67 208.257 103.432C208.184 104.194 208.147 105.007 208.147 105.871V106.376C208.147 107.255 208.184 108.083 208.257 108.859C208.345 109.621 208.514 110.295 208.763 110.881C209.012 111.452 209.371 111.906 209.839 112.243C210.308 112.565 210.931 112.727 211.707 112.727ZM237.613 94.2256V99.3672H223.287V94.2256H237.613ZM226.297 88.3149H233.702V110.244C233.702 110.874 233.775 111.364 233.921 111.716C234.068 112.053 234.317 112.294 234.668 112.441C235.035 112.573 235.518 112.639 236.119 112.639C236.543 112.639 236.895 112.631 237.173 112.617C237.452 112.587 237.715 112.551 237.964 112.507V117.802C237.334 118.007 236.675 118.161 235.987 118.264C235.298 118.381 234.566 118.439 233.79 118.439C232.208 118.439 230.853 118.19 229.725 117.692C228.611 117.194 227.762 116.411 227.176 115.341C226.59 114.272 226.297 112.88 226.297 111.167V88.3149ZM264.881 107.146H256.927V101.191H264.881C265.965 101.191 266.844 101.008 267.518 100.642C268.191 100.275 268.682 99.77 268.99 99.1255C269.312 98.4663 269.473 97.7266 269.473 96.9062C269.473 96.0273 269.312 95.2144 268.99 94.4673C268.682 93.7202 268.191 93.1196 267.518 92.6655C266.844 92.1968 265.965 91.9624 264.881 91.9624H259.827V118H252.115V86.0078H264.881C267.444 86.0078 269.649 86.4766 271.495 87.4141C273.355 88.3516 274.783 89.6406 275.779 91.2812C276.775 92.9072 277.273 94.7676 277.273 96.8623C277.273 98.9277 276.775 100.729 275.779 102.268C274.783 103.806 273.355 105.007 271.495 105.871C269.649 106.721 267.444 107.146 264.881 107.146ZM288.326 84.25V118H280.921V84.25H288.326ZM287.447 105.3L285.711 105.344C285.711 103.674 285.916 102.136 286.326 100.729C286.736 99.3232 287.322 98.1001 288.084 97.0601C288.846 96.02 289.761 95.2144 290.831 94.6431C291.9 94.0718 293.086 93.7861 294.39 93.7861C295.562 93.7861 296.631 93.9546 297.598 94.2915C298.58 94.6284 299.422 95.1704 300.125 95.9175C300.843 96.6646 301.392 97.6387 301.773 98.8398C302.168 100.041 302.366 101.506 302.366 103.234V118H294.917V103.19C294.917 102.224 294.778 101.477 294.5 100.949C294.236 100.407 293.855 100.034 293.357 99.8286C292.859 99.6089 292.251 99.499 291.534 99.499C290.669 99.499 289.966 99.6455 289.424 99.9385C288.882 100.231 288.465 100.642 288.172 101.169C287.894 101.682 287.703 102.29 287.601 102.993C287.498 103.696 287.447 104.465 287.447 105.3ZM314.297 94.2256V118H306.871V94.2256H314.297ZM306.431 88.0952C306.431 87.0405 306.812 86.1763 307.574 85.5024C308.335 84.8286 309.324 84.4917 310.54 84.4917C311.756 84.4917 312.745 84.8286 313.506 85.5024C314.268 86.1763 314.649 87.0405 314.649 88.0952C314.649 89.1499 314.268 90.0142 313.506 90.688C312.745 91.3618 311.756 91.6987 310.54 91.6987C309.324 91.6987 308.335 91.3618 307.574 90.688C306.812 90.0142 306.431 89.1499 306.431 88.0952ZM326.69 84.25V118H319.263V84.25H326.69ZM330.337 106.354V105.893C330.337 104.15 330.586 102.546 331.084 101.081C331.583 99.6016 332.315 98.3198 333.282 97.2358C334.249 96.1519 335.442 95.3096 336.863 94.709C338.284 94.0938 339.925 93.7861 341.785 93.7861C343.66 93.7861 345.308 94.0938 346.729 94.709C348.165 95.3096 349.366 96.1519 350.333 97.2358C351.299 98.3198 352.032 99.6016 352.53 101.081C353.028 102.546 353.277 104.15 353.277 105.893V106.354C353.277 108.083 353.028 109.687 352.53 111.167C352.032 112.631 351.299 113.913 350.333 115.012C349.366 116.096 348.172 116.938 346.751 117.539C345.33 118.139 343.689 118.439 341.829 118.439C339.969 118.439 338.321 118.139 336.885 117.539C335.45 116.938 334.249 116.096 333.282 115.012C332.315 113.913 331.583 112.631 331.084 111.167C330.586 109.687 330.337 108.083 330.337 106.354ZM337.742 105.893V106.354C337.742 107.248 337.808 108.083 337.94 108.859C338.072 109.636 338.292 110.317 338.599 110.903C338.907 111.474 339.324 111.921 339.852 112.243C340.379 112.565 341.038 112.727 341.829 112.727C342.605 112.727 343.25 112.565 343.763 112.243C344.29 111.921 344.708 111.474 345.015 110.903C345.323 110.317 345.542 109.636 345.674 108.859C345.806 108.083 345.872 107.248 345.872 106.354V105.893C345.872 105.029 345.806 104.216 345.674 103.454C345.542 102.678 345.323 101.997 345.015 101.411C344.708 100.81 344.29 100.341 343.763 100.004C343.235 99.6675 342.576 99.499 341.785 99.499C341.009 99.499 340.357 99.6675 339.83 100.004C339.317 100.341 338.907 100.81 338.599 101.411C338.292 101.997 338.072 102.678 337.94 103.454C337.808 104.216 337.742 105.029 337.742 105.893ZM369.031 111.32C369.031 110.91 368.892 110.559 368.614 110.266C368.35 109.958 367.881 109.68 367.208 109.431C366.534 109.167 365.589 108.903 364.373 108.64C363.216 108.391 362.125 108.061 361.099 107.651C360.088 107.241 359.202 106.743 358.44 106.157C357.679 105.571 357.078 104.875 356.639 104.069C356.214 103.264 356.001 102.341 356.001 101.301C356.001 100.29 356.214 99.3379 356.639 98.4443C357.078 97.5361 357.715 96.7378 358.55 96.0493C359.4 95.3462 360.433 94.7969 361.648 94.4014C362.864 93.9912 364.249 93.7861 365.801 93.7861C367.94 93.7861 369.786 94.1157 371.338 94.7749C372.891 95.4194 374.085 96.3276 374.92 97.4995C375.77 98.6567 376.194 99.9971 376.194 101.521H368.79C368.79 100.92 368.687 100.407 368.482 99.9824C368.292 99.5576 367.977 99.2354 367.537 99.0156C367.098 98.7812 366.512 98.6641 365.779 98.6641C365.267 98.6641 364.798 98.7593 364.373 98.9497C363.963 99.1401 363.633 99.4038 363.384 99.7407C363.135 100.078 363.011 100.473 363.011 100.927C363.011 101.25 363.084 101.542 363.23 101.806C363.392 102.055 363.633 102.29 363.956 102.509C364.278 102.714 364.688 102.905 365.186 103.081C365.684 103.242 366.285 103.388 366.988 103.52C368.584 103.813 370.079 104.23 371.47 104.772C372.862 105.314 373.99 106.083 374.854 107.08C375.733 108.076 376.172 109.416 376.172 111.101C376.172 112.155 375.931 113.129 375.447 114.023C374.964 114.902 374.268 115.678 373.36 116.352C372.452 117.011 371.36 117.524 370.086 117.89C368.812 118.256 367.376 118.439 365.779 118.439C363.509 118.439 361.59 118.037 360.022 117.231C358.455 116.411 357.269 115.385 356.463 114.155C355.672 112.91 355.276 111.65 355.276 110.375H362.176C362.205 111.108 362.381 111.708 362.703 112.177C363.04 112.646 363.487 112.99 364.043 113.21C364.6 113.43 365.245 113.54 365.977 113.54C366.651 113.54 367.208 113.444 367.647 113.254C368.101 113.063 368.445 112.807 368.68 112.485C368.914 112.148 369.031 111.76 369.031 111.32ZM378.721 106.354V105.893C378.721 104.15 378.97 102.546 379.468 101.081C379.966 99.6016 380.699 98.3198 381.666 97.2358C382.632 96.1519 383.826 95.3096 385.247 94.709C386.668 94.0938 388.309 93.7861 390.169 93.7861C392.044 93.7861 393.692 94.0938 395.113 94.709C396.548 95.3096 397.75 96.1519 398.716 97.2358C399.683 98.3198 400.416 99.6016 400.914 101.081C401.412 102.546 401.661 104.15 401.661 105.893V106.354C401.661 108.083 401.412 109.687 400.914 111.167C400.416 112.631 399.683 113.913 398.716 115.012C397.75 116.096 396.556 116.938 395.135 117.539C393.714 118.139 392.073 118.439 390.213 118.439C388.353 118.439 386.705 118.139 385.269 117.539C383.833 116.938 382.632 116.096 381.666 115.012C380.699 113.913 379.966 112.631 379.468 111.167C378.97 109.687 378.721 108.083 378.721 106.354ZM386.126 105.893V106.354C386.126 107.248 386.192 108.083 386.324 108.859C386.456 109.636 386.675 110.317 386.983 110.903C387.291 111.474 387.708 111.921 388.235 112.243C388.763 112.565 389.422 112.727 390.213 112.727C390.989 112.727 391.634 112.565 392.146 112.243C392.674 111.921 393.091 111.474 393.399 110.903C393.707 110.317 393.926 109.636 394.058 108.859C394.19 108.083 394.256 107.248 394.256 106.354V105.893C394.256 105.029 394.19 104.216 394.058 103.454C393.926 102.678 393.707 101.997 393.399 101.411C393.091 100.81 392.674 100.341 392.146 100.004C391.619 99.6675 390.96 99.499 390.169 99.499C389.393 99.499 388.741 99.6675 388.213 100.004C387.701 100.341 387.291 100.81 386.983 101.411C386.675 101.997 386.456 102.678 386.324 103.454C386.192 104.216 386.126 105.029 386.126 105.893ZM412.427 98.7959V127.141H405.022V94.2256H411.922L412.427 98.7959ZM427.017 105.827V106.289C427.017 108.017 426.819 109.621 426.424 111.101C426.028 112.58 425.442 113.869 424.666 114.968C423.89 116.066 422.923 116.923 421.766 117.539C420.623 118.139 419.297 118.439 417.789 118.439C416.368 118.439 415.145 118.125 414.119 117.495C413.094 116.865 412.237 115.993 411.548 114.88C410.86 113.767 410.303 112.492 409.878 111.057C409.454 109.621 409.117 108.105 408.868 106.508V105.915C409.117 104.201 409.454 102.612 409.878 101.147C410.303 99.6675 410.86 98.3784 411.548 97.2798C412.237 96.1812 413.086 95.3242 414.097 94.709C415.123 94.0938 416.346 93.7861 417.767 93.7861C419.275 93.7861 420.601 94.0718 421.744 94.6431C422.901 95.2144 423.868 96.0347 424.644 97.104C425.435 98.1587 426.028 99.4258 426.424 100.905C426.819 102.385 427.017 104.025 427.017 105.827ZM419.612 106.289V105.827C419.612 104.904 419.546 104.062 419.415 103.3C419.283 102.524 419.07 101.85 418.777 101.279C418.499 100.708 418.125 100.268 417.657 99.9604C417.188 99.6528 416.609 99.499 415.921 99.499C415.13 99.499 414.463 99.6235 413.921 99.8726C413.394 100.107 412.969 100.473 412.647 100.971C412.339 101.455 412.12 102.062 411.988 102.795C411.871 103.513 411.819 104.355 411.834 105.322V107.124C411.805 108.237 411.915 109.218 412.164 110.068C412.413 110.903 412.845 111.555 413.46 112.023C414.075 112.492 414.91 112.727 415.965 112.727C416.668 112.727 417.254 112.565 417.723 112.243C418.191 111.906 418.565 111.445 418.843 110.859C419.122 110.258 419.319 109.57 419.437 108.793C419.554 108.017 419.612 107.182 419.612 106.289ZM437.564 84.25V118H430.159V84.25H437.564ZM436.685 105.3L434.949 105.344C434.949 103.674 435.154 102.136 435.564 100.729C435.975 99.3232 436.561 98.1001 437.322 97.0601C438.084 96.02 439 95.2144 440.069 94.6431C441.138 94.0718 442.325 93.7861 443.628 93.7861C444.8 93.7861 445.87 93.9546 446.836 94.2915C447.818 94.6284 448.66 95.1704 449.363 95.9175C450.081 96.6646 450.63 97.6387 451.011 98.8398C451.407 100.041 451.604 101.506 451.604 103.234V118H444.156V103.19C444.156 102.224 444.017 101.477 443.738 100.949C443.475 100.407 443.094 100.034 442.596 99.8286C442.098 99.6089 441.49 99.499 440.772 99.499C439.908 99.499 439.205 99.6455 438.663 99.9385C438.121 100.231 437.703 100.642 437.41 101.169C437.132 101.682 436.941 102.29 436.839 102.993C436.736 103.696 436.685 104.465 436.685 105.3ZM463.008 115.209L469.161 94.2256H477.115L467.557 121.538C467.352 122.138 467.081 122.783 466.744 123.471C466.407 124.174 465.945 124.841 465.359 125.471C464.773 126.101 464.019 126.613 463.096 127.009C462.188 127.404 461.06 127.602 459.712 127.602C458.995 127.602 458.467 127.565 458.13 127.492C457.808 127.434 457.31 127.324 456.636 127.163V121.867C456.827 121.867 456.988 121.867 457.12 121.867C457.266 121.867 457.427 121.867 457.603 121.867C458.394 121.867 459.024 121.787 459.493 121.625C459.976 121.464 460.342 121.23 460.591 120.922C460.855 120.615 461.06 120.241 461.207 119.802L463.008 115.209ZM461.448 94.2256L466.128 110.859L466.941 118.703H461.976L453.516 94.2256H461.448Z" fill="#424241"/>
<path d="M1363 15C1363 6.71573 1356.28 0 1348 0H1134V167H1348C1356.28 167 1363 160.284 1363 152V15Z" fill="#232E52"/>
<path d="M1234.26 106.286H1262.74V111.857H1234.26V106.286ZM1239.96 117.429H1257.04V123H1239.96V117.429ZM1248.5 45C1240.95 45 1233.71 47.9349 1228.37 53.1592C1223.03 58.3834 1220.03 65.469 1220.03 72.8571C1219.84 76.9057 1220.63 80.9412 1222.34 84.6315C1224.05 88.3219 1226.64 91.5616 1229.88 94.0843C1232.73 96.675 1234.26 98.1514 1234.26 100.714H1239.96C1239.96 95.5886 1236.8 92.7193 1233.72 89.9614C1231.06 87.9676 1228.94 85.3658 1227.55 82.3838C1226.15 79.4019 1225.53 76.1308 1225.72 72.8571C1225.72 66.9466 1228.12 61.2781 1232.39 57.0988C1236.67 52.9194 1242.46 50.5714 1248.5 50.5714C1254.54 50.5714 1260.33 52.9194 1264.61 57.0988C1268.88 61.2781 1271.28 66.9466 1271.28 72.8571C1271.47 76.1333 1270.84 79.4059 1269.44 82.388C1268.04 85.3701 1265.92 87.9706 1263.25 89.9614C1260.2 92.7471 1257.04 95.5329 1257.04 100.714H1262.74C1262.74 98.1514 1264.25 96.675 1267.12 94.0564C1270.36 91.5381 1272.94 88.3031 1274.66 84.6176C1276.37 80.9321 1277.16 76.9014 1276.97 72.8571C1276.97 69.1989 1276.24 65.5765 1274.81 62.1967C1273.37 58.8169 1271.28 55.7459 1268.63 53.1592C1265.99 50.5724 1262.85 48.5205 1259.4 47.1205C1255.94 45.7205 1252.24 45 1248.5 45V45Z" fill="white"/>
</svg>
