<svg width="1363" height="167" viewBox="0 0 1363 167" fill="none" xmlns="http://www.w3.org/2000/svg">
<rect width="1363" height="167" rx="15" fill="#F0F0F0"/>
<path d="M0 15C0 6.71573 6.71573 0 15 0H37V167H15C6.71573 167 0 160.284 0 152V15Z" fill="#424241"/>
<path d="M100.906 54.9219L93.3945 52.2383V49.0859L103.602 53.375V55.6367L100.906 54.9219ZM93.3945 57.1719L100.918 54.4297L103.602 53.7852V56.0352L93.3945 60.3242V57.1719ZM121.789 56.3398H125.293C125.223 57.4883 124.906 58.5078 124.344 59.3984C123.789 60.2891 123.012 60.9844 122.012 61.4844C121.02 61.9844 119.824 62.2344 118.426 62.2344C117.332 62.2344 116.352 62.0469 115.484 61.6719C114.617 61.2891 113.875 60.7422 113.258 60.0312C112.648 59.3203 112.184 58.4609 111.863 57.4531C111.543 56.4453 111.383 55.3164 111.383 54.0664V52.8828C111.383 51.6328 111.547 50.5039 111.875 49.4961C112.211 48.4805 112.688 47.6172 113.305 46.9062C113.93 46.1953 114.676 45.6484 115.543 45.2656C116.41 44.8828 117.379 44.6914 118.449 44.6914C119.871 44.6914 121.07 44.9492 122.047 45.4648C123.031 45.9805 123.793 46.6914 124.332 47.5977C124.879 48.5039 125.207 49.5352 125.316 50.6914H121.801C121.762 50.0039 121.625 49.4219 121.391 48.9453C121.156 48.4609 120.801 48.0977 120.324 47.8555C119.855 47.6055 119.23 47.4805 118.449 47.4805C117.863 47.4805 117.352 47.5898 116.914 47.8086C116.477 48.0273 116.109 48.3594 115.812 48.8047C115.516 49.25 115.293 49.8125 115.145 50.4922C115.004 51.1641 114.934 51.9531 114.934 52.8594V54.0664C114.934 54.9492 115 55.7266 115.133 56.3984C115.266 57.0625 115.469 57.625 115.742 58.0859C116.023 58.5391 116.383 58.8828 116.82 59.1172C117.266 59.3438 117.801 59.457 118.426 59.457C119.16 59.457 119.766 59.3398 120.242 59.1055C120.719 58.8711 121.082 58.5234 121.332 58.0625C121.59 57.6016 121.742 57.0273 121.789 56.3398ZM130.953 44V62H127.566V44H130.953ZM133.203 55.7891V55.543C133.203 54.6133 133.336 53.7578 133.602 52.9766C133.867 52.1875 134.254 51.5039 134.762 50.9258C135.27 50.3477 135.895 49.8984 136.637 49.5781C137.379 49.25 138.23 49.0859 139.191 49.0859C140.152 49.0859 141.008 49.25 141.758 49.5781C142.508 49.8984 143.137 50.3477 143.645 50.9258C144.16 51.5039 144.551 52.1875 144.816 52.9766C145.082 53.7578 145.215 54.6133 145.215 55.543V55.7891C145.215 56.7109 145.082 57.5664 144.816 58.3555C144.551 59.1367 144.16 59.8203 143.645 60.4062C143.137 60.9844 142.512 61.4336 141.77 61.7539C141.027 62.0742 140.176 62.2344 139.215 62.2344C138.254 62.2344 137.398 62.0742 136.648 61.7539C135.906 61.4336 135.277 60.9844 134.762 60.4062C134.254 59.8203 133.867 59.1367 133.602 58.3555C133.336 57.5664 133.203 56.7109 133.203 55.7891ZM136.578 55.543V55.7891C136.578 56.3203 136.625 56.8164 136.719 57.2773C136.812 57.7383 136.961 58.1445 137.164 58.4961C137.375 58.8398 137.648 59.1094 137.984 59.3047C138.32 59.5 138.73 59.5977 139.215 59.5977C139.684 59.5977 140.086 59.5 140.422 59.3047C140.758 59.1094 141.027 58.8398 141.23 58.4961C141.434 58.1445 141.582 57.7383 141.676 57.2773C141.777 56.8164 141.828 56.3203 141.828 55.7891V55.543C141.828 55.0273 141.777 54.543 141.676 54.0898C141.582 53.6289 141.43 53.2227 141.219 52.8711C141.016 52.5117 140.746 52.2305 140.41 52.0273C140.074 51.8242 139.668 51.7227 139.191 51.7227C138.715 51.7227 138.309 51.8242 137.973 52.0273C137.645 52.2305 137.375 52.5117 137.164 52.8711C136.961 53.2227 136.812 53.6289 136.719 54.0898C136.625 54.543 136.578 55.0273 136.578 55.543ZM154.789 58.9648V49.3203H158.164V62H154.988L154.789 58.9648ZM155.164 56.3633L156.16 56.3398C156.16 57.1836 156.062 57.9688 155.867 58.6953C155.672 59.4141 155.379 60.0391 154.988 60.5703C154.598 61.0938 154.105 61.5039 153.512 61.8008C152.918 62.0898 152.219 62.2344 151.414 62.2344C150.797 62.2344 150.227 62.1484 149.703 61.9766C149.188 61.7969 148.742 61.5195 148.367 61.1445C148 60.7617 147.711 60.2734 147.5 59.6797C147.297 59.0781 147.195 58.3555 147.195 57.5117V49.3203H150.57V57.5352C150.57 57.9102 150.613 58.2266 150.699 58.4844C150.793 58.7422 150.922 58.9531 151.086 59.1172C151.25 59.2812 151.441 59.3984 151.66 59.4688C151.887 59.5391 152.137 59.5742 152.41 59.5742C153.105 59.5742 153.652 59.4336 154.051 59.1523C154.457 58.8711 154.742 58.4883 154.906 58.0039C155.078 57.5117 155.164 56.9648 155.164 56.3633ZM168.23 59.2344V44H171.629V62H168.57L168.23 59.2344ZM160.215 55.8125V55.5664C160.215 54.5977 160.324 53.7188 160.543 52.9297C160.762 52.1328 161.082 51.4492 161.504 50.8789C161.926 50.3086 162.445 49.8672 163.062 49.5547C163.68 49.2422 164.383 49.0859 165.172 49.0859C165.914 49.0859 166.562 49.2422 167.117 49.5547C167.68 49.8672 168.156 50.3125 168.547 50.8906C168.945 51.4609 169.266 52.1367 169.508 52.918C169.75 53.6914 169.926 54.5391 170.035 55.4609V56C169.926 56.8828 169.75 57.7031 169.508 58.4609C169.266 59.2188 168.945 59.8828 168.547 60.4531C168.156 61.0156 167.68 61.4531 167.117 61.7656C166.555 62.0781 165.898 62.2344 165.148 62.2344C164.359 62.2344 163.656 62.0742 163.039 61.7539C162.43 61.4336 161.914 60.9844 161.492 60.4062C161.078 59.8281 160.762 59.1484 160.543 58.3672C160.324 57.5859 160.215 56.7344 160.215 55.8125ZM163.59 55.5664V55.8125C163.59 56.3359 163.629 56.8242 163.707 57.2773C163.793 57.7305 163.93 58.1328 164.117 58.4844C164.312 58.8281 164.562 59.0977 164.867 59.293C165.18 59.4805 165.559 59.5742 166.004 59.5742C166.582 59.5742 167.059 59.4453 167.434 59.1875C167.809 58.9219 168.094 58.5586 168.289 58.0977C168.492 57.6367 168.609 57.1055 168.641 56.5039V54.9688C168.617 54.4766 168.547 54.0352 168.43 53.6445C168.32 53.2461 168.156 52.9062 167.938 52.625C167.727 52.3438 167.461 52.125 167.141 51.9688C166.828 51.8125 166.457 51.7344 166.027 51.7344C165.59 51.7344 165.215 51.8359 164.902 52.0391C164.59 52.2344 164.336 52.5039 164.141 52.8477C163.953 53.1914 163.812 53.5977 163.719 54.0664C163.633 54.5273 163.59 55.0273 163.59 55.5664ZM189.336 57.5352C189.336 57.2305 189.289 56.957 189.195 56.7148C189.109 56.4648 188.945 56.2383 188.703 56.0352C188.461 55.8242 188.121 55.6172 187.684 55.4141C187.246 55.2109 186.68 55 185.984 54.7812C185.211 54.5312 184.477 54.25 183.781 53.9375C183.094 53.625 182.484 53.2617 181.953 52.8477C181.43 52.4258 181.016 51.9375 180.711 51.3828C180.414 50.8281 180.266 50.1836 180.266 49.4492C180.266 48.7383 180.422 48.0938 180.734 47.5156C181.047 46.9297 181.484 46.4297 182.047 46.0156C182.609 45.5938 183.273 45.2695 184.039 45.043C184.812 44.8164 185.66 44.7031 186.582 44.7031C187.84 44.7031 188.938 44.9297 189.875 45.3828C190.812 45.8359 191.539 46.457 192.055 47.2461C192.578 48.0352 192.84 48.9375 192.84 49.9531H189.348C189.348 49.4531 189.242 49.0156 189.031 48.6406C188.828 48.2578 188.516 47.957 188.094 47.7383C187.68 47.5195 187.156 47.4102 186.523 47.4102C185.914 47.4102 185.406 47.5039 185 47.6914C184.594 47.8711 184.289 48.1172 184.086 48.4297C183.883 48.7344 183.781 49.0781 183.781 49.4609C183.781 49.75 183.852 50.0117 183.992 50.2461C184.141 50.4805 184.359 50.6992 184.648 50.9023C184.938 51.1055 185.293 51.2969 185.715 51.4766C186.137 51.6562 186.625 51.832 187.18 52.0039C188.109 52.2852 188.926 52.6016 189.629 52.9531C190.34 53.3047 190.934 53.6992 191.41 54.1367C191.887 54.5742 192.246 55.0703 192.488 55.625C192.73 56.1797 192.852 56.8086 192.852 57.5117C192.852 58.2539 192.707 58.918 192.418 59.5039C192.129 60.0898 191.711 60.5859 191.164 60.9922C190.617 61.3984 189.965 61.707 189.207 61.918C188.449 62.1289 187.602 62.2344 186.664 62.2344C185.82 62.2344 184.988 62.125 184.168 61.9062C183.348 61.6797 182.602 61.3398 181.93 60.8867C181.266 60.4336 180.734 59.8555 180.336 59.1523C179.938 58.4492 179.738 57.6172 179.738 56.6562H183.266C183.266 57.1875 183.348 57.6367 183.512 58.0039C183.676 58.3711 183.906 58.668 184.203 58.8945C184.508 59.1211 184.867 59.2852 185.281 59.3867C185.703 59.4883 186.164 59.5391 186.664 59.5391C187.273 59.5391 187.773 59.4531 188.164 59.2812C188.562 59.1094 188.855 58.8711 189.043 58.5664C189.238 58.2617 189.336 57.918 189.336 57.5352ZM198.406 43.9883V62H195.031V43.9883H198.406ZM206.398 49.3203L200.891 55.6016L197.938 58.5898L196.707 56.1523L199.051 53.1758L202.344 49.3203H206.398ZM202.895 62L199.145 56.1406L201.477 54.1016L206.785 62H202.895ZM211.414 49.3203V62H208.027V49.3203H211.414ZM207.816 46.0156C207.816 45.5234 207.988 45.1172 208.332 44.7969C208.676 44.4766 209.137 44.3164 209.715 44.3164C210.285 44.3164 210.742 44.4766 211.086 44.7969C211.438 45.1172 211.613 45.5234 211.613 46.0156C211.613 46.5078 211.438 46.9141 211.086 47.2344C210.742 47.5547 210.285 47.7148 209.715 47.7148C209.137 47.7148 208.676 47.5547 208.332 47.2344C207.988 46.9141 207.816 46.5078 207.816 46.0156ZM217.766 44V62H214.379V44H217.766ZM224.117 44V62H220.73V44H224.117ZM233.762 58.4961C233.762 58.2539 233.691 58.0352 233.551 57.8398C233.41 57.6445 233.148 57.4648 232.766 57.3008C232.391 57.1289 231.848 56.9727 231.137 56.832C230.496 56.6914 229.898 56.5156 229.344 56.3047C228.797 56.0859 228.32 55.8242 227.914 55.5195C227.516 55.2148 227.203 54.8555 226.977 54.4414C226.75 54.0195 226.637 53.5391 226.637 53C226.637 52.4688 226.75 51.9688 226.977 51.5C227.211 51.0312 227.543 50.6172 227.973 50.2578C228.41 49.8906 228.941 49.6055 229.566 49.4023C230.199 49.1914 230.91 49.0859 231.699 49.0859C232.801 49.0859 233.746 49.2617 234.535 49.6133C235.332 49.9648 235.941 50.4492 236.363 51.0664C236.793 51.6758 237.008 52.3711 237.008 53.1523H233.633C233.633 52.8242 233.562 52.5312 233.422 52.2734C233.289 52.0078 233.078 51.8008 232.789 51.6523C232.508 51.4961 232.141 51.418 231.688 51.418C231.312 51.418 230.988 51.4844 230.715 51.6172C230.441 51.7422 230.23 51.9141 230.082 52.1328C229.941 52.3438 229.871 52.5781 229.871 52.8359C229.871 53.0312 229.91 53.207 229.988 53.3633C230.074 53.5117 230.211 53.6484 230.398 53.7734C230.586 53.8984 230.828 54.0156 231.125 54.125C231.43 54.2266 231.805 54.3203 232.25 54.4062C233.164 54.5938 233.98 54.8398 234.699 55.1445C235.418 55.4414 235.988 55.8477 236.41 56.3633C236.832 56.8711 237.043 57.5391 237.043 58.3672C237.043 58.9297 236.918 59.4453 236.668 59.9141C236.418 60.3828 236.059 60.793 235.59 61.1445C235.121 61.4883 234.559 61.7578 233.902 61.9531C233.254 62.1406 232.523 62.2344 231.711 62.2344C230.531 62.2344 229.531 62.0234 228.711 61.6016C227.898 61.1797 227.281 60.6445 226.859 59.9961C226.445 59.3398 226.238 58.668 226.238 57.9805H229.438C229.453 58.4414 229.57 58.8125 229.789 59.0938C230.016 59.375 230.301 59.5781 230.645 59.7031C230.996 59.8281 231.375 59.8906 231.781 59.8906C232.219 59.8906 232.582 59.832 232.871 59.7148C233.16 59.5898 233.379 59.4258 233.527 59.2227C233.684 59.0117 233.762 58.7695 233.762 58.4961ZM252.102 54.5117H247.719L247.695 52.0977H251.375C252.023 52.0977 252.555 52.0156 252.969 51.8516C253.383 51.6797 253.691 51.4336 253.895 51.1133C254.105 50.7852 254.211 50.3867 254.211 49.918C254.211 49.3867 254.109 48.957 253.906 48.6289C253.711 48.3008 253.402 48.0625 252.98 47.9141C252.566 47.7656 252.031 47.6914 251.375 47.6914H248.938V62H245.422V44.9375H251.375C252.367 44.9375 253.254 45.0312 254.035 45.2188C254.824 45.4062 255.492 45.6914 256.039 46.0742C256.586 46.457 257.004 46.9414 257.293 47.5273C257.582 48.1055 257.727 48.793 257.727 49.5898C257.727 50.293 257.566 50.9414 257.246 51.5352C256.934 52.1289 256.438 52.6133 255.758 52.9883C255.086 53.3633 254.207 53.5703 253.121 53.6094L252.102 54.5117ZM251.949 62H246.758L248.129 59.2578H251.949C252.566 59.2578 253.07 59.1602 253.461 58.9648C253.852 58.7617 254.141 58.4883 254.328 58.1445C254.516 57.8008 254.609 57.4062 254.609 56.9609C254.609 56.4609 254.523 56.0273 254.352 55.6602C254.188 55.293 253.922 55.0117 253.555 54.8164C253.188 54.6133 252.703 54.5117 252.102 54.5117H248.715L248.738 52.0977H252.957L253.766 53.0469C254.805 53.0312 255.641 53.2148 256.273 53.5977C256.914 53.9727 257.379 54.4609 257.668 55.0625C257.965 55.6641 258.113 56.3086 258.113 56.9961C258.113 58.0898 257.875 59.0117 257.398 59.7617C256.922 60.5039 256.223 61.0625 255.301 61.4375C254.387 61.8125 253.27 62 251.949 62ZM268.039 58.9648V49.3203H271.414V62H268.238L268.039 58.9648ZM268.414 56.3633L269.41 56.3398C269.41 57.1836 269.312 57.9688 269.117 58.6953C268.922 59.4141 268.629 60.0391 268.238 60.5703C267.848 61.0938 267.355 61.5039 266.762 61.8008C266.168 62.0898 265.469 62.2344 264.664 62.2344C264.047 62.2344 263.477 62.1484 262.953 61.9766C262.438 61.7969 261.992 61.5195 261.617 61.1445C261.25 60.7617 260.961 60.2734 260.75 59.6797C260.547 59.0781 260.445 58.3555 260.445 57.5117V49.3203H263.82V57.5352C263.82 57.9102 263.863 58.2266 263.949 58.4844C264.043 58.7422 264.172 58.9531 264.336 59.1172C264.5 59.2812 264.691 59.3984 264.91 59.4688C265.137 59.5391 265.387 59.5742 265.66 59.5742C266.355 59.5742 266.902 59.4336 267.301 59.1523C267.707 58.8711 267.992 58.4883 268.156 58.0039C268.328 57.5117 268.414 56.9648 268.414 56.3633ZM277.555 49.3203V62H274.168V49.3203H277.555ZM273.957 46.0156C273.957 45.5234 274.129 45.1172 274.473 44.7969C274.816 44.4766 275.277 44.3164 275.855 44.3164C276.426 44.3164 276.883 44.4766 277.227 44.7969C277.578 45.1172 277.754 45.5234 277.754 46.0156C277.754 46.5078 277.578 46.9141 277.227 47.2344C276.883 47.5547 276.426 47.7148 275.855 47.7148C275.277 47.7148 274.816 47.5547 274.473 47.2344C274.129 46.9141 273.957 46.5078 273.957 46.0156ZM283.906 44V62H280.52V44H283.906ZM294.184 59.2344V44H297.582V62H294.523L294.184 59.2344ZM286.168 55.8125V55.5664C286.168 54.5977 286.277 53.7188 286.496 52.9297C286.715 52.1328 287.035 51.4492 287.457 50.8789C287.879 50.3086 288.398 49.8672 289.016 49.5547C289.633 49.2422 290.336 49.0859 291.125 49.0859C291.867 49.0859 292.516 49.2422 293.07 49.5547C293.633 49.8672 294.109 50.3125 294.5 50.8906C294.898 51.4609 295.219 52.1367 295.461 52.918C295.703 53.6914 295.879 54.5391 295.988 55.4609V56C295.879 56.8828 295.703 57.7031 295.461 58.4609C295.219 59.2188 294.898 59.8828 294.5 60.4531C294.109 61.0156 293.633 61.4531 293.07 61.7656C292.508 62.0781 291.852 62.2344 291.102 62.2344C290.312 62.2344 289.609 62.0742 288.992 61.7539C288.383 61.4336 287.867 60.9844 287.445 60.4062C287.031 59.8281 286.715 59.1484 286.496 58.3672C286.277 57.5859 286.168 56.7344 286.168 55.8125ZM289.543 55.5664V55.8125C289.543 56.3359 289.582 56.8242 289.66 57.2773C289.746 57.7305 289.883 58.1328 290.07 58.4844C290.266 58.8281 290.516 59.0977 290.82 59.293C291.133 59.4805 291.512 59.5742 291.957 59.5742C292.535 59.5742 293.012 59.4453 293.387 59.1875C293.762 58.9219 294.047 58.5586 294.242 58.0977C294.445 57.6367 294.562 57.1055 294.594 56.5039V54.9688C294.57 54.4766 294.5 54.0352 294.383 53.6445C294.273 53.2461 294.109 52.9062 293.891 52.625C293.68 52.3438 293.414 52.125 293.094 51.9688C292.781 51.8125 292.41 51.7344 291.98 51.7344C291.543 51.7344 291.168 51.8359 290.855 52.0391C290.543 52.2344 290.289 52.5039 290.094 52.8477C289.906 53.1914 289.766 53.5977 289.672 54.0664C289.586 54.5273 289.543 55.0273 289.543 55.5664ZM306.055 62.2344C305.07 62.2344 304.188 62.0781 303.406 61.7656C302.625 61.4453 301.961 61.0039 301.414 60.4414C300.875 59.8789 300.461 59.2266 300.172 58.4844C299.883 57.7344 299.738 56.9375 299.738 56.0938V55.625C299.738 54.6641 299.875 53.7852 300.148 52.9883C300.422 52.1914 300.812 51.5 301.32 50.9141C301.836 50.3281 302.461 49.8789 303.195 49.5664C303.93 49.2461 304.758 49.0859 305.68 49.0859C306.578 49.0859 307.375 49.2344 308.07 49.5312C308.766 49.8281 309.348 50.25 309.816 50.7969C310.293 51.3438 310.652 52 310.895 52.7656C311.137 53.5234 311.258 54.3672 311.258 55.2969V56.7031H301.18V54.4531H307.941V54.1953C307.941 53.7266 307.855 53.3086 307.684 52.9414C307.52 52.5664 307.27 52.2695 306.934 52.0508C306.598 51.832 306.168 51.7227 305.645 51.7227C305.199 51.7227 304.816 51.8203 304.496 52.0156C304.176 52.2109 303.914 52.4844 303.711 52.8359C303.516 53.1875 303.367 53.6016 303.266 54.0781C303.172 54.5469 303.125 55.0625 303.125 55.625V56.0938C303.125 56.6016 303.195 57.0703 303.336 57.5C303.484 57.9297 303.691 58.3008 303.957 58.6133C304.23 58.9258 304.559 59.168 304.941 59.3398C305.332 59.5117 305.773 59.5977 306.266 59.5977C306.875 59.5977 307.441 59.4805 307.965 59.2461C308.496 59.0039 308.953 58.6406 309.336 58.1562L310.977 59.9375C310.711 60.3203 310.348 60.6875 309.887 61.0391C309.434 61.3906 308.887 61.6797 308.246 61.9062C307.605 62.125 306.875 62.2344 306.055 62.2344ZM316.555 52.0859V62H313.18V49.3203H316.355L316.555 52.0859ZM320.375 49.2383L320.316 52.3672C320.152 52.3438 319.953 52.3242 319.719 52.3086C319.492 52.2852 319.285 52.2734 319.098 52.2734C318.621 52.2734 318.207 52.3359 317.855 52.4609C317.512 52.5781 317.223 52.7539 316.988 52.9883C316.762 53.2227 316.59 53.5078 316.473 53.8438C316.363 54.1797 316.301 54.5625 316.285 54.9922L315.605 54.7812C315.605 53.9609 315.688 53.207 315.852 52.5195C316.016 51.8242 316.254 51.2188 316.566 50.7031C316.887 50.1875 317.277 49.7891 317.738 49.5078C318.199 49.2266 318.727 49.0859 319.32 49.0859C319.508 49.0859 319.699 49.1016 319.895 49.1328C320.09 49.1562 320.25 49.1914 320.375 49.2383Z" fill="#888888"/>
<path d="M109.93 86.0078V118H102.217V86.0078H109.93ZM119.554 86.0078V91.9624H92.813V86.0078H119.554ZM132.012 118.439C130.079 118.439 128.35 118.139 126.827 117.539C125.303 116.923 124.014 116.081 122.959 115.012C121.919 113.942 121.121 112.712 120.564 111.32C120.022 109.929 119.751 108.457 119.751 106.904V106.069C119.751 104.326 119.993 102.714 120.477 101.235C120.96 99.7407 121.678 98.437 122.63 97.3237C123.582 96.2104 124.776 95.3462 126.211 94.731C127.647 94.1011 129.317 93.7861 131.221 93.7861C132.906 93.7861 134.415 94.0571 135.748 94.5991C137.081 95.1411 138.208 95.9175 139.131 96.9282C140.069 97.939 140.779 99.1621 141.263 100.598C141.761 102.033 142.01 103.645 142.01 105.432V108.442H122.586V103.806H134.781V103.234C134.795 102.443 134.656 101.77 134.363 101.213C134.085 100.656 133.675 100.231 133.133 99.9385C132.591 99.6455 131.932 99.499 131.155 99.499C130.35 99.499 129.683 99.6748 129.156 100.026C128.643 100.378 128.24 100.861 127.947 101.477C127.669 102.077 127.471 102.773 127.354 103.564C127.237 104.355 127.178 105.19 127.178 106.069V106.904C127.178 107.783 127.295 108.581 127.53 109.299C127.779 110.017 128.13 110.632 128.584 111.145C129.053 111.643 129.61 112.031 130.254 112.309C130.914 112.587 131.661 112.727 132.496 112.727C133.506 112.727 134.502 112.536 135.484 112.155C136.465 111.774 137.308 111.145 138.011 110.266L141.373 114.265C140.889 114.953 140.201 115.62 139.307 116.264C138.428 116.909 137.374 117.436 136.143 117.846C134.913 118.242 133.536 118.439 132.012 118.439ZM155.062 112.727C155.75 112.727 156.336 112.602 156.819 112.353C157.317 112.089 157.691 111.723 157.94 111.254C158.204 110.771 158.328 110.192 158.313 109.519H165.279C165.293 111.306 164.854 112.873 163.96 114.221C163.082 115.554 161.88 116.594 160.357 117.341C158.848 118.073 157.142 118.439 155.237 118.439C153.377 118.439 151.751 118.139 150.359 117.539C148.968 116.923 147.803 116.074 146.866 114.99C145.943 113.891 145.247 112.609 144.778 111.145C144.324 109.68 144.097 108.09 144.097 106.376V105.871C144.097 104.157 144.324 102.568 144.778 101.103C145.247 99.6235 145.943 98.3418 146.866 97.2578C147.803 96.1592 148.96 95.3096 150.337 94.709C151.729 94.0938 153.348 93.7861 155.193 93.7861C157.171 93.7861 158.914 94.1597 160.423 94.9067C161.946 95.6538 163.14 96.7378 164.004 98.1587C164.869 99.5796 165.293 101.301 165.279 103.322H158.313C158.328 102.604 158.218 101.96 157.984 101.389C157.75 100.817 157.383 100.363 156.885 100.026C156.402 99.6748 155.779 99.499 155.018 99.499C154.256 99.499 153.641 99.6675 153.172 100.004C152.703 100.341 152.344 100.81 152.095 101.411C151.861 101.997 151.7 102.67 151.612 103.432C151.539 104.194 151.502 105.007 151.502 105.871V106.376C151.502 107.255 151.539 108.083 151.612 108.859C151.7 109.621 151.868 110.295 152.117 110.881C152.366 111.452 152.725 111.906 153.194 112.243C153.663 112.565 154.285 112.727 155.062 112.727ZM175.694 84.25V118H168.289V84.25H175.694ZM174.815 105.3L173.079 105.344C173.079 103.674 173.284 102.136 173.694 100.729C174.104 99.3232 174.69 98.1001 175.452 97.0601C176.214 96.02 177.129 95.2144 178.199 94.6431C179.268 94.0718 180.455 93.7861 181.758 93.7861C182.93 93.7861 184 93.9546 184.966 94.2915C185.948 94.6284 186.79 95.1704 187.493 95.9175C188.211 96.6646 188.76 97.6387 189.141 98.8398C189.537 100.041 189.734 101.506 189.734 103.234V118H182.286V103.19C182.286 102.224 182.146 101.477 181.868 100.949C181.604 100.407 181.224 100.034 180.726 99.8286C180.228 99.6089 179.62 99.499 178.902 99.499C178.038 99.499 177.334 99.6455 176.792 99.9385C176.25 100.231 175.833 100.642 175.54 101.169C175.262 101.682 175.071 102.29 174.969 102.993C174.866 103.696 174.815 104.465 174.815 105.3ZM221.88 109.497C221.88 108.999 221.807 108.552 221.661 108.156C221.514 107.746 221.243 107.365 220.848 107.014C220.452 106.662 219.881 106.311 219.134 105.959C218.401 105.593 217.435 105.212 216.233 104.816C214.827 104.348 213.472 103.82 212.168 103.234C210.865 102.634 209.7 101.938 208.675 101.147C207.649 100.341 206.836 99.4038 206.236 98.3345C205.635 97.2505 205.335 95.9907 205.335 94.5552C205.335 93.1782 205.643 91.9404 206.258 90.8418C206.873 89.7285 207.73 88.7837 208.829 88.0073C209.942 87.2163 211.246 86.6157 212.74 86.2056C214.234 85.7808 215.867 85.5684 217.64 85.5684C219.983 85.5684 222.049 85.9785 223.836 86.7988C225.638 87.6045 227.044 88.7544 228.055 90.2485C229.08 91.728 229.593 93.4785 229.593 95.5H221.924C221.924 94.6943 221.756 93.9839 221.419 93.3687C221.097 92.7534 220.606 92.27 219.947 91.9185C219.288 91.5669 218.46 91.3911 217.464 91.3911C216.497 91.3911 215.684 91.5376 215.025 91.8306C214.366 92.1235 213.868 92.519 213.531 93.0171C213.194 93.5005 213.025 94.0352 213.025 94.6211C213.025 95.1045 213.157 95.5439 213.421 95.9395C213.699 96.3203 214.087 96.6792 214.585 97.0161C215.098 97.353 215.713 97.6753 216.431 97.9829C217.164 98.2905 217.984 98.5908 218.892 98.8838C220.591 99.4258 222.1 100.034 223.418 100.708C224.751 101.367 225.872 102.121 226.78 102.971C227.703 103.806 228.399 104.758 228.868 105.827C229.351 106.896 229.593 108.105 229.593 109.453C229.593 110.888 229.314 112.163 228.758 113.276C228.201 114.389 227.403 115.334 226.363 116.11C225.323 116.872 224.078 117.451 222.627 117.846C221.177 118.242 219.559 118.439 217.771 118.439C216.131 118.439 214.512 118.234 212.916 117.824C211.333 117.399 209.898 116.755 208.609 115.891C207.32 115.012 206.287 113.891 205.511 112.529C204.749 111.152 204.368 109.519 204.368 107.629H212.103C212.103 108.566 212.227 109.357 212.476 110.002C212.725 110.646 213.091 111.167 213.575 111.562C214.058 111.943 214.651 112.221 215.354 112.397C216.058 112.558 216.863 112.639 217.771 112.639C218.753 112.639 219.544 112.5 220.145 112.221C220.745 111.928 221.185 111.547 221.463 111.079C221.741 110.595 221.88 110.068 221.88 109.497ZM245.743 94.2256V99.3672H231.417V94.2256H245.743ZM234.427 88.3149H241.832V110.244C241.832 110.874 241.905 111.364 242.051 111.716C242.198 112.053 242.447 112.294 242.798 112.441C243.165 112.573 243.648 112.639 244.249 112.639C244.673 112.639 245.025 112.631 245.303 112.617C245.582 112.587 245.845 112.551 246.094 112.507V117.802C245.464 118.007 244.805 118.161 244.117 118.264C243.428 118.381 242.696 118.439 241.919 118.439C240.337 118.439 238.982 118.19 237.854 117.692C236.741 117.194 235.892 116.411 235.306 115.341C234.72 114.272 234.427 112.88 234.427 111.167V88.3149ZM261.036 112.023V102.224C261.036 101.55 260.94 100.971 260.75 100.488C260.56 100.004 260.259 99.6309 259.849 99.3672C259.439 99.0889 258.89 98.9497 258.201 98.9497C257.645 98.9497 257.168 99.0449 256.773 99.2354C256.377 99.4258 256.077 99.7114 255.872 100.092C255.667 100.473 255.564 100.957 255.564 101.542H248.16C248.16 100.444 248.401 99.4258 248.885 98.4883C249.383 97.5361 250.086 96.7085 250.994 96.0054C251.917 95.3022 253.016 94.7603 254.29 94.3794C255.579 93.9839 257.015 93.7861 258.597 93.7861C260.486 93.7861 262.171 94.1011 263.65 94.731C265.145 95.3608 266.324 96.3057 267.188 97.5654C268.052 98.8105 268.484 100.378 268.484 102.268V112.001C268.484 113.554 268.572 114.733 268.748 115.539C268.924 116.33 269.173 117.026 269.495 117.626V118H262.068C261.717 117.268 261.453 116.374 261.277 115.319C261.116 114.25 261.036 113.151 261.036 112.023ZM261.937 103.476L261.98 107.431H258.707C258.018 107.431 257.432 107.526 256.949 107.717C256.48 107.907 256.099 108.171 255.806 108.508C255.528 108.83 255.323 109.196 255.191 109.606C255.074 110.017 255.015 110.449 255.015 110.903C255.015 111.342 255.118 111.738 255.323 112.089C255.542 112.426 255.835 112.69 256.202 112.88C256.568 113.071 256.978 113.166 257.432 113.166C258.252 113.166 258.948 113.012 259.52 112.705C260.105 112.382 260.552 111.994 260.86 111.54C261.167 111.086 261.321 110.661 261.321 110.266L262.947 113.298C262.654 113.884 262.317 114.477 261.937 115.078C261.57 115.678 261.109 116.235 260.552 116.748C260.01 117.246 259.344 117.656 258.553 117.978C257.762 118.286 256.802 118.439 255.674 118.439C254.209 118.439 252.862 118.139 251.631 117.539C250.416 116.938 249.441 116.103 248.709 115.034C247.977 113.95 247.61 112.705 247.61 111.298C247.61 110.068 247.83 108.969 248.27 108.002C248.724 107.036 249.405 106.215 250.313 105.542C251.221 104.868 252.378 104.355 253.785 104.003C255.191 103.652 256.846 103.476 258.75 103.476H261.937ZM282.635 112.727C283.323 112.727 283.909 112.602 284.393 112.353C284.891 112.089 285.264 111.723 285.513 111.254C285.777 110.771 285.901 110.192 285.887 109.519H292.852C292.867 111.306 292.427 112.873 291.534 114.221C290.655 115.554 289.454 116.594 287.93 117.341C286.421 118.073 284.715 118.439 282.811 118.439C280.95 118.439 279.324 118.139 277.933 117.539C276.541 116.923 275.376 116.074 274.439 114.99C273.516 113.891 272.82 112.609 272.352 111.145C271.897 109.68 271.67 108.09 271.67 106.376V105.871C271.67 104.157 271.897 102.568 272.352 101.103C272.82 99.6235 273.516 98.3418 274.439 97.2578C275.376 96.1592 276.534 95.3096 277.911 94.709C279.302 94.0938 280.921 93.7861 282.767 93.7861C284.744 93.7861 286.487 94.1597 287.996 94.9067C289.52 95.6538 290.713 96.7378 291.578 98.1587C292.442 99.5796 292.867 101.301 292.852 103.322H285.887C285.901 102.604 285.792 101.96 285.557 101.389C285.323 100.817 284.957 100.363 284.458 100.026C283.975 99.6748 283.353 99.499 282.591 99.499C281.829 99.499 281.214 99.6675 280.745 100.004C280.276 100.341 279.917 100.81 279.668 101.411C279.434 101.997 279.273 102.67 279.185 103.432C279.112 104.194 279.075 105.007 279.075 105.871V106.376C279.075 107.255 279.112 108.083 279.185 108.859C279.273 109.621 279.441 110.295 279.69 110.881C279.939 111.452 280.298 111.906 280.767 112.243C281.236 112.565 281.858 112.727 282.635 112.727ZM303.487 84.228V118H296.082V84.228H303.487ZM318.692 94.2256L308.365 106.333L302.959 111.738L299.729 107.036L304.234 101.169L309.815 94.2256H318.692ZM310.76 118L304.41 107.167L309.881 103.278L319.241 118H310.76Z" fill="#424241"/>
<path d="M1363 15C1363 6.71573 1356.28 0 1348 0H1134V167H1348C1356.28 167 1363 160.284 1363 152V15Z" fill="#232E52"/>
<path fill-rule="evenodd" clip-rule="evenodd" d="M1218.5 55C1218.37 55 1218.24 55.0527 1218.15 55.1464C1218.05 55.2402 1218 55.3674 1218 55.5V111.5C1218 111.633 1218.05 111.76 1218.15 111.854C1218.24 111.947 1218.37 112 1218.5 112H1278C1278.13 112 1278.26 111.947 1278.35 111.854C1278.45 111.76 1278.5 111.633 1278.5 111.5V66C1278.5 65.8674 1278.45 65.7402 1278.35 65.6464C1278.26 65.5527 1278.13 65.5 1278 65.5H1248.25C1247.36 65.5 1246.52 65.1045 1245.95 64.4206L1238.09 55H1218.5ZM1213.9 50.9038C1215.12 49.6848 1216.78 49 1218.5 49H1239.5C1240.39 49 1241.23 49.3955 1241.8 50.0794L1249.66 59.5H1278C1279.72 59.5 1281.38 60.1848 1282.6 61.4038C1283.82 62.6228 1284.5 64.2761 1284.5 66V111.5C1284.5 113.224 1283.82 114.877 1282.6 116.096C1281.38 117.315 1279.72 118 1278 118H1218.5C1216.78 118 1215.12 117.315 1213.9 116.096C1212.68 114.877 1212 113.224 1212 111.5V55.5C1212 53.7761 1212.68 52.1228 1213.9 50.9038Z" fill="white"/>
<path fill-rule="evenodd" clip-rule="evenodd" d="M1243.72 77.5251C1245.09 78.892 1245.09 81.108 1243.72 82.4749L1237.45 88.75L1243.72 95.0251C1245.09 96.392 1245.09 98.608 1243.72 99.9749C1242.36 101.342 1240.14 101.342 1238.78 99.9749L1230.03 91.2249C1228.66 89.858 1228.66 87.642 1230.03 86.2751L1238.78 77.5251C1240.14 76.1583 1242.36 76.1583 1243.72 77.5251Z" fill="white"/>
<path fill-rule="evenodd" clip-rule="evenodd" d="M1252.03 99.9749C1250.66 98.608 1250.66 96.392 1252.03 95.0251L1258.3 88.75L1252.03 82.4749C1250.66 81.108 1250.66 78.892 1252.03 77.5251C1253.39 76.1583 1255.61 76.1583 1256.97 77.5251L1265.72 86.2751C1267.09 87.642 1267.09 89.858 1265.72 91.2249L1256.97 99.9749C1255.61 101.342 1253.39 101.342 1252.03 99.9749Z" fill="white"/>
</svg>
