<svg width="1363" height="167" viewBox="0 0 1363 167" fill="none" xmlns="http://www.w3.org/2000/svg">
<rect width="1363" height="167" rx="15" fill="#F0F0F0"/>
<path d="M0 15C0 6.71573 6.71573 0 15 0H37V167H15C6.71573 167 0 160.284 0 152V15Z" fill="#424241"/>
<path d="M100.906 54.9219L93.3945 52.2383V49.0859L103.602 53.375V55.6367L100.906 54.9219ZM93.3945 57.1719L100.918 54.4297L103.602 53.7852V56.0352L93.3945 60.3242V57.1719ZM121.789 56.3398H125.293C125.223 57.4883 124.906 58.5078 124.344 59.3984C123.789 60.2891 123.012 60.9844 122.012 61.4844C121.02 61.9844 119.824 62.2344 118.426 62.2344C117.332 62.2344 116.352 62.0469 115.484 61.6719C114.617 61.2891 113.875 60.7422 113.258 60.0312C112.648 59.3203 112.184 58.4609 111.863 57.4531C111.543 56.4453 111.383 55.3164 111.383 54.0664V52.8828C111.383 51.6328 111.547 50.5039 111.875 49.4961C112.211 48.4805 112.688 47.6172 113.305 46.9062C113.93 46.1953 114.676 45.6484 115.543 45.2656C116.41 44.8828 117.379 44.6914 118.449 44.6914C119.871 44.6914 121.07 44.9492 122.047 45.4648C123.031 45.9805 123.793 46.6914 124.332 47.5977C124.879 48.5039 125.207 49.5352 125.316 50.6914H121.801C121.762 50.0039 121.625 49.4219 121.391 48.9453C121.156 48.4609 120.801 48.0977 120.324 47.8555C119.855 47.6055 119.23 47.4805 118.449 47.4805C117.863 47.4805 117.352 47.5898 116.914 47.8086C116.477 48.0273 116.109 48.3594 115.812 48.8047C115.516 49.25 115.293 49.8125 115.145 50.4922C115.004 51.1641 114.934 51.9531 114.934 52.8594V54.0664C114.934 54.9492 115 55.7266 115.133 56.3984C115.266 57.0625 115.469 57.625 115.742 58.0859C116.023 58.5391 116.383 58.8828 116.82 59.1172C117.266 59.3438 117.801 59.457 118.426 59.457C119.16 59.457 119.766 59.3398 120.242 59.1055C120.719 58.8711 121.082 58.5234 121.332 58.0625C121.59 57.6016 121.742 57.0273 121.789 56.3398ZM130.953 44V62H127.566V44H130.953ZM133.203 55.7891V55.543C133.203 54.6133 133.336 53.7578 133.602 52.9766C133.867 52.1875 134.254 51.5039 134.762 50.9258C135.27 50.3477 135.895 49.8984 136.637 49.5781C137.379 49.25 138.23 49.0859 139.191 49.0859C140.152 49.0859 141.008 49.25 141.758 49.5781C142.508 49.8984 143.137 50.3477 143.645 50.9258C144.16 51.5039 144.551 52.1875 144.816 52.9766C145.082 53.7578 145.215 54.6133 145.215 55.543V55.7891C145.215 56.7109 145.082 57.5664 144.816 58.3555C144.551 59.1367 144.16 59.8203 143.645 60.4062C143.137 60.9844 142.512 61.4336 141.77 61.7539C141.027 62.0742 140.176 62.2344 139.215 62.2344C138.254 62.2344 137.398 62.0742 136.648 61.7539C135.906 61.4336 135.277 60.9844 134.762 60.4062C134.254 59.8203 133.867 59.1367 133.602 58.3555C133.336 57.5664 133.203 56.7109 133.203 55.7891ZM136.578 55.543V55.7891C136.578 56.3203 136.625 56.8164 136.719 57.2773C136.812 57.7383 136.961 58.1445 137.164 58.4961C137.375 58.8398 137.648 59.1094 137.984 59.3047C138.32 59.5 138.73 59.5977 139.215 59.5977C139.684 59.5977 140.086 59.5 140.422 59.3047C140.758 59.1094 141.027 58.8398 141.23 58.4961C141.434 58.1445 141.582 57.7383 141.676 57.2773C141.777 56.8164 141.828 56.3203 141.828 55.7891V55.543C141.828 55.0273 141.777 54.543 141.676 54.0898C141.582 53.6289 141.43 53.2227 141.219 52.8711C141.016 52.5117 140.746 52.2305 140.41 52.0273C140.074 51.8242 139.668 51.7227 139.191 51.7227C138.715 51.7227 138.309 51.8242 137.973 52.0273C137.645 52.2305 137.375 52.5117 137.164 52.8711C136.961 53.2227 136.812 53.6289 136.719 54.0898C136.625 54.543 136.578 55.0273 136.578 55.543ZM154.789 58.9648V49.3203H158.164V62H154.988L154.789 58.9648ZM155.164 56.3633L156.16 56.3398C156.16 57.1836 156.062 57.9688 155.867 58.6953C155.672 59.4141 155.379 60.0391 154.988 60.5703C154.598 61.0938 154.105 61.5039 153.512 61.8008C152.918 62.0898 152.219 62.2344 151.414 62.2344C150.797 62.2344 150.227 62.1484 149.703 61.9766C149.188 61.7969 148.742 61.5195 148.367 61.1445C148 60.7617 147.711 60.2734 147.5 59.6797C147.297 59.0781 147.195 58.3555 147.195 57.5117V49.3203H150.57V57.5352C150.57 57.9102 150.613 58.2266 150.699 58.4844C150.793 58.7422 150.922 58.9531 151.086 59.1172C151.25 59.2812 151.441 59.3984 151.66 59.4688C151.887 59.5391 152.137 59.5742 152.41 59.5742C153.105 59.5742 153.652 59.4336 154.051 59.1523C154.457 58.8711 154.742 58.4883 154.906 58.0039C155.078 57.5117 155.164 56.9648 155.164 56.3633ZM168.23 59.2344V44H171.629V62H168.57L168.23 59.2344ZM160.215 55.8125V55.5664C160.215 54.5977 160.324 53.7188 160.543 52.9297C160.762 52.1328 161.082 51.4492 161.504 50.8789C161.926 50.3086 162.445 49.8672 163.062 49.5547C163.68 49.2422 164.383 49.0859 165.172 49.0859C165.914 49.0859 166.562 49.2422 167.117 49.5547C167.68 49.8672 168.156 50.3125 168.547 50.8906C168.945 51.4609 169.266 52.1367 169.508 52.918C169.75 53.6914 169.926 54.5391 170.035 55.4609V56C169.926 56.8828 169.75 57.7031 169.508 58.4609C169.266 59.2188 168.945 59.8828 168.547 60.4531C168.156 61.0156 167.68 61.4531 167.117 61.7656C166.555 62.0781 165.898 62.2344 165.148 62.2344C164.359 62.2344 163.656 62.0742 163.039 61.7539C162.43 61.4336 161.914 60.9844 161.492 60.4062C161.078 59.8281 160.762 59.1484 160.543 58.3672C160.324 57.5859 160.215 56.7344 160.215 55.8125ZM163.59 55.5664V55.8125C163.59 56.3359 163.629 56.8242 163.707 57.2773C163.793 57.7305 163.93 58.1328 164.117 58.4844C164.312 58.8281 164.562 59.0977 164.867 59.293C165.18 59.4805 165.559 59.5742 166.004 59.5742C166.582 59.5742 167.059 59.4453 167.434 59.1875C167.809 58.9219 168.094 58.5586 168.289 58.0977C168.492 57.6367 168.609 57.1055 168.641 56.5039V54.9688C168.617 54.4766 168.547 54.0352 168.43 53.6445C168.32 53.2461 168.156 52.9062 167.938 52.625C167.727 52.3438 167.461 52.125 167.141 51.9688C166.828 51.8125 166.457 51.7344 166.027 51.7344C165.59 51.7344 165.215 51.8359 164.902 52.0391C164.59 52.2344 164.336 52.5039 164.141 52.8477C163.953 53.1914 163.812 53.5977 163.719 54.0664C163.633 54.5273 163.59 55.0273 163.59 55.5664ZM189.336 57.5352C189.336 57.2305 189.289 56.957 189.195 56.7148C189.109 56.4648 188.945 56.2383 188.703 56.0352C188.461 55.8242 188.121 55.6172 187.684 55.4141C187.246 55.2109 186.68 55 185.984 54.7812C185.211 54.5312 184.477 54.25 183.781 53.9375C183.094 53.625 182.484 53.2617 181.953 52.8477C181.43 52.4258 181.016 51.9375 180.711 51.3828C180.414 50.8281 180.266 50.1836 180.266 49.4492C180.266 48.7383 180.422 48.0938 180.734 47.5156C181.047 46.9297 181.484 46.4297 182.047 46.0156C182.609 45.5938 183.273 45.2695 184.039 45.043C184.812 44.8164 185.66 44.7031 186.582 44.7031C187.84 44.7031 188.938 44.9297 189.875 45.3828C190.812 45.8359 191.539 46.457 192.055 47.2461C192.578 48.0352 192.84 48.9375 192.84 49.9531H189.348C189.348 49.4531 189.242 49.0156 189.031 48.6406C188.828 48.2578 188.516 47.957 188.094 47.7383C187.68 47.5195 187.156 47.4102 186.523 47.4102C185.914 47.4102 185.406 47.5039 185 47.6914C184.594 47.8711 184.289 48.1172 184.086 48.4297C183.883 48.7344 183.781 49.0781 183.781 49.4609C183.781 49.75 183.852 50.0117 183.992 50.2461C184.141 50.4805 184.359 50.6992 184.648 50.9023C184.938 51.1055 185.293 51.2969 185.715 51.4766C186.137 51.6562 186.625 51.832 187.18 52.0039C188.109 52.2852 188.926 52.6016 189.629 52.9531C190.34 53.3047 190.934 53.6992 191.41 54.1367C191.887 54.5742 192.246 55.0703 192.488 55.625C192.73 56.1797 192.852 56.8086 192.852 57.5117C192.852 58.2539 192.707 58.918 192.418 59.5039C192.129 60.0898 191.711 60.5859 191.164 60.9922C190.617 61.3984 189.965 61.707 189.207 61.918C188.449 62.1289 187.602 62.2344 186.664 62.2344C185.82 62.2344 184.988 62.125 184.168 61.9062C183.348 61.6797 182.602 61.3398 181.93 60.8867C181.266 60.4336 180.734 59.8555 180.336 59.1523C179.938 58.4492 179.738 57.6172 179.738 56.6562H183.266C183.266 57.1875 183.348 57.6367 183.512 58.0039C183.676 58.3711 183.906 58.668 184.203 58.8945C184.508 59.1211 184.867 59.2852 185.281 59.3867C185.703 59.4883 186.164 59.5391 186.664 59.5391C187.273 59.5391 187.773 59.4531 188.164 59.2812C188.562 59.1094 188.855 58.8711 189.043 58.5664C189.238 58.2617 189.336 57.918 189.336 57.5352ZM198.406 43.9883V62H195.031V43.9883H198.406ZM206.398 49.3203L200.891 55.6016L197.938 58.5898L196.707 56.1523L199.051 53.1758L202.344 49.3203H206.398ZM202.895 62L199.145 56.1406L201.477 54.1016L206.785 62H202.895ZM211.414 49.3203V62H208.027V49.3203H211.414ZM207.816 46.0156C207.816 45.5234 207.988 45.1172 208.332 44.7969C208.676 44.4766 209.137 44.3164 209.715 44.3164C210.285 44.3164 210.742 44.4766 211.086 44.7969C211.438 45.1172 211.613 45.5234 211.613 46.0156C211.613 46.5078 211.438 46.9141 211.086 47.2344C210.742 47.5547 210.285 47.7148 209.715 47.7148C209.137 47.7148 208.676 47.5547 208.332 47.2344C207.988 46.9141 207.816 46.5078 207.816 46.0156ZM217.766 44V62H214.379V44H217.766ZM224.117 44V62H220.73V44H224.117ZM233.762 58.4961C233.762 58.2539 233.691 58.0352 233.551 57.8398C233.41 57.6445 233.148 57.4648 232.766 57.3008C232.391 57.1289 231.848 56.9727 231.137 56.832C230.496 56.6914 229.898 56.5156 229.344 56.3047C228.797 56.0859 228.32 55.8242 227.914 55.5195C227.516 55.2148 227.203 54.8555 226.977 54.4414C226.75 54.0195 226.637 53.5391 226.637 53C226.637 52.4688 226.75 51.9688 226.977 51.5C227.211 51.0312 227.543 50.6172 227.973 50.2578C228.41 49.8906 228.941 49.6055 229.566 49.4023C230.199 49.1914 230.91 49.0859 231.699 49.0859C232.801 49.0859 233.746 49.2617 234.535 49.6133C235.332 49.9648 235.941 50.4492 236.363 51.0664C236.793 51.6758 237.008 52.3711 237.008 53.1523H233.633C233.633 52.8242 233.562 52.5312 233.422 52.2734C233.289 52.0078 233.078 51.8008 232.789 51.6523C232.508 51.4961 232.141 51.418 231.688 51.418C231.312 51.418 230.988 51.4844 230.715 51.6172C230.441 51.7422 230.23 51.9141 230.082 52.1328C229.941 52.3438 229.871 52.5781 229.871 52.8359C229.871 53.0312 229.91 53.207 229.988 53.3633C230.074 53.5117 230.211 53.6484 230.398 53.7734C230.586 53.8984 230.828 54.0156 231.125 54.125C231.43 54.2266 231.805 54.3203 232.25 54.4062C233.164 54.5938 233.98 54.8398 234.699 55.1445C235.418 55.4414 235.988 55.8477 236.41 56.3633C236.832 56.8711 237.043 57.5391 237.043 58.3672C237.043 58.9297 236.918 59.4453 236.668 59.9141C236.418 60.3828 236.059 60.793 235.59 61.1445C235.121 61.4883 234.559 61.7578 233.902 61.9531C233.254 62.1406 232.523 62.2344 231.711 62.2344C230.531 62.2344 229.531 62.0234 228.711 61.6016C227.898 61.1797 227.281 60.6445 226.859 59.9961C226.445 59.3398 226.238 58.668 226.238 57.9805H229.438C229.453 58.4414 229.57 58.8125 229.789 59.0938C230.016 59.375 230.301 59.5781 230.645 59.7031C230.996 59.8281 231.375 59.8906 231.781 59.8906C232.219 59.8906 232.582 59.832 232.871 59.7148C233.16 59.5898 233.379 59.4258 233.527 59.2227C233.684 59.0117 233.762 58.7695 233.762 58.4961ZM252.102 54.5117H247.719L247.695 52.0977H251.375C252.023 52.0977 252.555 52.0156 252.969 51.8516C253.383 51.6797 253.691 51.4336 253.895 51.1133C254.105 50.7852 254.211 50.3867 254.211 49.918C254.211 49.3867 254.109 48.957 253.906 48.6289C253.711 48.3008 253.402 48.0625 252.98 47.9141C252.566 47.7656 252.031 47.6914 251.375 47.6914H248.938V62H245.422V44.9375H251.375C252.367 44.9375 253.254 45.0312 254.035 45.2188C254.824 45.4062 255.492 45.6914 256.039 46.0742C256.586 46.457 257.004 46.9414 257.293 47.5273C257.582 48.1055 257.727 48.793 257.727 49.5898C257.727 50.293 257.566 50.9414 257.246 51.5352C256.934 52.1289 256.438 52.6133 255.758 52.9883C255.086 53.3633 254.207 53.5703 253.121 53.6094L252.102 54.5117ZM251.949 62H246.758L248.129 59.2578H251.949C252.566 59.2578 253.07 59.1602 253.461 58.9648C253.852 58.7617 254.141 58.4883 254.328 58.1445C254.516 57.8008 254.609 57.4062 254.609 56.9609C254.609 56.4609 254.523 56.0273 254.352 55.6602C254.188 55.293 253.922 55.0117 253.555 54.8164C253.188 54.6133 252.703 54.5117 252.102 54.5117H248.715L248.738 52.0977H252.957L253.766 53.0469C254.805 53.0312 255.641 53.2148 256.273 53.5977C256.914 53.9727 257.379 54.4609 257.668 55.0625C257.965 55.6641 258.113 56.3086 258.113 56.9961C258.113 58.0898 257.875 59.0117 257.398 59.7617C256.922 60.5039 256.223 61.0625 255.301 61.4375C254.387 61.8125 253.27 62 251.949 62ZM268.039 58.9648V49.3203H271.414V62H268.238L268.039 58.9648ZM268.414 56.3633L269.41 56.3398C269.41 57.1836 269.312 57.9688 269.117 58.6953C268.922 59.4141 268.629 60.0391 268.238 60.5703C267.848 61.0938 267.355 61.5039 266.762 61.8008C266.168 62.0898 265.469 62.2344 264.664 62.2344C264.047 62.2344 263.477 62.1484 262.953 61.9766C262.438 61.7969 261.992 61.5195 261.617 61.1445C261.25 60.7617 260.961 60.2734 260.75 59.6797C260.547 59.0781 260.445 58.3555 260.445 57.5117V49.3203H263.82V57.5352C263.82 57.9102 263.863 58.2266 263.949 58.4844C264.043 58.7422 264.172 58.9531 264.336 59.1172C264.5 59.2812 264.691 59.3984 264.91 59.4688C265.137 59.5391 265.387 59.5742 265.66 59.5742C266.355 59.5742 266.902 59.4336 267.301 59.1523C267.707 58.8711 267.992 58.4883 268.156 58.0039C268.328 57.5117 268.414 56.9648 268.414 56.3633ZM277.555 49.3203V62H274.168V49.3203H277.555ZM273.957 46.0156C273.957 45.5234 274.129 45.1172 274.473 44.7969C274.816 44.4766 275.277 44.3164 275.855 44.3164C276.426 44.3164 276.883 44.4766 277.227 44.7969C277.578 45.1172 277.754 45.5234 277.754 46.0156C277.754 46.5078 277.578 46.9141 277.227 47.2344C276.883 47.5547 276.426 47.7148 275.855 47.7148C275.277 47.7148 274.816 47.5547 274.473 47.2344C274.129 46.9141 273.957 46.5078 273.957 46.0156ZM283.906 44V62H280.52V44H283.906ZM294.184 59.2344V44H297.582V62H294.523L294.184 59.2344ZM286.168 55.8125V55.5664C286.168 54.5977 286.277 53.7188 286.496 52.9297C286.715 52.1328 287.035 51.4492 287.457 50.8789C287.879 50.3086 288.398 49.8672 289.016 49.5547C289.633 49.2422 290.336 49.0859 291.125 49.0859C291.867 49.0859 292.516 49.2422 293.07 49.5547C293.633 49.8672 294.109 50.3125 294.5 50.8906C294.898 51.4609 295.219 52.1367 295.461 52.918C295.703 53.6914 295.879 54.5391 295.988 55.4609V56C295.879 56.8828 295.703 57.7031 295.461 58.4609C295.219 59.2188 294.898 59.8828 294.5 60.4531C294.109 61.0156 293.633 61.4531 293.07 61.7656C292.508 62.0781 291.852 62.2344 291.102 62.2344C290.312 62.2344 289.609 62.0742 288.992 61.7539C288.383 61.4336 287.867 60.9844 287.445 60.4062C287.031 59.8281 286.715 59.1484 286.496 58.3672C286.277 57.5859 286.168 56.7344 286.168 55.8125ZM289.543 55.5664V55.8125C289.543 56.3359 289.582 56.8242 289.66 57.2773C289.746 57.7305 289.883 58.1328 290.07 58.4844C290.266 58.8281 290.516 59.0977 290.82 59.293C291.133 59.4805 291.512 59.5742 291.957 59.5742C292.535 59.5742 293.012 59.4453 293.387 59.1875C293.762 58.9219 294.047 58.5586 294.242 58.0977C294.445 57.6367 294.562 57.1055 294.594 56.5039V54.9688C294.57 54.4766 294.5 54.0352 294.383 53.6445C294.273 53.2461 294.109 52.9062 293.891 52.625C293.68 52.3438 293.414 52.125 293.094 51.9688C292.781 51.8125 292.41 51.7344 291.98 51.7344C291.543 51.7344 291.168 51.8359 290.855 52.0391C290.543 52.2344 290.289 52.5039 290.094 52.8477C289.906 53.1914 289.766 53.5977 289.672 54.0664C289.586 54.5273 289.543 55.0273 289.543 55.5664ZM306.055 62.2344C305.07 62.2344 304.188 62.0781 303.406 61.7656C302.625 61.4453 301.961 61.0039 301.414 60.4414C300.875 59.8789 300.461 59.2266 300.172 58.4844C299.883 57.7344 299.738 56.9375 299.738 56.0938V55.625C299.738 54.6641 299.875 53.7852 300.148 52.9883C300.422 52.1914 300.812 51.5 301.32 50.9141C301.836 50.3281 302.461 49.8789 303.195 49.5664C303.93 49.2461 304.758 49.0859 305.68 49.0859C306.578 49.0859 307.375 49.2344 308.07 49.5312C308.766 49.8281 309.348 50.25 309.816 50.7969C310.293 51.3438 310.652 52 310.895 52.7656C311.137 53.5234 311.258 54.3672 311.258 55.2969V56.7031H301.18V54.4531H307.941V54.1953C307.941 53.7266 307.855 53.3086 307.684 52.9414C307.52 52.5664 307.27 52.2695 306.934 52.0508C306.598 51.832 306.168 51.7227 305.645 51.7227C305.199 51.7227 304.816 51.8203 304.496 52.0156C304.176 52.2109 303.914 52.4844 303.711 52.8359C303.516 53.1875 303.367 53.6016 303.266 54.0781C303.172 54.5469 303.125 55.0625 303.125 55.625V56.0938C303.125 56.6016 303.195 57.0703 303.336 57.5C303.484 57.9297 303.691 58.3008 303.957 58.6133C304.23 58.9258 304.559 59.168 304.941 59.3398C305.332 59.5117 305.773 59.5977 306.266 59.5977C306.875 59.5977 307.441 59.4805 307.965 59.2461C308.496 59.0039 308.953 58.6406 309.336 58.1562L310.977 59.9375C310.711 60.3203 310.348 60.6875 309.887 61.0391C309.434 61.3906 308.887 61.6797 308.246 61.9062C307.605 62.125 306.875 62.2344 306.055 62.2344ZM316.555 52.0859V62H313.18V49.3203H316.355L316.555 52.0859ZM320.375 49.2383L320.316 52.3672C320.152 52.3438 319.953 52.3242 319.719 52.3086C319.492 52.2852 319.285 52.2734 319.098 52.2734C318.621 52.2734 318.207 52.3359 317.855 52.4609C317.512 52.5781 317.223 52.7539 316.988 52.9883C316.762 53.2227 316.59 53.5078 316.473 53.8438C316.363 54.1797 316.301 54.5625 316.285 54.9922L315.605 54.7812C315.605 53.9609 315.688 53.207 315.852 52.5195C316.016 51.8242 316.254 51.2188 316.566 50.7031C316.887 50.1875 317.277 49.7891 317.738 49.5078C318.199 49.2266 318.727 49.0859 319.32 49.0859C319.508 49.0859 319.699 49.1016 319.895 49.1328C320.09 49.1562 320.25 49.1914 320.375 49.2383Z" fill="#888888"/>
<path d="M115.994 98.708V104.641H99.5806V98.708H115.994ZM102.151 86.0078V118H94.439V86.0078H102.151ZM121.18 86.0078V118H113.489V86.0078H121.18ZM124.805 106.354V105.893C124.805 104.15 125.054 102.546 125.552 101.081C126.05 99.6016 126.783 98.3198 127.75 97.2358C128.716 96.1519 129.91 95.3096 131.331 94.709C132.752 94.0938 134.393 93.7861 136.253 93.7861C138.128 93.7861 139.776 94.0938 141.197 94.709C142.632 95.3096 143.833 96.1519 144.8 97.2358C145.767 98.3198 146.5 99.6016 146.998 101.081C147.496 102.546 147.745 104.15 147.745 105.893V106.354C147.745 108.083 147.496 109.687 146.998 111.167C146.5 112.631 145.767 113.913 144.8 115.012C143.833 116.096 142.64 116.938 141.219 117.539C139.798 118.139 138.157 118.439 136.297 118.439C134.437 118.439 132.789 118.139 131.353 117.539C129.917 116.938 128.716 116.096 127.75 115.012C126.783 113.913 126.05 112.631 125.552 111.167C125.054 109.687 124.805 108.083 124.805 106.354ZM132.21 105.893V106.354C132.21 107.248 132.276 108.083 132.408 108.859C132.54 109.636 132.759 110.317 133.067 110.903C133.375 111.474 133.792 111.921 134.319 112.243C134.847 112.565 135.506 112.727 136.297 112.727C137.073 112.727 137.718 112.565 138.23 112.243C138.758 111.921 139.175 111.474 139.483 110.903C139.791 110.317 140.01 109.636 140.142 108.859C140.274 108.083 140.34 107.248 140.34 106.354V105.893C140.34 105.029 140.274 104.216 140.142 103.454C140.01 102.678 139.791 101.997 139.483 101.411C139.175 100.81 138.758 100.341 138.23 100.004C137.703 99.6675 137.044 99.499 136.253 99.499C135.477 99.499 134.825 99.6675 134.297 100.004C133.785 100.341 133.375 100.81 133.067 101.411C132.759 101.997 132.54 102.678 132.408 103.454C132.276 104.216 132.21 105.029 132.21 105.893ZM158.27 110.925L162.664 94.2256H167.3L165.652 102.597L161.302 118H157.588L158.27 110.925ZM156.534 94.2256L159.258 110.793L159.566 118H155.062L149.437 94.2256H156.534ZM171.211 110.441L173.958 94.2256H181.055L175.474 118H170.97L171.211 110.441ZM167.828 94.2256L172.266 110.881L172.947 118H169.19L164.927 102.641L163.345 94.2256H167.828ZM209.466 86.0078V118H201.753V86.0078H209.466ZM219.09 86.0078V91.9624H192.349V86.0078H219.09ZM216.475 106.354V105.893C216.475 104.15 216.724 102.546 217.222 101.081C217.72 99.6016 218.453 98.3198 219.419 97.2358C220.386 96.1519 221.58 95.3096 223.001 94.709C224.422 94.0938 226.062 93.7861 227.923 93.7861C229.798 93.7861 231.446 94.0938 232.867 94.709C234.302 95.3096 235.503 96.1519 236.47 97.2358C237.437 98.3198 238.169 99.6016 238.667 101.081C239.166 102.546 239.415 104.15 239.415 105.893V106.354C239.415 108.083 239.166 109.687 238.667 111.167C238.169 112.631 237.437 113.913 236.47 115.012C235.503 116.096 234.31 116.938 232.889 117.539C231.468 118.139 229.827 118.439 227.967 118.439C226.106 118.439 224.458 118.139 223.023 117.539C221.587 116.938 220.386 116.096 219.419 115.012C218.453 113.913 217.72 112.631 217.222 111.167C216.724 109.687 216.475 108.083 216.475 106.354ZM223.88 105.893V106.354C223.88 107.248 223.946 108.083 224.078 108.859C224.209 109.636 224.429 110.317 224.737 110.903C225.044 111.474 225.462 111.921 225.989 112.243C226.517 112.565 227.176 112.727 227.967 112.727C228.743 112.727 229.388 112.565 229.9 112.243C230.428 111.921 230.845 111.474 231.153 110.903C231.46 110.317 231.68 109.636 231.812 108.859C231.944 108.083 232.01 107.248 232.01 106.354V105.893C232.01 105.029 231.944 104.216 231.812 103.454C231.68 102.678 231.46 101.997 231.153 101.411C230.845 100.81 230.428 100.341 229.9 100.004C229.373 99.6675 228.714 99.499 227.923 99.499C227.146 99.499 226.495 99.6675 225.967 100.004C225.455 100.341 225.044 100.81 224.737 101.411C224.429 101.997 224.209 102.678 224.078 103.454C223.946 104.216 223.88 105.029 223.88 105.893ZM254.268 86.0078H266.858C269.319 86.0078 271.458 86.374 273.274 87.1064C275.091 87.8389 276.49 88.9229 277.471 90.3584C278.467 91.7939 278.965 93.5664 278.965 95.6758C278.965 97.5068 278.68 99.0376 278.108 100.268C277.537 101.499 276.739 102.517 275.713 103.322C274.703 104.113 273.523 104.765 272.176 105.278L269.649 106.706H259.08L259.036 100.751H266.858C267.84 100.751 268.653 100.576 269.297 100.224C269.942 99.8726 270.425 99.3745 270.748 98.73C271.084 98.0708 271.253 97.2871 271.253 96.3789C271.253 95.4561 271.084 94.665 270.748 94.0059C270.411 93.3467 269.913 92.8413 269.253 92.4897C268.609 92.1382 267.811 91.9624 266.858 91.9624H261.98V118H254.268V86.0078ZM271.78 118L264.705 103.85L272.879 103.806L280.042 117.67V118H271.78ZM297.159 112.221V94.2256H304.585V118H297.642L297.159 112.221ZM297.862 107.387L299.795 107.343C299.795 108.94 299.605 110.419 299.224 111.782C298.843 113.129 298.279 114.301 297.532 115.297C296.8 116.293 295.892 117.07 294.808 117.626C293.738 118.168 292.5 118.439 291.094 118.439C289.922 118.439 288.846 118.278 287.864 117.956C286.897 117.619 286.062 117.099 285.359 116.396C284.656 115.678 284.107 114.763 283.711 113.649C283.331 112.521 283.14 111.174 283.14 109.606V94.2256H290.545V109.65C290.545 110.178 290.611 110.632 290.743 111.013C290.875 111.394 291.065 111.716 291.314 111.979C291.563 112.229 291.871 112.419 292.237 112.551C292.618 112.668 293.05 112.727 293.533 112.727C294.646 112.727 295.518 112.492 296.148 112.023C296.778 111.555 297.217 110.917 297.466 110.112C297.73 109.306 297.862 108.398 297.862 107.387ZM315.945 99.3013V118H308.541V94.2256H315.484L315.945 99.3013ZM315.066 105.3L313.331 105.344C313.331 103.527 313.55 101.909 313.99 100.488C314.429 99.0522 315.052 97.8364 315.857 96.8403C316.663 95.8442 317.623 95.0898 318.736 94.5771C319.864 94.0498 321.116 93.7861 322.493 93.7861C323.592 93.7861 324.595 93.9473 325.503 94.2695C326.426 94.5918 327.217 95.1118 327.876 95.8296C328.55 96.5474 329.063 97.4995 329.415 98.686C329.781 99.8579 329.964 101.308 329.964 103.037V118H322.515V103.015C322.515 102.062 322.383 101.337 322.12 100.839C321.856 100.327 321.475 99.9751 320.977 99.7847C320.479 99.5942 319.871 99.499 319.153 99.499C318.392 99.499 317.747 99.6455 317.22 99.9385C316.692 100.231 316.268 100.642 315.945 101.169C315.638 101.682 315.411 102.29 315.264 102.993C315.132 103.696 315.066 104.465 315.066 105.3ZM345.85 107.871H339.544C339.544 106.582 339.632 105.446 339.808 104.465C339.998 103.469 340.32 102.575 340.774 101.784C341.229 100.993 341.844 100.261 342.62 99.5869C343.309 99.0156 343.902 98.4663 344.4 97.939C344.898 97.4116 345.279 96.877 345.542 96.335C345.806 95.793 345.938 95.2144 345.938 94.5991C345.938 93.8374 345.828 93.2148 345.608 92.7314C345.403 92.248 345.088 91.8892 344.664 91.6548C344.253 91.4058 343.733 91.2812 343.104 91.2812C342.591 91.2812 342.107 91.4058 341.653 91.6548C341.214 91.9038 340.855 92.292 340.577 92.8193C340.298 93.332 340.145 94.0132 340.115 94.8628H332.667C332.71 92.6802 333.194 90.9077 334.117 89.5454C335.054 88.1685 336.299 87.165 337.852 86.5352C339.419 85.8906 341.17 85.5684 343.104 85.5684C345.242 85.5684 347.081 85.8979 348.619 86.5571C350.157 87.2163 351.336 88.1978 352.156 89.5015C352.977 90.7905 353.387 92.3799 353.387 94.2695C353.387 95.5293 353.145 96.6279 352.662 97.5654C352.193 98.4883 351.556 99.3525 350.75 100.158C349.959 100.949 349.073 101.799 348.091 102.707C347.242 103.454 346.663 104.216 346.355 104.992C346.048 105.754 345.879 106.713 345.85 107.871ZM338.643 114.55C338.643 113.496 339.024 112.617 339.786 111.914C340.547 111.196 341.536 110.837 342.752 110.837C343.968 110.837 344.957 111.196 345.718 111.914C346.48 112.617 346.861 113.496 346.861 114.55C346.861 115.605 346.48 116.491 345.718 117.209C344.957 117.912 343.968 118.264 342.752 118.264C341.536 118.264 340.547 117.912 339.786 117.209C339.024 116.491 338.643 115.605 338.643 114.55Z" fill="#424241"/>
<path d="M1363 15C1363 6.71573 1356.28 0 1348 0H1134V167H1348C1356.28 167 1363 160.284 1363 152V15Z" fill="#232E52"/>
<path d="M1260.77 81.3079C1263.96 81.3079 1267.09 82.2553 1269.74 84.0303C1272.4 85.8053 1274.47 88.3282 1275.69 91.2799C1276.92 94.2316 1277.24 97.4796 1276.61 100.613C1275.99 103.747 1274.45 106.625 1272.19 108.884C1269.93 111.143 1267.05 112.682 1263.92 113.305C1260.79 113.928 1257.54 113.608 1254.59 112.386C1251.64 111.163 1249.11 109.093 1247.34 106.436C1245.56 103.78 1244.62 100.657 1244.62 97.4617C1244.62 93.1774 1246.32 89.0686 1249.35 86.0392C1252.38 83.0098 1256.48 81.3079 1260.77 81.3079V81.3079ZM1260.77 75.9233C1256.51 75.9233 1252.35 77.1865 1248.8 79.5532C1245.26 81.9198 1242.5 85.2837 1240.87 89.2193C1239.24 93.1549 1238.81 97.4856 1239.64 101.664C1240.48 105.842 1242.53 109.679 1245.54 112.692C1248.55 115.704 1252.39 117.755 1256.57 118.586C1260.75 119.417 1265.08 118.991 1269.01 117.361C1272.95 115.73 1276.31 112.97 1278.68 109.428C1281.04 105.886 1282.31 101.722 1282.31 97.4617C1282.31 91.7493 1280.04 86.271 1276 82.2317C1271.96 78.1925 1266.48 75.9233 1260.77 75.9233Z" fill="white"/>
<path d="M1274.23 49H1220.38C1218.96 49 1217.59 49.5673 1216.58 50.5771C1215.57 51.5869 1215 52.9565 1215 54.3846V108.231C1215 109.659 1215.57 111.028 1216.58 112.038C1217.59 113.048 1218.96 113.615 1220.38 113.615H1231.15V108.231H1220.38V70.5384H1279.62V54.3846C1279.62 52.9565 1279.05 51.5869 1278.04 50.5771C1277.03 49.5673 1275.66 49 1274.23 49V49ZM1220.38 65.1538V54.3846H1274.23V65.1538H1220.38Z" fill="white"/>
<path d="M1255.38 89.3849V105.539L1268.85 97.4618L1255.38 89.3849Z" fill="white"/>
</svg>
