<svg width="1363" height="167" viewBox="0 0 1363 167" fill="none" xmlns="http://www.w3.org/2000/svg">
<rect width="1363" height="167" rx="15" fill="#F0F0F0"/>
<path d="M0 15C0 6.71573 6.71573 0 15 0H37V167H15C6.71573 167 0 160.284 0 152V15Z" fill="#424241"/>
<path d="M100.906 50.9219L93.3945 48.2383V45.0859L103.602 49.375V51.6367L100.906 50.9219ZM93.3945 53.1719L100.918 50.4297L103.602 49.7852V52.0352L93.3945 56.3242V53.1719ZM117.137 58H113.422L113.445 55.2578H117.137C118.059 55.2578 118.836 55.0508 119.469 54.6367C120.102 54.2148 120.578 53.6016 120.898 52.7969C121.227 51.9922 121.391 51.0195 121.391 49.8789V49.0469C121.391 48.1719 121.297 47.4023 121.109 46.7383C120.93 46.0742 120.66 45.5156 120.301 45.0625C119.941 44.6094 119.5 44.2695 118.977 44.043C118.453 43.8086 117.852 43.6914 117.172 43.6914H113.352V40.9375H117.172C118.312 40.9375 119.355 41.1328 120.301 41.5234C121.254 41.9062 122.078 42.457 122.773 43.1758C123.469 43.8945 124.004 44.7539 124.379 45.7539C124.762 46.7461 124.953 47.8516 124.953 49.0703V49.8789C124.953 51.0898 124.762 52.1953 124.379 53.1953C124.004 54.1953 123.469 55.0547 122.773 55.7734C122.086 56.4844 121.262 57.0352 120.301 57.4258C119.348 57.8086 118.293 58 117.137 58ZM115.414 40.9375V58H111.898V40.9375H115.414ZM133.133 58.2344C132.148 58.2344 131.266 58.0781 130.484 57.7656C129.703 57.4453 129.039 57.0039 128.492 56.4414C127.953 55.8789 127.539 55.2266 127.25 54.4844C126.961 53.7344 126.816 52.9375 126.816 52.0938V51.625C126.816 50.6641 126.953 49.7852 127.227 48.9883C127.5 48.1914 127.891 47.5 128.398 46.9141C128.914 46.3281 129.539 45.8789 130.273 45.5664C131.008 45.2461 131.836 45.0859 132.758 45.0859C133.656 45.0859 134.453 45.2344 135.148 45.5312C135.844 45.8281 136.426 46.25 136.895 46.7969C137.371 47.3438 137.73 48 137.973 48.7656C138.215 49.5234 138.336 50.3672 138.336 51.2969V52.7031H128.258V50.4531H135.02V50.1953C135.02 49.7266 134.934 49.3086 134.762 48.9414C134.598 48.5664 134.348 48.2695 134.012 48.0508C133.676 47.832 133.246 47.7227 132.723 47.7227C132.277 47.7227 131.895 47.8203 131.574 48.0156C131.254 48.2109 130.992 48.4844 130.789 48.8359C130.594 49.1875 130.445 49.6016 130.344 50.0781C130.25 50.5469 130.203 51.0625 130.203 51.625V52.0938C130.203 52.6016 130.273 53.0703 130.414 53.5C130.562 53.9297 130.77 54.3008 131.035 54.6133C131.309 54.9258 131.637 55.168 132.02 55.3398C132.41 55.5117 132.852 55.5977 133.344 55.5977C133.953 55.5977 134.52 55.4805 135.043 55.2461C135.574 55.0039 136.031 54.6406 136.414 54.1562L138.055 55.9375C137.789 56.3203 137.426 56.6875 136.965 57.0391C136.512 57.3906 135.965 57.6797 135.324 57.9062C134.684 58.125 133.953 58.2344 133.133 58.2344ZM144.406 55.5391L147.219 45.3203H150.746L146.469 58H144.336L144.406 55.5391ZM142.473 45.3203L145.297 55.5508L145.355 58H143.211L138.934 45.3203H142.473ZM155.82 40V58H152.434V40H155.82ZM158.07 51.7891V51.543C158.07 50.6133 158.203 49.7578 158.469 48.9766C158.734 48.1875 159.121 47.5039 159.629 46.9258C160.137 46.3477 160.762 45.8984 161.504 45.5781C162.246 45.25 163.098 45.0859 164.059 45.0859C165.02 45.0859 165.875 45.25 166.625 45.5781C167.375 45.8984 168.004 46.3477 168.512 46.9258C169.027 47.5039 169.418 48.1875 169.684 48.9766C169.949 49.7578 170.082 50.6133 170.082 51.543V51.7891C170.082 52.7109 169.949 53.5664 169.684 54.3555C169.418 55.1367 169.027 55.8203 168.512 56.4062C168.004 56.9844 167.379 57.4336 166.637 57.7539C165.895 58.0742 165.043 58.2344 164.082 58.2344C163.121 58.2344 162.266 58.0742 161.516 57.7539C160.773 57.4336 160.145 56.9844 159.629 56.4062C159.121 55.8203 158.734 55.1367 158.469 54.3555C158.203 53.5664 158.07 52.7109 158.07 51.7891ZM161.445 51.543V51.7891C161.445 52.3203 161.492 52.8164 161.586 53.2773C161.68 53.7383 161.828 54.1445 162.031 54.4961C162.242 54.8398 162.516 55.1094 162.852 55.3047C163.188 55.5 163.598 55.5977 164.082 55.5977C164.551 55.5977 164.953 55.5 165.289 55.3047C165.625 55.1094 165.895 54.8398 166.098 54.4961C166.301 54.1445 166.449 53.7383 166.543 53.2773C166.645 52.8164 166.695 52.3203 166.695 51.7891V51.543C166.695 51.0273 166.645 50.543 166.543 50.0898C166.449 49.6289 166.297 49.2227 166.086 48.8711C165.883 48.5117 165.613 48.2305 165.277 48.0273C164.941 47.8242 164.535 47.7227 164.059 47.7227C163.582 47.7227 163.176 47.8242 162.84 48.0273C162.512 48.2305 162.242 48.5117 162.031 48.8711C161.828 49.2227 161.68 49.6289 161.586 50.0898C161.492 50.543 161.445 51.0273 161.445 51.543ZM180.184 45.3203H183.242V57.5781C183.242 58.7344 182.984 59.7148 182.469 60.5195C181.961 61.332 181.25 61.9453 180.336 62.3594C179.422 62.7812 178.359 62.9922 177.148 62.9922C176.617 62.9922 176.055 62.9219 175.461 62.7812C174.875 62.6406 174.312 62.4219 173.773 62.125C173.242 61.8281 172.797 61.4531 172.438 61L173.926 59.0078C174.316 59.4609 174.77 59.8125 175.285 60.0625C175.801 60.3203 176.371 60.4492 176.996 60.4492C177.605 60.4492 178.121 60.3359 178.543 60.1094C178.965 59.8906 179.289 59.5664 179.516 59.1367C179.742 58.7148 179.855 58.2031 179.855 57.6016V48.25L180.184 45.3203ZM171.652 51.8125V51.5664C171.652 50.5977 171.77 49.7188 172.004 48.9297C172.246 48.1328 172.586 47.4492 173.023 46.8789C173.469 46.3086 174.008 45.8672 174.641 45.5547C175.273 45.2422 175.988 45.0859 176.785 45.0859C177.629 45.0859 178.336 45.2422 178.906 45.5547C179.477 45.8672 179.945 46.3125 180.312 46.8906C180.68 47.4609 180.965 48.1367 181.168 48.918C181.379 49.6914 181.543 50.5391 181.66 51.4609V52C181.543 52.8828 181.367 53.7031 181.133 54.4609C180.898 55.2188 180.59 55.8828 180.207 56.4531C179.824 57.0156 179.348 57.4531 178.777 57.7656C178.215 58.0781 177.543 58.2344 176.762 58.2344C175.98 58.2344 175.273 58.0742 174.641 57.7539C174.016 57.4336 173.48 56.9844 173.035 56.4062C172.59 55.8281 172.246 55.1484 172.004 54.3672C171.77 53.5859 171.652 52.7344 171.652 51.8125ZM175.027 51.5664V51.8125C175.027 52.3359 175.078 52.8242 175.18 53.2773C175.281 53.7305 175.438 54.1328 175.648 54.4844C175.867 54.8281 176.137 55.0977 176.457 55.293C176.785 55.4805 177.172 55.5742 177.617 55.5742C178.234 55.5742 178.738 55.4453 179.129 55.1875C179.52 54.9219 179.812 54.5586 180.008 54.0977C180.203 53.6367 180.316 53.1055 180.348 52.5039V50.9688C180.332 50.4766 180.266 50.0352 180.148 49.6445C180.031 49.2461 179.867 48.9062 179.656 48.625C179.445 48.3438 179.172 48.125 178.836 47.9688C178.5 47.8125 178.102 47.7344 177.641 47.7344C177.195 47.7344 176.809 47.8359 176.48 48.0391C176.16 48.2344 175.891 48.5039 175.672 48.8477C175.461 49.1914 175.301 49.5977 175.191 50.0664C175.082 50.5273 175.027 51.0273 175.027 51.5664Z" fill="#888888"/>
<path d="M109.93 86.0078V118H102.217V86.0078H109.93ZM119.554 86.0078V91.9624H92.813V86.0078H119.554ZM132.012 118.439C130.079 118.439 128.35 118.139 126.827 117.539C125.303 116.923 124.014 116.081 122.959 115.012C121.919 113.942 121.121 112.712 120.564 111.32C120.022 109.929 119.751 108.457 119.751 106.904V106.069C119.751 104.326 119.993 102.714 120.477 101.235C120.96 99.7407 121.678 98.437 122.63 97.3237C123.582 96.2104 124.776 95.3462 126.211 94.731C127.647 94.1011 129.317 93.7861 131.221 93.7861C132.906 93.7861 134.415 94.0571 135.748 94.5991C137.081 95.1411 138.208 95.9175 139.131 96.9282C140.069 97.939 140.779 99.1621 141.263 100.598C141.761 102.033 142.01 103.645 142.01 105.432V108.442H122.586V103.806H134.781V103.234C134.795 102.443 134.656 101.77 134.363 101.213C134.085 100.656 133.675 100.231 133.133 99.9385C132.591 99.6455 131.932 99.499 131.155 99.499C130.35 99.499 129.683 99.6748 129.156 100.026C128.643 100.378 128.24 100.861 127.947 101.477C127.669 102.077 127.471 102.773 127.354 103.564C127.237 104.355 127.178 105.19 127.178 106.069V106.904C127.178 107.783 127.295 108.581 127.53 109.299C127.779 110.017 128.13 110.632 128.584 111.145C129.053 111.643 129.61 112.031 130.254 112.309C130.914 112.587 131.661 112.727 132.496 112.727C133.506 112.727 134.502 112.536 135.484 112.155C136.465 111.774 137.308 111.145 138.011 110.266L141.373 114.265C140.889 114.953 140.201 115.62 139.307 116.264C138.428 116.909 137.374 117.436 136.143 117.846C134.913 118.242 133.536 118.439 132.012 118.439ZM155.062 112.727C155.75 112.727 156.336 112.602 156.819 112.353C157.317 112.089 157.691 111.723 157.94 111.254C158.204 110.771 158.328 110.192 158.313 109.519H165.279C165.293 111.306 164.854 112.873 163.96 114.221C163.082 115.554 161.88 116.594 160.357 117.341C158.848 118.073 157.142 118.439 155.237 118.439C153.377 118.439 151.751 118.139 150.359 117.539C148.968 116.923 147.803 116.074 146.866 114.99C145.943 113.891 145.247 112.609 144.778 111.145C144.324 109.68 144.097 108.09 144.097 106.376V105.871C144.097 104.157 144.324 102.568 144.778 101.103C145.247 99.6235 145.943 98.3418 146.866 97.2578C147.803 96.1592 148.96 95.3096 150.337 94.709C151.729 94.0938 153.348 93.7861 155.193 93.7861C157.171 93.7861 158.914 94.1597 160.423 94.9067C161.946 95.6538 163.14 96.7378 164.004 98.1587C164.869 99.5796 165.293 101.301 165.279 103.322H158.313C158.328 102.604 158.218 101.96 157.984 101.389C157.75 100.817 157.383 100.363 156.885 100.026C156.402 99.6748 155.779 99.499 155.018 99.499C154.256 99.499 153.641 99.6675 153.172 100.004C152.703 100.341 152.344 100.81 152.095 101.411C151.861 101.997 151.7 102.67 151.612 103.432C151.539 104.194 151.502 105.007 151.502 105.871V106.376C151.502 107.255 151.539 108.083 151.612 108.859C151.7 109.621 151.868 110.295 152.117 110.881C152.366 111.452 152.725 111.906 153.194 112.243C153.663 112.565 154.285 112.727 155.062 112.727ZM175.694 84.25V118H168.289V84.25H175.694ZM174.815 105.3L173.079 105.344C173.079 103.674 173.284 102.136 173.694 100.729C174.104 99.3232 174.69 98.1001 175.452 97.0601C176.214 96.02 177.129 95.2144 178.199 94.6431C179.268 94.0718 180.455 93.7861 181.758 93.7861C182.93 93.7861 184 93.9546 184.966 94.2915C185.948 94.6284 186.79 95.1704 187.493 95.9175C188.211 96.6646 188.76 97.6387 189.141 98.8398C189.537 100.041 189.734 101.506 189.734 103.234V118H182.286V103.19C182.286 102.224 182.146 101.477 181.868 100.949C181.604 100.407 181.224 100.034 180.726 99.8286C180.228 99.6089 179.62 99.499 178.902 99.499C178.038 99.499 177.334 99.6455 176.792 99.9385C176.25 100.231 175.833 100.642 175.54 101.169C175.262 101.682 175.071 102.29 174.969 102.993C174.866 103.696 174.815 104.465 174.815 105.3ZM221.88 109.497C221.88 108.999 221.807 108.552 221.661 108.156C221.514 107.746 221.243 107.365 220.848 107.014C220.452 106.662 219.881 106.311 219.134 105.959C218.401 105.593 217.435 105.212 216.233 104.816C214.827 104.348 213.472 103.82 212.168 103.234C210.865 102.634 209.7 101.938 208.675 101.147C207.649 100.341 206.836 99.4038 206.236 98.3345C205.635 97.2505 205.335 95.9907 205.335 94.5552C205.335 93.1782 205.643 91.9404 206.258 90.8418C206.873 89.7285 207.73 88.7837 208.829 88.0073C209.942 87.2163 211.246 86.6157 212.74 86.2056C214.234 85.7808 215.867 85.5684 217.64 85.5684C219.983 85.5684 222.049 85.9785 223.836 86.7988C225.638 87.6045 227.044 88.7544 228.055 90.2485C229.08 91.728 229.593 93.4785 229.593 95.5H221.924C221.924 94.6943 221.756 93.9839 221.419 93.3687C221.097 92.7534 220.606 92.27 219.947 91.9185C219.288 91.5669 218.46 91.3911 217.464 91.3911C216.497 91.3911 215.684 91.5376 215.025 91.8306C214.366 92.1235 213.868 92.519 213.531 93.0171C213.194 93.5005 213.025 94.0352 213.025 94.6211C213.025 95.1045 213.157 95.5439 213.421 95.9395C213.699 96.3203 214.087 96.6792 214.585 97.0161C215.098 97.353 215.713 97.6753 216.431 97.9829C217.164 98.2905 217.984 98.5908 218.892 98.8838C220.591 99.4258 222.1 100.034 223.418 100.708C224.751 101.367 225.872 102.121 226.78 102.971C227.703 103.806 228.399 104.758 228.868 105.827C229.351 106.896 229.593 108.105 229.593 109.453C229.593 110.888 229.314 112.163 228.758 113.276C228.201 114.389 227.403 115.334 226.363 116.11C225.323 116.872 224.078 117.451 222.627 117.846C221.177 118.242 219.559 118.439 217.771 118.439C216.131 118.439 214.512 118.234 212.916 117.824C211.333 117.399 209.898 116.755 208.609 115.891C207.32 115.012 206.287 113.891 205.511 112.529C204.749 111.152 204.368 109.519 204.368 107.629H212.103C212.103 108.566 212.227 109.357 212.476 110.002C212.725 110.646 213.091 111.167 213.575 111.562C214.058 111.943 214.651 112.221 215.354 112.397C216.058 112.558 216.863 112.639 217.771 112.639C218.753 112.639 219.544 112.5 220.145 112.221C220.745 111.928 221.185 111.547 221.463 111.079C221.741 110.595 221.88 110.068 221.88 109.497ZM245.743 94.2256V99.3672H231.417V94.2256H245.743ZM234.427 88.3149H241.832V110.244C241.832 110.874 241.905 111.364 242.051 111.716C242.198 112.053 242.447 112.294 242.798 112.441C243.165 112.573 243.648 112.639 244.249 112.639C244.673 112.639 245.025 112.631 245.303 112.617C245.582 112.587 245.845 112.551 246.094 112.507V117.802C245.464 118.007 244.805 118.161 244.117 118.264C243.428 118.381 242.696 118.439 241.919 118.439C240.337 118.439 238.982 118.19 237.854 117.692C236.741 117.194 235.892 116.411 235.306 115.341C234.72 114.272 234.427 112.88 234.427 111.167V88.3149ZM261.036 112.023V102.224C261.036 101.55 260.94 100.971 260.75 100.488C260.56 100.004 260.259 99.6309 259.849 99.3672C259.439 99.0889 258.89 98.9497 258.201 98.9497C257.645 98.9497 257.168 99.0449 256.773 99.2354C256.377 99.4258 256.077 99.7114 255.872 100.092C255.667 100.473 255.564 100.957 255.564 101.542H248.16C248.16 100.444 248.401 99.4258 248.885 98.4883C249.383 97.5361 250.086 96.7085 250.994 96.0054C251.917 95.3022 253.016 94.7603 254.29 94.3794C255.579 93.9839 257.015 93.7861 258.597 93.7861C260.486 93.7861 262.171 94.1011 263.65 94.731C265.145 95.3608 266.324 96.3057 267.188 97.5654C268.052 98.8105 268.484 100.378 268.484 102.268V112.001C268.484 113.554 268.572 114.733 268.748 115.539C268.924 116.33 269.173 117.026 269.495 117.626V118H262.068C261.717 117.268 261.453 116.374 261.277 115.319C261.116 114.25 261.036 113.151 261.036 112.023ZM261.937 103.476L261.98 107.431H258.707C258.018 107.431 257.432 107.526 256.949 107.717C256.48 107.907 256.099 108.171 255.806 108.508C255.528 108.83 255.323 109.196 255.191 109.606C255.074 110.017 255.015 110.449 255.015 110.903C255.015 111.342 255.118 111.738 255.323 112.089C255.542 112.426 255.835 112.69 256.202 112.88C256.568 113.071 256.978 113.166 257.432 113.166C258.252 113.166 258.948 113.012 259.52 112.705C260.105 112.382 260.552 111.994 260.86 111.54C261.167 111.086 261.321 110.661 261.321 110.266L262.947 113.298C262.654 113.884 262.317 114.477 261.937 115.078C261.57 115.678 261.109 116.235 260.552 116.748C260.01 117.246 259.344 117.656 258.553 117.978C257.762 118.286 256.802 118.439 255.674 118.439C254.209 118.439 252.862 118.139 251.631 117.539C250.416 116.938 249.441 116.103 248.709 115.034C247.977 113.95 247.61 112.705 247.61 111.298C247.61 110.068 247.83 108.969 248.27 108.002C248.724 107.036 249.405 106.215 250.313 105.542C251.221 104.868 252.378 104.355 253.785 104.003C255.191 103.652 256.846 103.476 258.75 103.476H261.937ZM282.635 112.727C283.323 112.727 283.909 112.602 284.393 112.353C284.891 112.089 285.264 111.723 285.513 111.254C285.777 110.771 285.901 110.192 285.887 109.519H292.852C292.867 111.306 292.427 112.873 291.534 114.221C290.655 115.554 289.454 116.594 287.93 117.341C286.421 118.073 284.715 118.439 282.811 118.439C280.95 118.439 279.324 118.139 277.933 117.539C276.541 116.923 275.376 116.074 274.439 114.99C273.516 113.891 272.82 112.609 272.352 111.145C271.897 109.68 271.67 108.09 271.67 106.376V105.871C271.67 104.157 271.897 102.568 272.352 101.103C272.82 99.6235 273.516 98.3418 274.439 97.2578C275.376 96.1592 276.534 95.3096 277.911 94.709C279.302 94.0938 280.921 93.7861 282.767 93.7861C284.744 93.7861 286.487 94.1597 287.996 94.9067C289.52 95.6538 290.713 96.7378 291.578 98.1587C292.442 99.5796 292.867 101.301 292.852 103.322H285.887C285.901 102.604 285.792 101.96 285.557 101.389C285.323 100.817 284.957 100.363 284.458 100.026C283.975 99.6748 283.353 99.499 282.591 99.499C281.829 99.499 281.214 99.6675 280.745 100.004C280.276 100.341 279.917 100.81 279.668 101.411C279.434 101.997 279.273 102.67 279.185 103.432C279.112 104.194 279.075 105.007 279.075 105.871V106.376C279.075 107.255 279.112 108.083 279.185 108.859C279.273 109.621 279.441 110.295 279.69 110.881C279.939 111.452 280.298 111.906 280.767 112.243C281.236 112.565 281.858 112.727 282.635 112.727ZM303.487 84.228V118H296.082V84.228H303.487ZM318.692 94.2256L308.365 106.333L302.959 111.738L299.729 107.036L304.234 101.169L309.815 94.2256H318.692ZM310.76 118L304.41 107.167L309.881 103.278L319.241 118H310.76Z" fill="#424241"/>
<path d="M1363 15C1363 6.71573 1356.28 0 1348 0H1134V167H1348C1356.28 167 1363 160.284 1363 152V15Z" fill="#232E52"/>
<path fill-rule="evenodd" clip-rule="evenodd" d="M1218.5 55C1218.37 55 1218.24 55.0527 1218.15 55.1464C1218.05 55.2402 1218 55.3674 1218 55.5V111.5C1218 111.633 1218.05 111.76 1218.15 111.854C1218.24 111.947 1218.37 112 1218.5 112H1278C1278.13 112 1278.26 111.947 1278.35 111.854C1278.45 111.76 1278.5 111.633 1278.5 111.5V66C1278.5 65.8674 1278.45 65.7402 1278.35 65.6464C1278.26 65.5527 1278.13 65.5 1278 65.5H1248.25C1247.36 65.5 1246.52 65.1045 1245.95 64.4206L1238.09 55H1218.5ZM1213.9 50.9038C1215.12 49.6848 1216.78 49 1218.5 49H1239.5C1240.39 49 1241.23 49.3955 1241.8 50.0794L1249.66 59.5H1278C1279.72 59.5 1281.38 60.1848 1282.6 61.4038C1283.82 62.6228 1284.5 64.2761 1284.5 66V111.5C1284.5 113.224 1283.82 114.877 1282.6 116.096C1281.38 117.315 1279.72 118 1278 118H1218.5C1216.78 118 1215.12 117.315 1213.9 116.096C1212.68 114.877 1212 113.224 1212 111.5V55.5C1212 53.7761 1212.68 52.1228 1213.9 50.9038Z" fill="white"/>
<path fill-rule="evenodd" clip-rule="evenodd" d="M1243.72 77.5251C1245.09 78.892 1245.09 81.108 1243.72 82.4749L1237.45 88.75L1243.72 95.0251C1245.09 96.392 1245.09 98.608 1243.72 99.9749C1242.36 101.342 1240.14 101.342 1238.78 99.9749L1230.03 91.2249C1228.66 89.858 1228.66 87.642 1230.03 86.2751L1238.78 77.5251C1240.14 76.1583 1242.36 76.1583 1243.72 77.5251Z" fill="white"/>
<path fill-rule="evenodd" clip-rule="evenodd" d="M1252.03 99.9749C1250.66 98.608 1250.66 96.392 1252.03 95.0251L1258.3 88.75L1252.03 82.4749C1250.66 81.108 1250.66 78.892 1252.03 77.5251C1253.39 76.1583 1255.61 76.1583 1256.97 77.5251L1265.72 86.2751C1267.09 87.642 1267.09 89.858 1265.72 91.2249L1256.97 99.9749C1255.61 101.342 1253.39 101.342 1252.03 99.9749Z" fill="white"/>
</svg>
